M48
; DRILL file {KiCad 9.0.6} date 2026-01-05T08:45:00+0100
; FORMAT={-:-/ absolute / metric / decimal}
; #@! TF.CreationDate,2026-01-05T08:45:00+01:00
; #@! TF.GenerationSoftware,Kicad,Pcbnew,9.0.6
; #@! TF.FileFunction,Plated,1,2,PTH
FMAT,2
METRIC
; #@! TA.AperFunction,Plated,PTH,ComponentDrill
T1C0.200
; #@! TA.AperFunction,Plated,PTH,ViaDrill
T2C0.300
; #@! TA.AperFunction,Plated,PTH,ViaDrill
T3C0.400
; #@! TA.AperFunction,Plated,PTH,ComponentDrill
T4C0.600
; #@! TA.AperFunction,Plated,PTH,ComponentDrill
T5C0.700
; #@! TA.AperFunction,Plated,PTH,ComponentDrill
T6C0.800
; #@! TA.AperFunction,Plated,PTH,ComponentDrill
T7C0.900
; #@! TA.AperFunction,Plated,PTH,ComponentDrill
T8C1.000
; #@! TA.AperFunction,Plated,PTH,ComponentDrill
T9C1.030
%
G90
G05
T1
X135.3Y-58.56
X135.3Y-59.96
X136.0Y-57.86
X136.0Y-59.26
X136.0Y-60.66
X136.7Y-58.56
X136.7Y-59.96
X137.4Y-57.86
X137.4Y-59.26
X137.4Y-60.66
X138.1Y-58.56
X138.1Y-59.96
T2
X107.045Y-75.505
X108.545Y-73.405
X109.045Y-77.455
X109.999Y-77.501
X116.8Y-72.6
X116.9Y-74.53
X118.874Y-73.274
X119.4Y-68.1
X122.1Y-71.4
X132.0Y-54.0
X132.5Y-67.7
X142.3Y-60.6
X143.0Y-61.8
X144.5Y-59.3
X157.05Y-132.35
X159.0Y-133.5
X160.2Y-129.0
X160.5Y-133.5
X161.0Y-129.0
X161.1Y-93.8
X162.674Y-123.296
X163.0Y-127.0
X167.688Y-59.535
X170.5Y-144.15
X170.7Y-93.9
X170.7Y-131.95
X170.9Y-79.3
X171.93Y-64.367
X172.4Y-137.05
X173.35Y-132.1
X173.6Y-127.6
X173.6Y-147.4
X175.1Y-140.1
X175.471Y-113.05
X175.5Y-68.0
X176.4Y-128.75
X176.838Y-116.438
X178.6Y-137.7
X178.75Y-146.55
X179.4Y-143.15
X179.765Y-116.832
X180.011Y-112.858
X180.088Y-127.5
X180.612Y-112.331
X180.7Y-125.25
X181.012Y-121.5
X181.75Y-130.95
X184.148Y-135.6
X184.25Y-108.4
X184.25Y-125.0
X184.25Y-147.2
X184.443Y-129.307
X185.9Y-134.5
X188.9Y-93.2
X189.4Y-93.9
X189.68Y-64.438
X190.58Y-66.138
X192.2Y-64.438
X192.24Y-65.638
X195.9Y-90.5
X196.25Y-93.25
X197.4Y-87.2
T3
X105.395Y-75.655
X108.295Y-79.205
X114.078Y-76.729
X115.2Y-71.5
X116.362Y-52.68
X118.8Y-75.8
X131.9Y-85.1
X133.75Y-91.145
X133.75Y-100.145
X143.7Y-100.2
X157.691Y-129.611
X159.0Y-111.6
X161.1Y-54.4
X162.0Y-129.5
X163.2Y-111.6
X167.917Y-61.135
X168.8Y-101.1
X171.2Y-129.3
X171.33Y-60.917
X172.4Y-97.5
X179.425Y-84.575
X182.75Y-138.2
X183.312Y-117.312
X183.312Y-118.962
X184.262Y-110.8
X184.512Y-112.3
X184.512Y-113.801
X185.312Y-107.662
X185.362Y-111.362
X187.53Y-64.287
X187.562Y-113.312
X191.64Y-67.688
X192.05Y-62.787
X193.1Y-98.8
X193.1Y-106.4
X193.1Y-113.5
X193.1Y-121.2
X193.1Y-128.4
X193.1Y-135.8
X194.1Y-88.1
T7
X106.82Y-94.01
X106.82Y-96.05
X106.82Y-98.09
X106.82Y-100.13
X109.36Y-92.99
X109.36Y-95.03
X109.36Y-97.07
X109.36Y-99.11
X118.93Y-142.16
X119.95Y-144.7
X120.97Y-142.16
X121.99Y-144.7
X123.01Y-142.16
X124.03Y-144.7
X125.05Y-142.16
X126.07Y-144.7
X138.93Y-142.16
X139.95Y-144.7
X140.97Y-142.16
X141.99Y-144.7
X143.01Y-142.16
X144.03Y-144.7
X145.05Y-142.16
X146.07Y-144.7
X173.77Y-135.25
X175.04Y-132.71
X176.31Y-135.25
X177.58Y-132.71
X178.85Y-135.25
X180.12Y-132.71
X181.39Y-135.25
X182.66Y-132.71
T8
X167.31Y-53.81
X169.85Y-53.81
X172.39Y-53.81
T9
X171.89Y-146.5
X174.43Y-144.98
X182.0Y-146.5
X184.54Y-144.98
T4
G00X194.542Y-60.967
M15
G01X193.542Y-60.967
M16
G05
G00X194.542Y-69.608
M15
G01X193.542Y-69.608
M16
G05
G00X198.492Y-60.967
M15
G01X197.892Y-60.967
M16
G05
G00X198.492Y-69.608
M15
G01X197.892Y-69.608
M16
G05
T5
G00X158.3Y-139.65
M15
G01X158.3Y-140.45
M16
G05
G00X158.3Y-143.65
M15
G01X158.3Y-144.45
M16
G05
G00X158.3Y-146.65
M15
G01X158.3Y-147.45
M16
G05
G00X162.7Y-138.3
M15
G01X162.7Y-139.1
M16
G05
T6
G00X170.34Y-138.05
M15
G01X170.34Y-139.05
M16
G05
G00X186.09Y-138.05
M15
G01X186.09Y-139.05
M16
G05
M30
