G04 #@! TF.GenerationSoftware,KiCad,Pcbnew,9.0.6*
G04 #@! TF.CreationDate,2026-01-05T08:43:28+01:00*
G04 #@! TF.ProjectId,revolvenow_hardware,7265766f-6c76-4656-9e6f-775f68617264,rev?*
G04 #@! TF.SameCoordinates,Original*
G04 #@! TF.FileFunction,Copper,L2,Bot*
G04 #@! TF.FilePolarity,Positive*
%FSLAX46Y46*%
G04 Gerber Fmt 4.6, Leading zero omitted, Abs format (unit mm)*
G04 Created by KiCad (PCBNEW 9.0.6) date 2026-01-05 08:43:28*
%MOMM*%
%LPD*%
G01*
G04 APERTURE LIST*
G04 Aperture macros list*
%AMRoundRect*
0 Rectangle with rounded corners*
0 $1 Rounding radius*
0 $2 $3 $4 $5 $6 $7 $8 $9 X,Y pos of 4 corners*
0 Add a 4 corners polygon primitive as box body*
4,1,4,$2,$3,$4,$5,$6,$7,$8,$9,$2,$3,0*
0 Add four circle primitives for the rounded corners*
1,1,$1+$1,$2,$3*
1,1,$1+$1,$4,$5*
1,1,$1+$1,$6,$7*
1,1,$1+$1,$8,$9*
0 Add four rect primitives between the rounded corners*
20,1,$1+$1,$2,$3,$4,$5,0*
20,1,$1+$1,$4,$5,$6,$7,0*
20,1,$1+$1,$6,$7,$8,$9,0*
20,1,$1+$1,$8,$9,$2,$3,0*%
G04 Aperture macros list end*
G04 #@! TA.AperFunction,ComponentPad*
%ADD10R,1.700000X1.700000*%
G04 #@! TD*
G04 #@! TA.AperFunction,ComponentPad*
%ADD11C,1.700000*%
G04 #@! TD*
G04 #@! TA.AperFunction,ComponentPad*
%ADD12O,2.000000X1.000000*%
G04 #@! TD*
G04 #@! TA.AperFunction,ComponentPad*
%ADD13O,1.600000X1.000000*%
G04 #@! TD*
G04 #@! TA.AperFunction,ComponentPad*
%ADD14C,1.600000*%
G04 #@! TD*
G04 #@! TA.AperFunction,ComponentPad*
%ADD15RoundRect,0.165000X-0.385000X0.785000X-0.385000X-0.785000X0.385000X-0.785000X0.385000X0.785000X0*%
G04 #@! TD*
G04 #@! TA.AperFunction,ComponentPad*
%ADD16C,1.720000*%
G04 #@! TD*
G04 #@! TA.AperFunction,ComponentPad*
%ADD17RoundRect,0.174419X-0.425581X0.925581X-0.425581X-0.925581X0.425581X-0.925581X0.425581X0.925581X0*%
G04 #@! TD*
G04 #@! TA.AperFunction,HeatsinkPad*
%ADD18C,0.600000*%
G04 #@! TD*
G04 #@! TA.AperFunction,ViaPad*
%ADD19C,0.600000*%
G04 #@! TD*
G04 #@! TA.AperFunction,ViaPad*
%ADD20C,0.900000*%
G04 #@! TD*
G04 #@! TA.AperFunction,Conductor*
%ADD21C,0.400000*%
G04 #@! TD*
G04 #@! TA.AperFunction,Conductor*
%ADD22C,0.200000*%
G04 #@! TD*
G04 APERTURE END LIST*
D10*
X167310000Y-53810000D03*
D11*
X169850000Y-53810000D03*
X172390000Y-53810000D03*
D12*
X194042500Y-69607500D03*
D13*
X198192500Y-69607500D03*
D12*
X194042500Y-60967500D03*
D13*
X198192500Y-60967500D03*
D14*
X146070000Y-144700000D03*
X145050000Y-142160000D03*
X144030000Y-144700000D03*
X143010000Y-142160000D03*
X141990000Y-144700000D03*
X140970000Y-142160000D03*
X139950000Y-144700000D03*
X138930000Y-142160000D03*
D15*
X158300000Y-144050000D03*
X158300000Y-147050000D03*
X162700000Y-138700000D03*
X158300000Y-140050000D03*
D14*
X173770000Y-135250000D03*
X175040000Y-132710000D03*
X176310000Y-135250000D03*
X177580000Y-132710000D03*
X178850000Y-135250000D03*
X180120000Y-132710000D03*
X181390000Y-135250000D03*
X182660000Y-132710000D03*
D16*
X171890000Y-146500000D03*
X174430000Y-144980000D03*
X182000000Y-146500000D03*
X184540000Y-144980000D03*
D17*
X186090000Y-138550000D03*
X170340000Y-138550000D03*
D14*
X106820000Y-100130000D03*
X109360000Y-99110000D03*
X106820000Y-98090000D03*
X109360000Y-97070000D03*
X106820000Y-96050000D03*
X109360000Y-95030000D03*
X106820000Y-94010000D03*
X109360000Y-92990000D03*
D18*
X135300000Y-58560000D03*
X135300000Y-59960000D03*
X136000000Y-57860000D03*
X136000000Y-59260000D03*
X136000000Y-60660000D03*
X136700000Y-58560000D03*
X136700000Y-59960000D03*
X137400000Y-57860000D03*
X137400000Y-59260000D03*
X137400000Y-60660000D03*
X138100000Y-58560000D03*
X138100000Y-59960000D03*
D14*
X126070000Y-144700000D03*
X125050000Y-142160000D03*
X124030000Y-144700000D03*
X123010000Y-142160000D03*
X121990000Y-144700000D03*
X120970000Y-142160000D03*
X119950000Y-144700000D03*
X118930000Y-142160000D03*
D19*
X108545000Y-73405000D03*
D20*
X157690544Y-129611295D03*
X162000000Y-129500000D03*
X184262500Y-110800000D03*
D19*
X175500000Y-68000000D03*
D20*
X193100000Y-113500000D03*
D19*
X176400000Y-128750000D03*
D20*
X193100000Y-106400000D03*
X184512500Y-113801000D03*
X187562500Y-113312500D03*
D19*
X179764669Y-116831713D03*
X109999283Y-77500717D03*
X119400000Y-68100000D03*
D20*
X193100000Y-121200000D03*
X167917500Y-61135000D03*
X184512500Y-112300000D03*
X105395000Y-75655000D03*
X108295000Y-79205000D03*
X193100000Y-98800000D03*
D19*
X157050000Y-132350000D03*
X175470827Y-113049651D03*
X197400000Y-87200000D03*
D20*
X114077849Y-76729283D03*
D19*
X196250000Y-93250000D03*
D20*
X171330000Y-60917500D03*
D19*
X176837500Y-116437500D03*
X122100000Y-71400000D03*
X173600000Y-127600000D03*
X184250000Y-125000000D03*
D20*
X194100000Y-88100000D03*
D19*
X184148486Y-135600042D03*
X184250000Y-108400000D03*
D20*
X193100000Y-128400000D03*
D19*
X195900000Y-90500000D03*
D20*
X193100000Y-135800000D03*
X131900000Y-85100000D03*
X115200000Y-71500000D03*
X168800000Y-101100000D03*
X118800000Y-75800000D03*
X172400000Y-97500000D03*
X163200000Y-111600000D03*
X143700000Y-100200000D03*
X161100000Y-54400000D03*
X133750000Y-91145000D03*
X116362291Y-52679791D03*
X159000000Y-111600000D03*
X179425000Y-84575000D03*
X133750000Y-100145000D03*
D19*
X161100000Y-93800000D03*
X189400000Y-93900000D03*
X170700000Y-93900000D03*
X132000000Y-54000000D03*
X170900000Y-79300000D03*
X159000000Y-133500000D03*
X160199997Y-129000000D03*
X161000000Y-129000000D03*
X160500000Y-133500000D03*
X167687500Y-59535000D03*
X171930000Y-64367500D03*
X192240000Y-65637500D03*
X192200000Y-64437500D03*
X189680000Y-64437500D03*
X190580000Y-66137500D03*
X107045000Y-75505000D03*
X109045000Y-77455000D03*
X163000000Y-127000000D03*
X162673696Y-123296477D03*
X116900000Y-74530000D03*
X144500000Y-59300000D03*
X143000000Y-61800000D03*
X118874265Y-73274265D03*
X116800000Y-72600000D03*
X142300000Y-60600000D03*
X180087500Y-127500000D03*
D20*
X171200000Y-129300000D03*
D19*
X175100000Y-140100000D03*
X178750000Y-146550000D03*
X178600000Y-137700000D03*
X172400000Y-137050000D03*
X181750000Y-130950000D03*
X173600000Y-147400000D03*
X185900000Y-134500000D03*
X184250000Y-147200000D03*
X173350000Y-132100000D03*
D20*
X182750000Y-138200000D03*
D19*
X179400000Y-143150000D03*
X170700000Y-131950000D03*
X170500000Y-144150000D03*
X180612500Y-112331132D03*
X181012500Y-121500000D03*
X184443015Y-129306985D03*
X180010501Y-112858010D03*
X180700000Y-125250000D03*
X188900000Y-93200000D03*
X132500000Y-67700000D03*
D20*
X191640000Y-67687500D03*
X192050000Y-62787500D03*
X187530000Y-64287500D03*
X185362500Y-111362500D03*
X185312500Y-107662500D03*
X183312500Y-117312500D03*
X183312500Y-118962500D03*
D21*
X157690544Y-129611295D02*
X157690544Y-129610730D01*
X161500000Y-128000000D02*
X162329380Y-128829380D01*
X157690544Y-129610730D02*
X159301274Y-128000000D01*
X162329380Y-129170620D02*
X162000000Y-129500000D01*
X159301274Y-128000000D02*
X161500000Y-128000000D01*
X162329380Y-128829380D02*
X162329380Y-129170620D01*
X114077849Y-76729283D02*
X110770717Y-76729283D01*
X183073732Y-113801000D02*
X180902864Y-111630132D01*
X185001000Y-113312500D02*
X184512500Y-113801000D01*
X177233882Y-116833882D02*
X179762500Y-116833882D01*
D22*
X174430000Y-144980000D02*
X174768528Y-144980000D01*
D21*
X109999283Y-77500717D02*
X108295000Y-79205000D01*
D22*
X184148486Y-135600042D02*
X185151000Y-134597528D01*
D21*
X176890346Y-111630132D02*
X175470827Y-113049651D01*
X180902864Y-111630132D02*
X176890346Y-111630132D01*
X105395000Y-76305000D02*
X108295000Y-79205000D01*
X193100000Y-89100000D02*
X194100000Y-88100000D01*
X193100000Y-98800000D02*
X193100000Y-89100000D01*
X187562500Y-113312500D02*
X185001000Y-113312500D01*
X193100000Y-113500000D02*
X193100000Y-121200000D01*
X177233882Y-116833882D02*
X176837500Y-116437500D01*
X171112500Y-61135000D02*
X171330000Y-60917500D01*
X184512500Y-113801000D02*
X184512500Y-112300000D01*
X184512500Y-113801000D02*
X183073732Y-113801000D01*
X176837500Y-116437500D02*
X175470827Y-115070827D01*
X193100000Y-121200000D02*
X193100000Y-128400000D01*
X193100000Y-128400000D02*
X193100000Y-135800000D01*
X105395000Y-75655000D02*
X105395000Y-76305000D01*
D22*
X185151000Y-134597528D02*
X185151000Y-125901000D01*
D21*
X175470827Y-115070827D02*
X175470827Y-113049651D01*
D22*
X185151000Y-125901000D02*
X184250000Y-125000000D01*
D21*
X184262500Y-112050000D02*
X184512500Y-112300000D01*
D22*
X174768528Y-144980000D02*
X184148486Y-135600042D01*
D21*
X193100000Y-106400000D02*
X193100000Y-113500000D01*
X193100000Y-98800000D02*
X193100000Y-106400000D01*
X179762500Y-116833882D02*
X179764669Y-116831713D01*
X167917500Y-61135000D02*
X171112500Y-61135000D01*
X110770717Y-76729283D02*
X109999283Y-77500717D01*
X184262500Y-110800000D02*
X184262500Y-112050000D01*
X168800000Y-101100000D02*
X172400000Y-97500000D01*
X118800000Y-75800000D02*
X117178636Y-75800000D01*
X163200000Y-111600000D02*
X159000000Y-111600000D01*
X131900000Y-88700000D02*
X131900000Y-85100000D01*
X143645000Y-100145000D02*
X133750000Y-100145000D01*
X161100000Y-54400000D02*
X157700000Y-57800000D01*
X117178636Y-75800000D02*
X115200000Y-73821364D01*
X116362291Y-52679791D02*
X116362291Y-70337709D01*
X116362291Y-70337709D02*
X115200000Y-71500000D01*
X133750000Y-100145000D02*
X133750000Y-91145000D01*
X133750000Y-90550000D02*
X131900000Y-88700000D01*
X143645000Y-100145000D02*
X143700000Y-100200000D01*
X157700000Y-57800000D02*
X157700000Y-61400000D01*
X157700000Y-61400000D02*
X179425000Y-83125000D01*
X179425000Y-83125000D02*
X179425000Y-84575000D01*
X115200000Y-73821364D02*
X115200000Y-71500000D01*
X133750000Y-91145000D02*
X133750000Y-90550000D01*
D22*
X170700000Y-93900000D02*
X189400000Y-93900000D01*
X161200000Y-93900000D02*
X161100000Y-93800000D01*
X170700000Y-93900000D02*
X161200000Y-93900000D01*
X153500000Y-61900000D02*
X153500000Y-57800000D01*
X153500000Y-57800000D02*
X153500000Y-55300000D01*
X152200000Y-54000000D02*
X132000000Y-54000000D01*
X153500000Y-55300000D02*
X152200000Y-54000000D01*
X170900000Y-79300000D02*
X153500000Y-61900000D01*
X160199997Y-132300003D02*
X159000000Y-133500000D01*
X160199997Y-129000000D02*
X160199997Y-132300003D01*
X160500000Y-133500000D02*
X161000000Y-133000000D01*
X161000000Y-133000000D02*
X161000000Y-129000000D01*
X171629575Y-60155000D02*
X172081000Y-60606425D01*
X172081000Y-64216500D02*
X171930000Y-64367500D01*
X168387500Y-60155000D02*
X171629575Y-60155000D01*
X167767500Y-59535000D02*
X168387500Y-60155000D01*
X167687500Y-59535000D02*
X167767500Y-59535000D01*
X172081000Y-60606425D02*
X172081000Y-64216500D01*
X192240000Y-65637500D02*
X192240000Y-64477500D01*
X192240000Y-64477500D02*
X192200000Y-64437500D01*
X190580000Y-65337500D02*
X189680000Y-64437500D01*
X190580000Y-66137500D02*
X190580000Y-65337500D01*
X107045000Y-75505000D02*
X108995000Y-77455000D01*
X108995000Y-77455000D02*
X109045000Y-77455000D01*
X163000000Y-123622781D02*
X162673696Y-123296477D01*
X163000000Y-127000000D02*
X163000000Y-123622781D01*
X144500000Y-59300000D02*
X138699000Y-65101000D01*
X126199000Y-65101000D02*
X116900000Y-74400000D01*
X116900000Y-74400000D02*
X116900000Y-74530000D01*
X138699000Y-65101000D02*
X126199000Y-65101000D01*
X118874265Y-73274265D02*
X126646530Y-65502000D01*
X126800000Y-65502000D02*
X139298000Y-65502000D01*
X139298000Y-65502000D02*
X143000000Y-61800000D01*
X126646530Y-65502000D02*
X126800000Y-65502000D01*
X138200000Y-64700000D02*
X142300000Y-60600000D01*
X116800000Y-72600000D02*
X118132900Y-72600000D01*
X126032900Y-64700000D02*
X137900000Y-64700000D01*
X118132900Y-72600000D02*
X126032900Y-64700000D01*
X137900000Y-64700000D02*
X138200000Y-64700000D01*
X180120000Y-127532500D02*
X180087500Y-127500000D01*
X180120000Y-132710000D02*
X180120000Y-127532500D01*
D21*
X185690000Y-138150000D02*
X186090000Y-138550000D01*
X185740000Y-138200000D02*
X186090000Y-138550000D01*
X178850000Y-135250000D02*
X178850000Y-133980000D01*
X171200000Y-129300000D02*
X174170000Y-129300000D01*
X178850000Y-133980000D02*
X177580000Y-132710000D01*
X182750000Y-138200000D02*
X185740000Y-138200000D01*
X174170000Y-129300000D02*
X177580000Y-132710000D01*
D22*
X180813500Y-112532132D02*
X180813500Y-121300000D01*
X180612500Y-112331132D02*
X180813500Y-112532132D01*
X180813500Y-121300000D02*
X180813500Y-121301000D01*
X180813500Y-121301000D02*
X181012500Y-121500000D01*
X171890000Y-145878098D02*
X171890000Y-146500000D01*
X173949098Y-143819000D02*
X171890000Y-145878098D01*
X184750000Y-134150000D02*
X175081000Y-143819000D01*
X175081000Y-143819000D02*
X173949098Y-143819000D01*
X184750000Y-129613970D02*
X184750000Y-134150000D01*
X184443015Y-129306985D02*
X184750000Y-129613970D01*
X180010501Y-112858010D02*
X180412500Y-113260009D01*
X180412500Y-124962500D02*
X180700000Y-125250000D01*
X180412500Y-113260009D02*
X180412500Y-124962500D01*
X171400000Y-93200000D02*
X152000000Y-93200000D01*
X132500000Y-73700000D02*
X132500000Y-67700000D01*
X152000000Y-93200000D02*
X132500000Y-73700000D01*
X171400000Y-93200000D02*
X188900000Y-93200000D01*
D21*
X192050000Y-62787500D02*
X191499000Y-63338500D01*
X191499000Y-67546500D02*
X191640000Y-67687500D01*
X191499000Y-63338500D02*
X191499000Y-66217500D01*
X191499000Y-66217500D02*
X191499000Y-67546500D01*
X191640000Y-67687500D02*
X190930000Y-67687500D01*
X190930000Y-67687500D02*
X187530000Y-64287500D01*
X185312500Y-107662500D02*
X185312500Y-111312500D01*
X183312500Y-117312500D02*
X183312500Y-118962500D01*
X185312500Y-111312500D02*
X185362500Y-111362500D01*
G04 #@! TA.AperFunction,Conductor*
G36*
X196979222Y-60307185D02*
G01*
X197024977Y-60359989D01*
X197034921Y-60429147D01*
X197015284Y-60480392D01*
X197006315Y-60493813D01*
X197006307Y-60493828D01*
X196930930Y-60675807D01*
X196930930Y-60675809D01*
X196922638Y-60717500D01*
X197725512Y-60717500D01*
X197708295Y-60727440D01*
X197652440Y-60783295D01*
X197612944Y-60851704D01*
X197592500Y-60928004D01*
X197592500Y-61006996D01*
X197612944Y-61083296D01*
X197652440Y-61151705D01*
X197708295Y-61207560D01*
X197725512Y-61217500D01*
X196922638Y-61217500D01*
X196930930Y-61259190D01*
X196930930Y-61259192D01*
X197006307Y-61441171D01*
X197006314Y-61441184D01*
X197115748Y-61604962D01*
X197115751Y-61604966D01*
X197255033Y-61744248D01*
X197255037Y-61744251D01*
X197418815Y-61853685D01*
X197418828Y-61853692D01*
X197600806Y-61929069D01*
X197600818Y-61929072D01*
X197794004Y-61967499D01*
X197794008Y-61967500D01*
X197942500Y-61967500D01*
X197942500Y-61267500D01*
X198442500Y-61267500D01*
X198442500Y-61967500D01*
X198590992Y-61967500D01*
X198590995Y-61967499D01*
X198784181Y-61929072D01*
X198784193Y-61929069D01*
X198966171Y-61853692D01*
X198966184Y-61853685D01*
X199129962Y-61744251D01*
X199129966Y-61744248D01*
X199269248Y-61604966D01*
X199269253Y-61604960D01*
X199272396Y-61600257D01*
X199326006Y-61555450D01*
X199395331Y-61546740D01*
X199458360Y-61576893D01*
X199495081Y-61636335D01*
X199499500Y-61669144D01*
X199499500Y-68905855D01*
X199479815Y-68972894D01*
X199427011Y-69018649D01*
X199357853Y-69028593D01*
X199294297Y-68999568D01*
X199272399Y-68974747D01*
X199269253Y-68970039D01*
X199269248Y-68970033D01*
X199129966Y-68830751D01*
X199129962Y-68830748D01*
X198966184Y-68721314D01*
X198966171Y-68721307D01*
X198784193Y-68645930D01*
X198784181Y-68645927D01*
X198590995Y-68607500D01*
X198442500Y-68607500D01*
X198442500Y-69307500D01*
X197942500Y-69307500D01*
X197942500Y-68607500D01*
X197794004Y-68607500D01*
X197600818Y-68645927D01*
X197600806Y-68645930D01*
X197418828Y-68721307D01*
X197418815Y-68721314D01*
X197255037Y-68830748D01*
X197255033Y-68830751D01*
X197115751Y-68970033D01*
X197115748Y-68970037D01*
X197006314Y-69133815D01*
X197006307Y-69133828D01*
X196930930Y-69315807D01*
X196930930Y-69315809D01*
X196922638Y-69357500D01*
X197725512Y-69357500D01*
X197708295Y-69367440D01*
X197652440Y-69423295D01*
X197612944Y-69491704D01*
X197592500Y-69568004D01*
X197592500Y-69646996D01*
X197612944Y-69723296D01*
X197652440Y-69791705D01*
X197708295Y-69847560D01*
X197725512Y-69857500D01*
X196922638Y-69857500D01*
X196930930Y-69899190D01*
X196930930Y-69899192D01*
X197006307Y-70081171D01*
X197006311Y-70081178D01*
X197018714Y-70099740D01*
X197039592Y-70166418D01*
X197021108Y-70233798D01*
X196969129Y-70280489D01*
X196915819Y-70292632D01*
X195518036Y-70294964D01*
X195450964Y-70275391D01*
X195405121Y-70222664D01*
X195395062Y-70153522D01*
X195414729Y-70102070D01*
X195428686Y-70081182D01*
X195428692Y-70081171D01*
X195504069Y-69899192D01*
X195504069Y-69899190D01*
X195512362Y-69857500D01*
X194709488Y-69857500D01*
X194726705Y-69847560D01*
X194782560Y-69791705D01*
X194822056Y-69723296D01*
X194842500Y-69646996D01*
X194842500Y-69568004D01*
X194822056Y-69491704D01*
X194782560Y-69423295D01*
X194726705Y-69367440D01*
X194709488Y-69357500D01*
X195512362Y-69357500D01*
X195504069Y-69315809D01*
X195504069Y-69315807D01*
X195428692Y-69133828D01*
X195428685Y-69133815D01*
X195319251Y-68970037D01*
X195319248Y-68970033D01*
X195179966Y-68830751D01*
X195179962Y-68830748D01*
X195040947Y-68737861D01*
X194996142Y-68684249D01*
X194987435Y-68614924D01*
X195017589Y-68551896D01*
X195022126Y-68547109D01*
X195023020Y-68546216D01*
X195102077Y-68409284D01*
X195143000Y-68256557D01*
X195143000Y-68098443D01*
X195102077Y-67945716D01*
X195062545Y-67877244D01*
X195023024Y-67808790D01*
X195023018Y-67808782D01*
X194911217Y-67696981D01*
X194911209Y-67696975D01*
X194774290Y-67617926D01*
X194774286Y-67617924D01*
X194774284Y-67617923D01*
X194621557Y-67577000D01*
X194463443Y-67577000D01*
X194310716Y-67617923D01*
X194310709Y-67617926D01*
X194173790Y-67696975D01*
X194173782Y-67696981D01*
X194061981Y-67808782D01*
X194061975Y-67808790D01*
X193982926Y-67945709D01*
X193982923Y-67945716D01*
X193942000Y-68098443D01*
X193942000Y-68256557D01*
X193982923Y-68409284D01*
X193989976Y-68421501D01*
X194006449Y-68489400D01*
X193983597Y-68555427D01*
X193928676Y-68598617D01*
X193882589Y-68607500D01*
X193444004Y-68607500D01*
X193250818Y-68645927D01*
X193250806Y-68645930D01*
X193068828Y-68721307D01*
X193068815Y-68721314D01*
X192905037Y-68830748D01*
X192905033Y-68830751D01*
X192765751Y-68970033D01*
X192765748Y-68970037D01*
X192727102Y-69027875D01*
X192673489Y-69072680D01*
X192604164Y-69081387D01*
X192541137Y-69051232D01*
X192504418Y-68991789D01*
X192500000Y-68958984D01*
X192500000Y-66135455D01*
X192519685Y-66068416D01*
X192541990Y-66044170D01*
X192541567Y-66043747D01*
X192547314Y-66038000D01*
X192640500Y-65944814D01*
X192706392Y-65830686D01*
X192740500Y-65703392D01*
X192740500Y-65571608D01*
X192706392Y-65444314D01*
X192640500Y-65330186D01*
X192576818Y-65266504D01*
X192543334Y-65205180D01*
X192540500Y-65178823D01*
X192540500Y-64856176D01*
X192560185Y-64789137D01*
X192576819Y-64768495D01*
X192600500Y-64744814D01*
X192666392Y-64630686D01*
X192700500Y-64503392D01*
X192700500Y-64371608D01*
X192666392Y-64244314D01*
X192600500Y-64130186D01*
X192536318Y-64066004D01*
X192502834Y-64004680D01*
X192500000Y-63978323D01*
X192500000Y-63308807D01*
X192519685Y-63241768D01*
X192536321Y-63221124D01*
X192555274Y-63202171D01*
X192555276Y-63202169D01*
X192626465Y-63095627D01*
X192675501Y-62977244D01*
X192695238Y-62878024D01*
X192700500Y-62851571D01*
X192700500Y-62723428D01*
X192675502Y-62597761D01*
X192675501Y-62597760D01*
X192675501Y-62597756D01*
X192626465Y-62479373D01*
X192626464Y-62479372D01*
X192626461Y-62479366D01*
X192555276Y-62372831D01*
X192555273Y-62372827D01*
X192536319Y-62353873D01*
X192502834Y-62292550D01*
X192500000Y-62266192D01*
X192500000Y-61616015D01*
X192519685Y-61548976D01*
X192572489Y-61503221D01*
X192641647Y-61493277D01*
X192705203Y-61522302D01*
X192727102Y-61547124D01*
X192765748Y-61604963D01*
X192905033Y-61744248D01*
X192905037Y-61744251D01*
X193068815Y-61853685D01*
X193068828Y-61853692D01*
X193250806Y-61929069D01*
X193250818Y-61929072D01*
X193444004Y-61967499D01*
X193444008Y-61967500D01*
X193882589Y-61967500D01*
X193949628Y-61987185D01*
X193995383Y-62039989D01*
X194005327Y-62109147D01*
X193989977Y-62153497D01*
X193982923Y-62165716D01*
X193942000Y-62318443D01*
X193942000Y-62476557D01*
X193974477Y-62597761D01*
X193982923Y-62629283D01*
X193982926Y-62629290D01*
X194061975Y-62766209D01*
X194061979Y-62766214D01*
X194061980Y-62766216D01*
X194173784Y-62878020D01*
X194173786Y-62878021D01*
X194173790Y-62878024D01*
X194310709Y-62957073D01*
X194310716Y-62957077D01*
X194463443Y-62998000D01*
X194463445Y-62998000D01*
X194621555Y-62998000D01*
X194621557Y-62998000D01*
X194774284Y-62957077D01*
X194911216Y-62878020D01*
X195023020Y-62766216D01*
X195102077Y-62629284D01*
X195143000Y-62476557D01*
X195143000Y-62318443D01*
X195102077Y-62165716D01*
X195069417Y-62109147D01*
X195023024Y-62028790D01*
X195023018Y-62028782D01*
X195022157Y-62027921D01*
X195021662Y-62027015D01*
X195018074Y-62022339D01*
X195018803Y-62021779D01*
X194988672Y-61966598D01*
X194993656Y-61896906D01*
X195035528Y-61840973D01*
X195040948Y-61837137D01*
X195179965Y-61744249D01*
X195319248Y-61604966D01*
X195319251Y-61604962D01*
X195428685Y-61441184D01*
X195428692Y-61441171D01*
X195504069Y-61259192D01*
X195504069Y-61259190D01*
X195512362Y-61217500D01*
X194709488Y-61217500D01*
X194726705Y-61207560D01*
X194782560Y-61151705D01*
X194822056Y-61083296D01*
X194842500Y-61006996D01*
X194842500Y-60928004D01*
X194822056Y-60851704D01*
X194782560Y-60783295D01*
X194726705Y-60727440D01*
X194709488Y-60717500D01*
X195512362Y-60717500D01*
X195504069Y-60675809D01*
X195504069Y-60675807D01*
X195428692Y-60493828D01*
X195428684Y-60493813D01*
X195419716Y-60480392D01*
X195398837Y-60413715D01*
X195417321Y-60346335D01*
X195469299Y-60299644D01*
X195522817Y-60287500D01*
X196912183Y-60287500D01*
X196979222Y-60307185D01*
G37*
G04 #@! TD.AperFunction*
G04 #@! TA.AperFunction,Conductor*
G36*
X179762539Y-130319685D02*
G01*
X179808294Y-130372489D01*
X179819500Y-130424000D01*
X179819500Y-131668683D01*
X179799815Y-131735722D01*
X179747011Y-131781477D01*
X179742953Y-131783244D01*
X179646089Y-131823366D01*
X179646079Y-131823371D01*
X179482218Y-131932860D01*
X179482214Y-131932863D01*
X179342863Y-132072214D01*
X179342860Y-132072218D01*
X179233371Y-132236079D01*
X179233364Y-132236092D01*
X179157950Y-132418160D01*
X179157947Y-132418170D01*
X179121965Y-132599062D01*
X179089580Y-132660973D01*
X179028864Y-132695547D01*
X178959094Y-132691806D01*
X178902423Y-132650940D01*
X178877875Y-132594268D01*
X178847990Y-132405582D01*
X178784755Y-132210968D01*
X178691859Y-132028650D01*
X178659474Y-131984077D01*
X178659474Y-131984076D01*
X178022137Y-132621413D01*
X177999333Y-132536306D01*
X177940090Y-132433694D01*
X177856306Y-132349910D01*
X177753694Y-132290667D01*
X177668584Y-132267861D01*
X178305922Y-131630524D01*
X178305921Y-131630523D01*
X178261359Y-131598147D01*
X178261350Y-131598141D01*
X178079031Y-131505244D01*
X177884417Y-131442009D01*
X177682317Y-131410000D01*
X177477683Y-131410000D01*
X177275582Y-131442009D01*
X177080968Y-131505244D01*
X176898644Y-131598143D01*
X176854077Y-131630523D01*
X176854077Y-131630524D01*
X177491415Y-132267861D01*
X177406306Y-132290667D01*
X177303694Y-132349910D01*
X177219910Y-132433694D01*
X177160667Y-132536306D01*
X177137861Y-132621414D01*
X176500524Y-131984077D01*
X176500523Y-131984077D01*
X176468143Y-132028644D01*
X176375244Y-132210968D01*
X176312010Y-132405581D01*
X176282124Y-132594269D01*
X176252194Y-132657403D01*
X176192883Y-132694334D01*
X176123020Y-132693336D01*
X176064788Y-132654726D01*
X176038034Y-132599061D01*
X176018053Y-132498612D01*
X176002051Y-132418165D01*
X175976782Y-132357160D01*
X175926635Y-132236092D01*
X175926628Y-132236079D01*
X175817139Y-132072218D01*
X175817136Y-132072214D01*
X175677785Y-131932863D01*
X175677781Y-131932860D01*
X175513920Y-131823371D01*
X175513907Y-131823364D01*
X175439016Y-131792344D01*
X175331839Y-131747950D01*
X175331829Y-131747947D01*
X175138543Y-131709500D01*
X175138541Y-131709500D01*
X174941459Y-131709500D01*
X174941457Y-131709500D01*
X174748170Y-131747947D01*
X174748160Y-131747950D01*
X174566092Y-131823364D01*
X174566079Y-131823371D01*
X174402218Y-131932860D01*
X174402214Y-131932863D01*
X174262863Y-132072214D01*
X174262860Y-132072218D01*
X174153371Y-132236079D01*
X174153364Y-132236092D01*
X174077950Y-132418160D01*
X174077947Y-132418170D01*
X174039500Y-132611456D01*
X174039500Y-132611459D01*
X174039500Y-132808541D01*
X174039500Y-132808543D01*
X174039499Y-132808543D01*
X174077947Y-133001829D01*
X174077950Y-133001839D01*
X174153364Y-133183907D01*
X174153371Y-133183920D01*
X174262860Y-133347781D01*
X174262863Y-133347785D01*
X174402214Y-133487136D01*
X174402218Y-133487139D01*
X174566079Y-133596628D01*
X174566092Y-133596635D01*
X174640980Y-133627654D01*
X174748165Y-133672051D01*
X174748169Y-133672051D01*
X174748170Y-133672052D01*
X174941456Y-133710500D01*
X174941459Y-133710500D01*
X175138543Y-133710500D01*
X175286167Y-133681135D01*
X175331835Y-133672051D01*
X175373164Y-133654931D01*
X175439021Y-133627654D01*
X175513907Y-133596635D01*
X175513907Y-133596634D01*
X175513914Y-133596632D01*
X175677782Y-133487139D01*
X175817139Y-133347782D01*
X175926632Y-133183914D01*
X176002051Y-133001835D01*
X176038034Y-132820937D01*
X176070419Y-132759027D01*
X176131134Y-132724453D01*
X176200904Y-132728192D01*
X176257576Y-132769059D01*
X176282124Y-132825731D01*
X176312009Y-133014417D01*
X176375244Y-133209031D01*
X176468141Y-133391350D01*
X176468147Y-133391359D01*
X176500523Y-133435921D01*
X176500524Y-133435922D01*
X177137861Y-132798584D01*
X177160667Y-132883694D01*
X177219910Y-132986306D01*
X177303694Y-133070090D01*
X177406306Y-133129333D01*
X177491414Y-133152137D01*
X176854076Y-133789474D01*
X176898650Y-133821859D01*
X177080968Y-133914755D01*
X177275582Y-133977990D01*
X177477683Y-134010000D01*
X177682317Y-134010000D01*
X177884415Y-133977990D01*
X178052768Y-133923287D01*
X178122610Y-133921291D01*
X178182443Y-133957371D01*
X178213272Y-134020072D01*
X178205308Y-134089486D01*
X178163974Y-134141536D01*
X178124077Y-134170522D01*
X178124077Y-134170524D01*
X178761415Y-134807861D01*
X178676306Y-134830667D01*
X178573694Y-134889910D01*
X178489910Y-134973694D01*
X178430667Y-135076306D01*
X178407861Y-135161414D01*
X177770524Y-134524077D01*
X177770523Y-134524077D01*
X177738143Y-134568644D01*
X177645244Y-134750968D01*
X177582010Y-134945581D01*
X177552124Y-135134269D01*
X177522194Y-135197403D01*
X177462883Y-135234334D01*
X177393020Y-135233336D01*
X177334788Y-135194726D01*
X177308034Y-135139061D01*
X177272052Y-134958172D01*
X177272052Y-134958170D01*
X177272051Y-134958165D01*
X177266839Y-134945581D01*
X177196635Y-134776092D01*
X177196628Y-134776079D01*
X177087139Y-134612218D01*
X177087136Y-134612214D01*
X176947785Y-134472863D01*
X176947781Y-134472860D01*
X176783920Y-134363371D01*
X176783907Y-134363364D01*
X176601839Y-134287950D01*
X176601829Y-134287947D01*
X176408543Y-134249500D01*
X176408541Y-134249500D01*
X176211459Y-134249500D01*
X176211457Y-134249500D01*
X176018170Y-134287947D01*
X176018160Y-134287950D01*
X175836092Y-134363364D01*
X175836079Y-134363371D01*
X175672218Y-134472860D01*
X175672214Y-134472863D01*
X175532863Y-134612214D01*
X175532860Y-134612218D01*
X175423371Y-134776079D01*
X175423364Y-134776092D01*
X175347950Y-134958160D01*
X175347947Y-134958170D01*
X175309500Y-135151456D01*
X175309500Y-135151459D01*
X175309500Y-135348541D01*
X175309500Y-135348543D01*
X175309499Y-135348543D01*
X175347947Y-135541829D01*
X175347950Y-135541839D01*
X175423364Y-135723907D01*
X175423371Y-135723920D01*
X175532860Y-135887781D01*
X175532863Y-135887785D01*
X175672214Y-136027136D01*
X175672218Y-136027139D01*
X175836079Y-136136628D01*
X175836092Y-136136635D01*
X175910980Y-136167654D01*
X176018165Y-136212051D01*
X176018169Y-136212051D01*
X176018170Y-136212052D01*
X176211456Y-136250500D01*
X176211459Y-136250500D01*
X176408543Y-136250500D01*
X176538582Y-136224632D01*
X176601835Y-136212051D01*
X176643164Y-136194931D01*
X176709021Y-136167654D01*
X176783907Y-136136635D01*
X176783907Y-136136634D01*
X176783914Y-136136632D01*
X176947782Y-136027139D01*
X177087139Y-135887782D01*
X177196632Y-135723914D01*
X177272051Y-135541835D01*
X177308034Y-135360937D01*
X177340419Y-135299027D01*
X177401134Y-135264453D01*
X177470904Y-135268192D01*
X177527576Y-135309059D01*
X177552124Y-135365731D01*
X177582009Y-135554417D01*
X177645244Y-135749031D01*
X177738141Y-135931350D01*
X177738147Y-135931359D01*
X177770523Y-135975921D01*
X177770524Y-135975922D01*
X178407861Y-135338584D01*
X178430667Y-135423694D01*
X178489910Y-135526306D01*
X178573694Y-135610090D01*
X178676306Y-135669333D01*
X178761414Y-135692137D01*
X178124076Y-136329474D01*
X178168650Y-136361859D01*
X178350968Y-136454755D01*
X178545582Y-136517990D01*
X178747683Y-136550000D01*
X178952317Y-136550000D01*
X179154417Y-136517990D01*
X179349031Y-136454755D01*
X179531349Y-136361859D01*
X179575921Y-136329474D01*
X178938585Y-135692138D01*
X179023694Y-135669333D01*
X179126306Y-135610090D01*
X179210090Y-135526306D01*
X179269333Y-135423694D01*
X179292137Y-135338585D01*
X179929474Y-135975922D01*
X179929474Y-135975921D01*
X179961859Y-135931349D01*
X180054755Y-135749031D01*
X180117990Y-135554417D01*
X180147875Y-135365731D01*
X180177804Y-135302596D01*
X180237116Y-135265665D01*
X180306978Y-135266663D01*
X180365211Y-135305273D01*
X180391965Y-135360937D01*
X180427947Y-135541829D01*
X180427950Y-135541839D01*
X180503364Y-135723907D01*
X180503371Y-135723920D01*
X180612860Y-135887781D01*
X180612863Y-135887785D01*
X180752214Y-136027136D01*
X180752218Y-136027139D01*
X180916079Y-136136628D01*
X180916092Y-136136635D01*
X180990980Y-136167654D01*
X181098165Y-136212051D01*
X181098169Y-136212051D01*
X181098170Y-136212052D01*
X181291456Y-136250500D01*
X181291459Y-136250500D01*
X181488543Y-136250500D01*
X181618582Y-136224632D01*
X181681835Y-136212051D01*
X181863914Y-136136632D01*
X182027782Y-136027139D01*
X182167139Y-135887782D01*
X182276632Y-135723914D01*
X182352051Y-135541835D01*
X182388034Y-135360938D01*
X182390500Y-135348543D01*
X182390500Y-135151456D01*
X182352052Y-134958170D01*
X182352051Y-134958169D01*
X182352051Y-134958165D01*
X182346839Y-134945581D01*
X182276635Y-134776092D01*
X182276628Y-134776079D01*
X182167139Y-134612218D01*
X182167136Y-134612214D01*
X182027785Y-134472863D01*
X182027781Y-134472860D01*
X181863920Y-134363371D01*
X181863907Y-134363364D01*
X181681839Y-134287950D01*
X181681829Y-134287947D01*
X181488543Y-134249500D01*
X181488541Y-134249500D01*
X181291459Y-134249500D01*
X181291457Y-134249500D01*
X181098170Y-134287947D01*
X181098160Y-134287950D01*
X180916092Y-134363364D01*
X180916079Y-134363371D01*
X180752218Y-134472860D01*
X180752214Y-134472863D01*
X180612863Y-134612214D01*
X180612860Y-134612218D01*
X180503371Y-134776079D01*
X180503364Y-134776092D01*
X180427950Y-134958160D01*
X180427947Y-134958170D01*
X180391965Y-135139062D01*
X180359580Y-135200973D01*
X180298864Y-135235547D01*
X180229094Y-135231806D01*
X180172423Y-135190940D01*
X180147875Y-135134268D01*
X180117990Y-134945582D01*
X180054755Y-134750968D01*
X179961859Y-134568650D01*
X179929474Y-134524077D01*
X179929474Y-134524076D01*
X179292137Y-135161413D01*
X179269333Y-135076306D01*
X179210090Y-134973694D01*
X179126306Y-134889910D01*
X179023694Y-134830667D01*
X178938584Y-134807861D01*
X179575922Y-134170524D01*
X179575921Y-134170523D01*
X179531359Y-134138147D01*
X179531350Y-134138141D01*
X179349031Y-134045244D01*
X179154417Y-133982009D01*
X178952317Y-133950000D01*
X178747683Y-133950000D01*
X178545581Y-133982010D01*
X178545578Y-133982010D01*
X178377226Y-134036712D01*
X178307385Y-134038707D01*
X178247552Y-134002627D01*
X178216724Y-133939926D01*
X178224689Y-133870512D01*
X178266022Y-133818463D01*
X178305921Y-133789473D01*
X177668585Y-133152138D01*
X177753694Y-133129333D01*
X177856306Y-133070090D01*
X177940090Y-132986306D01*
X177999333Y-132883694D01*
X178022138Y-132798585D01*
X178659474Y-133435921D01*
X178691859Y-133391349D01*
X178784755Y-133209031D01*
X178847990Y-133014417D01*
X178877875Y-132825731D01*
X178907804Y-132762596D01*
X178967116Y-132725665D01*
X179036978Y-132726663D01*
X179095211Y-132765273D01*
X179121965Y-132820937D01*
X179157947Y-133001829D01*
X179157950Y-133001839D01*
X179233364Y-133183907D01*
X179233371Y-133183920D01*
X179342860Y-133347781D01*
X179342863Y-133347785D01*
X179482214Y-133487136D01*
X179482218Y-133487139D01*
X179646079Y-133596628D01*
X179646092Y-133596635D01*
X179720980Y-133627654D01*
X179828165Y-133672051D01*
X179828169Y-133672051D01*
X179828170Y-133672052D01*
X180021456Y-133710500D01*
X180021459Y-133710500D01*
X180218543Y-133710500D01*
X180366167Y-133681135D01*
X180411835Y-133672051D01*
X180593914Y-133596632D01*
X180757782Y-133487139D01*
X180897139Y-133347782D01*
X181006632Y-133183914D01*
X181082051Y-133001835D01*
X181117081Y-132825731D01*
X181120500Y-132808543D01*
X181659499Y-132808543D01*
X181697947Y-133001829D01*
X181697950Y-133001839D01*
X181773364Y-133183907D01*
X181773371Y-133183920D01*
X181882860Y-133347781D01*
X181882863Y-133347785D01*
X182022214Y-133487136D01*
X182022218Y-133487139D01*
X182186079Y-133596628D01*
X182186092Y-133596635D01*
X182260980Y-133627654D01*
X182368165Y-133672051D01*
X182368169Y-133672051D01*
X182368170Y-133672052D01*
X182561456Y-133710500D01*
X182561459Y-133710500D01*
X182758543Y-133710500D01*
X182906167Y-133681135D01*
X182951835Y-133672051D01*
X183133914Y-133596632D01*
X183297782Y-133487139D01*
X183437139Y-133347782D01*
X183546632Y-133183914D01*
X183622051Y-133001835D01*
X183657081Y-132825731D01*
X183660500Y-132808543D01*
X183660500Y-132611456D01*
X183622052Y-132418170D01*
X183622051Y-132418169D01*
X183622051Y-132418165D01*
X183596782Y-132357160D01*
X183546635Y-132236092D01*
X183546628Y-132236079D01*
X183437139Y-132072218D01*
X183437136Y-132072214D01*
X183297785Y-131932863D01*
X183297781Y-131932860D01*
X183133920Y-131823371D01*
X183133907Y-131823364D01*
X182951839Y-131747950D01*
X182951829Y-131747947D01*
X182758543Y-131709500D01*
X182758541Y-131709500D01*
X182561459Y-131709500D01*
X182561457Y-131709500D01*
X182368170Y-131747947D01*
X182368160Y-131747950D01*
X182186092Y-131823364D01*
X182186079Y-131823371D01*
X182022218Y-131932860D01*
X182022214Y-131932863D01*
X181882863Y-132072214D01*
X181882860Y-132072218D01*
X181773371Y-132236079D01*
X181773364Y-132236092D01*
X181697950Y-132418160D01*
X181697947Y-132418170D01*
X181659500Y-132611456D01*
X181659500Y-132611459D01*
X181659500Y-132808541D01*
X181659500Y-132808543D01*
X181659499Y-132808543D01*
X181120500Y-132808543D01*
X181120500Y-132611456D01*
X181082052Y-132418170D01*
X181082051Y-132418169D01*
X181082051Y-132418165D01*
X181056782Y-132357160D01*
X181006635Y-132236092D01*
X181006628Y-132236079D01*
X180897139Y-132072218D01*
X180897136Y-132072214D01*
X180757785Y-131932863D01*
X180757781Y-131932860D01*
X180593920Y-131823371D01*
X180593910Y-131823366D01*
X180497047Y-131783244D01*
X180442644Y-131739403D01*
X180420579Y-131673109D01*
X180420500Y-131668683D01*
X180420500Y-130424000D01*
X180440185Y-130356961D01*
X180492989Y-130311206D01*
X180544500Y-130300000D01*
X184325500Y-130300000D01*
X184392539Y-130319685D01*
X184438294Y-130372489D01*
X184449500Y-130424000D01*
X184449500Y-133974167D01*
X184429815Y-134041206D01*
X184413181Y-134061848D01*
X174992848Y-143482181D01*
X174931525Y-143515666D01*
X174905167Y-143518500D01*
X173909536Y-143518500D01*
X173871322Y-143528739D01*
X173833107Y-143538979D01*
X173833102Y-143538982D01*
X173764593Y-143578535D01*
X173764585Y-143578541D01*
X171939946Y-145403181D01*
X171878623Y-145436666D01*
X171852265Y-145439500D01*
X171785548Y-145439500D01*
X171580670Y-145480253D01*
X171580662Y-145480255D01*
X171387671Y-145560193D01*
X171387658Y-145560200D01*
X171213971Y-145676255D01*
X171213967Y-145676258D01*
X171066258Y-145823967D01*
X171066255Y-145823971D01*
X170950200Y-145997658D01*
X170950193Y-145997671D01*
X170870255Y-146190662D01*
X170870253Y-146190670D01*
X170829500Y-146395547D01*
X170829500Y-146395550D01*
X170829500Y-146604450D01*
X170829500Y-146604452D01*
X170829499Y-146604452D01*
X170870253Y-146809329D01*
X170870255Y-146809337D01*
X170950193Y-147002328D01*
X170950200Y-147002341D01*
X171066255Y-147176028D01*
X171066258Y-147176032D01*
X171213967Y-147323741D01*
X171213971Y-147323744D01*
X171387658Y-147439799D01*
X171387671Y-147439806D01*
X171532414Y-147499759D01*
X171580664Y-147519745D01*
X171630834Y-147529724D01*
X171785547Y-147560500D01*
X171785550Y-147560500D01*
X171994452Y-147560500D01*
X172097593Y-147539983D01*
X172199336Y-147519745D01*
X172392335Y-147439803D01*
X172566029Y-147323744D01*
X172713744Y-147176029D01*
X172829803Y-147002335D01*
X172909745Y-146809336D01*
X172929983Y-146707593D01*
X172950500Y-146604452D01*
X180939499Y-146604452D01*
X180980253Y-146809329D01*
X180980255Y-146809337D01*
X181060193Y-147002328D01*
X181060200Y-147002341D01*
X181176255Y-147176028D01*
X181176258Y-147176032D01*
X181323967Y-147323741D01*
X181323971Y-147323744D01*
X181497658Y-147439799D01*
X181497671Y-147439806D01*
X181642414Y-147499759D01*
X181690664Y-147519745D01*
X181740834Y-147529724D01*
X181895547Y-147560500D01*
X181895550Y-147560500D01*
X182104452Y-147560500D01*
X182207593Y-147539983D01*
X182309336Y-147519745D01*
X182502335Y-147439803D01*
X182676029Y-147323744D01*
X182823744Y-147176029D01*
X182939803Y-147002335D01*
X183019745Y-146809336D01*
X183039983Y-146707593D01*
X183060500Y-146604452D01*
X183060500Y-146395547D01*
X183019746Y-146190670D01*
X183019745Y-146190664D01*
X182940665Y-145999745D01*
X182939806Y-145997671D01*
X182939799Y-145997658D01*
X182823744Y-145823971D01*
X182823741Y-145823967D01*
X182676032Y-145676258D01*
X182676028Y-145676255D01*
X182502341Y-145560200D01*
X182502328Y-145560193D01*
X182309337Y-145480255D01*
X182309329Y-145480253D01*
X182104452Y-145439500D01*
X182104450Y-145439500D01*
X181895550Y-145439500D01*
X181895548Y-145439500D01*
X181690670Y-145480253D01*
X181690662Y-145480255D01*
X181497671Y-145560193D01*
X181497658Y-145560200D01*
X181323971Y-145676255D01*
X181323967Y-145676258D01*
X181176258Y-145823967D01*
X181176255Y-145823971D01*
X181060200Y-145997658D01*
X181060193Y-145997671D01*
X180980255Y-146190662D01*
X180980253Y-146190670D01*
X180939500Y-146395547D01*
X180939500Y-146395550D01*
X180939500Y-146604450D01*
X180939500Y-146604452D01*
X180939499Y-146604452D01*
X172950500Y-146604452D01*
X172950500Y-146395547D01*
X172909746Y-146190670D01*
X172909745Y-146190664D01*
X172830665Y-145999745D01*
X172829806Y-145997671D01*
X172829799Y-145997658D01*
X172713745Y-145823972D01*
X172678242Y-145788469D01*
X172629099Y-145739326D01*
X172595616Y-145678006D01*
X172600600Y-145608314D01*
X172629099Y-145563968D01*
X173162178Y-145030889D01*
X173223499Y-144997406D01*
X173293191Y-145002390D01*
X173349124Y-145044262D01*
X173371474Y-145094380D01*
X173410253Y-145289329D01*
X173410255Y-145289337D01*
X173490193Y-145482328D01*
X173490200Y-145482341D01*
X173606255Y-145656028D01*
X173606258Y-145656032D01*
X173753967Y-145803741D01*
X173753971Y-145803744D01*
X173927658Y-145919799D01*
X173927671Y-145919806D01*
X174072414Y-145979759D01*
X174120664Y-145999745D01*
X174170834Y-146009724D01*
X174325547Y-146040500D01*
X174325550Y-146040500D01*
X174534452Y-146040500D01*
X174637593Y-146019983D01*
X174739336Y-145999745D01*
X174932335Y-145919803D01*
X175106029Y-145803744D01*
X175253744Y-145656029D01*
X175369803Y-145482335D01*
X175449745Y-145289336D01*
X175490500Y-145084452D01*
X183479499Y-145084452D01*
X183520253Y-145289329D01*
X183520255Y-145289337D01*
X183600193Y-145482328D01*
X183600200Y-145482341D01*
X183716255Y-145656028D01*
X183716258Y-145656032D01*
X183863967Y-145803741D01*
X183863971Y-145803744D01*
X184037658Y-145919799D01*
X184037671Y-145919806D01*
X184182414Y-145979759D01*
X184230664Y-145999745D01*
X184280834Y-146009724D01*
X184435547Y-146040500D01*
X184435550Y-146040500D01*
X184644452Y-146040500D01*
X184747593Y-146019983D01*
X184849336Y-145999745D01*
X185042335Y-145919803D01*
X185216029Y-145803744D01*
X185363744Y-145656029D01*
X185479803Y-145482335D01*
X185559745Y-145289336D01*
X185600500Y-145084450D01*
X185600500Y-144875550D01*
X185600500Y-144875547D01*
X185559746Y-144670670D01*
X185559745Y-144670664D01*
X185539462Y-144621695D01*
X185479806Y-144477671D01*
X185479799Y-144477658D01*
X185363744Y-144303971D01*
X185363741Y-144303967D01*
X185216032Y-144156258D01*
X185216028Y-144156255D01*
X185042341Y-144040200D01*
X185042328Y-144040193D01*
X184849337Y-143960255D01*
X184849329Y-143960253D01*
X184644452Y-143919500D01*
X184644450Y-143919500D01*
X184435550Y-143919500D01*
X184435548Y-143919500D01*
X184230670Y-143960253D01*
X184230662Y-143960255D01*
X184037671Y-144040193D01*
X184037658Y-144040200D01*
X183863971Y-144156255D01*
X183863967Y-144156258D01*
X183716258Y-144303967D01*
X183716255Y-144303971D01*
X183600200Y-144477658D01*
X183600193Y-144477671D01*
X183520255Y-144670662D01*
X183520253Y-144670670D01*
X183479500Y-144875547D01*
X183479500Y-144875550D01*
X183479500Y-145084450D01*
X183479500Y-145084452D01*
X183479499Y-145084452D01*
X175490500Y-145084452D01*
X175490500Y-145084450D01*
X175490500Y-144875550D01*
X175471346Y-144779261D01*
X175471240Y-144778695D01*
X175474648Y-144744565D01*
X175477709Y-144710360D01*
X175478129Y-144709718D01*
X175478184Y-144709171D01*
X175479931Y-144706968D01*
X175505417Y-144668080D01*
X184036637Y-136136861D01*
X184097960Y-136103376D01*
X184124318Y-136100542D01*
X184214376Y-136100542D01*
X184214378Y-136100542D01*
X184341672Y-136066434D01*
X184455800Y-136000542D01*
X184548986Y-135907356D01*
X184614878Y-135793228D01*
X184648986Y-135665934D01*
X184648986Y-135575874D01*
X184668671Y-135508835D01*
X184685305Y-135488193D01*
X184982742Y-135190756D01*
X185391460Y-134782039D01*
X185394897Y-134776086D01*
X185431021Y-134713517D01*
X185451500Y-134637090D01*
X185451500Y-130424000D01*
X185471185Y-130356961D01*
X185523989Y-130311206D01*
X185575500Y-130300000D01*
X186726000Y-130300000D01*
X186793039Y-130319685D01*
X186838794Y-130372489D01*
X186850000Y-130424000D01*
X186850000Y-136853703D01*
X186830315Y-136920742D01*
X186777511Y-136966497D01*
X186708353Y-136976441D01*
X186689111Y-136972089D01*
X186638039Y-136956175D01*
X186570083Y-136950000D01*
X185609905Y-136950000D01*
X185541965Y-136956173D01*
X185541958Y-136956175D01*
X185385601Y-137004897D01*
X185385594Y-137004900D01*
X185245442Y-137089624D01*
X185245441Y-137089625D01*
X185129629Y-137205436D01*
X185118085Y-137224532D01*
X185118085Y-137224533D01*
X185743575Y-137850023D01*
X185717259Y-137895606D01*
X185690000Y-137997339D01*
X185690000Y-138503551D01*
X184990000Y-137803551D01*
X184990000Y-139296447D01*
X185690000Y-138596447D01*
X185690000Y-139102661D01*
X185717259Y-139204394D01*
X185743574Y-139249974D01*
X185118085Y-139875464D01*
X185112927Y-139917943D01*
X185110278Y-139917621D01*
X185092281Y-139973070D01*
X185038206Y-140017315D01*
X184968794Y-140025301D01*
X184927902Y-140010498D01*
X184813925Y-139944693D01*
X184761294Y-139914307D01*
X184761285Y-139914303D01*
X184534162Y-139820225D01*
X184534155Y-139820223D01*
X184534153Y-139820222D01*
X184296677Y-139756591D01*
X184255939Y-139751227D01*
X184052934Y-139724500D01*
X184052927Y-139724500D01*
X183807073Y-139724500D01*
X183807065Y-139724500D01*
X183575059Y-139755045D01*
X183563323Y-139756591D01*
X183325847Y-139820222D01*
X183325837Y-139820225D01*
X183098714Y-139914303D01*
X183098705Y-139914307D01*
X182885787Y-140037236D01*
X182690745Y-140186897D01*
X182690738Y-140186903D01*
X182516903Y-140360738D01*
X182516897Y-140360745D01*
X182367236Y-140555787D01*
X182244307Y-140768705D01*
X182244303Y-140768714D01*
X182150225Y-140995837D01*
X182150222Y-140995847D01*
X182142388Y-141025086D01*
X182086592Y-141233320D01*
X182086590Y-141233331D01*
X182054500Y-141477065D01*
X182054500Y-141722934D01*
X182068701Y-141830792D01*
X182086591Y-141966677D01*
X182138448Y-142160210D01*
X182150222Y-142204152D01*
X182150225Y-142204162D01*
X182244303Y-142431285D01*
X182244306Y-142431292D01*
X182367233Y-142644208D01*
X182367235Y-142644211D01*
X182367236Y-142644212D01*
X182516897Y-142839254D01*
X182516903Y-142839261D01*
X182690738Y-143013096D01*
X182690744Y-143013101D01*
X182885792Y-143162767D01*
X183098708Y-143285694D01*
X183325847Y-143379778D01*
X183563323Y-143443409D01*
X183807073Y-143475500D01*
X183807080Y-143475500D01*
X184052920Y-143475500D01*
X184052927Y-143475500D01*
X184296677Y-143443409D01*
X184534153Y-143379778D01*
X184761292Y-143285694D01*
X184974208Y-143162767D01*
X185169256Y-143013101D01*
X185343101Y-142839256D01*
X185492767Y-142644208D01*
X185615694Y-142431292D01*
X185709778Y-142204153D01*
X185773409Y-141966677D01*
X185805500Y-141722927D01*
X185805500Y-141477073D01*
X185773409Y-141233323D01*
X185709778Y-140995847D01*
X185615694Y-140768708D01*
X185492767Y-140555792D01*
X185343101Y-140360744D01*
X185343096Y-140360738D01*
X185293709Y-140311351D01*
X185260224Y-140250028D01*
X185265208Y-140180336D01*
X185307080Y-140124403D01*
X185372544Y-140099986D01*
X185418280Y-140105285D01*
X185541958Y-140143824D01*
X185541956Y-140143824D01*
X185609916Y-140149999D01*
X186570093Y-140149999D01*
X186638034Y-140143826D01*
X186638038Y-140143825D01*
X186689109Y-140127911D01*
X186758969Y-140126759D01*
X186818362Y-140163560D01*
X186848430Y-140226628D01*
X186850000Y-140246296D01*
X186850000Y-148876000D01*
X186830315Y-148943039D01*
X186777511Y-148988794D01*
X186726000Y-149000000D01*
X169724000Y-149000000D01*
X169656961Y-148980315D01*
X169611206Y-148927511D01*
X169600000Y-148876000D01*
X169600000Y-140252528D01*
X169619685Y-140185489D01*
X169672489Y-140139734D01*
X169741647Y-140129790D01*
X169760892Y-140134143D01*
X169791960Y-140143824D01*
X169859916Y-140149999D01*
X170820093Y-140149999D01*
X170888034Y-140143826D01*
X170888038Y-140143825D01*
X171011718Y-140105285D01*
X171081578Y-140104133D01*
X171140971Y-140140934D01*
X171171039Y-140204003D01*
X171162237Y-140273316D01*
X171136291Y-140311350D01*
X171086903Y-140360738D01*
X171086897Y-140360745D01*
X170937236Y-140555787D01*
X170814307Y-140768705D01*
X170814303Y-140768714D01*
X170720225Y-140995837D01*
X170720222Y-140995847D01*
X170712388Y-141025086D01*
X170656592Y-141233320D01*
X170656590Y-141233331D01*
X170624500Y-141477065D01*
X170624500Y-141722934D01*
X170638701Y-141830792D01*
X170656591Y-141966677D01*
X170708448Y-142160210D01*
X170720222Y-142204152D01*
X170720225Y-142204162D01*
X170814303Y-142431285D01*
X170814306Y-142431292D01*
X170937233Y-142644208D01*
X170937235Y-142644211D01*
X170937236Y-142644212D01*
X171086897Y-142839254D01*
X171086903Y-142839261D01*
X171260738Y-143013096D01*
X171260744Y-143013101D01*
X171455792Y-143162767D01*
X171668708Y-143285694D01*
X171895847Y-143379778D01*
X172133323Y-143443409D01*
X172377073Y-143475500D01*
X172377080Y-143475500D01*
X172622920Y-143475500D01*
X172622927Y-143475500D01*
X172866677Y-143443409D01*
X173104153Y-143379778D01*
X173331292Y-143285694D01*
X173544208Y-143162767D01*
X173739256Y-143013101D01*
X173913101Y-142839256D01*
X174062767Y-142644208D01*
X174185694Y-142431292D01*
X174279778Y-142204153D01*
X174343409Y-141966677D01*
X174375500Y-141722927D01*
X174375500Y-141477073D01*
X174343409Y-141233323D01*
X174279778Y-140995847D01*
X174185694Y-140768708D01*
X174062767Y-140555792D01*
X173913101Y-140360744D01*
X173913096Y-140360738D01*
X173739261Y-140186903D01*
X173739254Y-140186897D01*
X173544212Y-140037236D01*
X173544211Y-140037235D01*
X173544208Y-140037233D01*
X173370260Y-139936804D01*
X173331294Y-139914307D01*
X173331285Y-139914303D01*
X173104162Y-139820225D01*
X173104155Y-139820223D01*
X173104153Y-139820222D01*
X172866677Y-139756591D01*
X172825939Y-139751227D01*
X172622934Y-139724500D01*
X172622927Y-139724500D01*
X172377073Y-139724500D01*
X172377065Y-139724500D01*
X172145059Y-139755045D01*
X172133323Y-139756591D01*
X171895847Y-139820222D01*
X171895837Y-139820225D01*
X171668714Y-139914303D01*
X171668704Y-139914307D01*
X171502093Y-140010501D01*
X171434193Y-140026974D01*
X171368166Y-140004121D01*
X171324975Y-139949200D01*
X171321933Y-139917350D01*
X171317072Y-139917941D01*
X171311913Y-139875464D01*
X170686424Y-139249975D01*
X170712741Y-139204394D01*
X170740000Y-139102661D01*
X170740000Y-138596449D01*
X171439998Y-139296447D01*
X171439999Y-139296446D01*
X171439999Y-137803552D01*
X171439998Y-137803551D01*
X170740000Y-138503550D01*
X170740000Y-137997339D01*
X170712741Y-137895606D01*
X170686423Y-137850022D01*
X171311913Y-137224533D01*
X171300368Y-137205435D01*
X171184557Y-137089624D01*
X171044405Y-137004900D01*
X171044398Y-137004897D01*
X170888041Y-136956175D01*
X170888043Y-136956175D01*
X170820083Y-136950000D01*
X169859905Y-136950000D01*
X169791965Y-136956173D01*
X169791964Y-136956173D01*
X169760889Y-136965857D01*
X169691029Y-136967007D01*
X169631637Y-136930206D01*
X169601569Y-136867137D01*
X169600000Y-136847471D01*
X169600000Y-135348543D01*
X172769499Y-135348543D01*
X172807947Y-135541829D01*
X172807950Y-135541839D01*
X172883364Y-135723907D01*
X172883371Y-135723920D01*
X172992860Y-135887781D01*
X172992863Y-135887785D01*
X173132214Y-136027136D01*
X173132218Y-136027139D01*
X173296079Y-136136628D01*
X173296092Y-136136635D01*
X173370980Y-136167654D01*
X173478165Y-136212051D01*
X173478169Y-136212051D01*
X173478170Y-136212052D01*
X173671456Y-136250500D01*
X173671459Y-136250500D01*
X173868543Y-136250500D01*
X173998582Y-136224632D01*
X174061835Y-136212051D01*
X174243914Y-136136632D01*
X174407782Y-136027139D01*
X174547139Y-135887782D01*
X174656632Y-135723914D01*
X174732051Y-135541835D01*
X174768034Y-135360938D01*
X174770500Y-135348543D01*
X174770500Y-135151456D01*
X174732052Y-134958170D01*
X174732051Y-134958169D01*
X174732051Y-134958165D01*
X174726839Y-134945581D01*
X174656635Y-134776092D01*
X174656628Y-134776079D01*
X174547139Y-134612218D01*
X174547136Y-134612214D01*
X174407785Y-134472863D01*
X174407781Y-134472860D01*
X174243920Y-134363371D01*
X174243907Y-134363364D01*
X174061839Y-134287950D01*
X174061829Y-134287947D01*
X173868543Y-134249500D01*
X173868541Y-134249500D01*
X173671459Y-134249500D01*
X173671457Y-134249500D01*
X173478170Y-134287947D01*
X173478160Y-134287950D01*
X173296092Y-134363364D01*
X173296079Y-134363371D01*
X173132218Y-134472860D01*
X173132214Y-134472863D01*
X172992863Y-134612214D01*
X172992860Y-134612218D01*
X172883371Y-134776079D01*
X172883364Y-134776092D01*
X172807950Y-134958160D01*
X172807947Y-134958170D01*
X172769500Y-135151456D01*
X172769500Y-135151459D01*
X172769500Y-135348541D01*
X172769500Y-135348543D01*
X172769499Y-135348543D01*
X169600000Y-135348543D01*
X169600000Y-130424000D01*
X169619685Y-130356961D01*
X169672489Y-130311206D01*
X169724000Y-130300000D01*
X179695500Y-130300000D01*
X179762539Y-130319685D01*
G37*
G04 #@! TD.AperFunction*
G04 #@! TA.AperFunction,Conductor*
G36*
X199442539Y-50520185D02*
G01*
X199488294Y-50572989D01*
X199499500Y-50624500D01*
X199499500Y-59876000D01*
X199479815Y-59943039D01*
X199427011Y-59988794D01*
X199375500Y-60000000D01*
X192200000Y-60000000D01*
X192200000Y-62013000D01*
X192180315Y-62080039D01*
X192127511Y-62125794D01*
X192076000Y-62137000D01*
X191985929Y-62137000D01*
X191860261Y-62161997D01*
X191860255Y-62161999D01*
X191741875Y-62211033D01*
X191741866Y-62211038D01*
X191635331Y-62282223D01*
X191635327Y-62282226D01*
X191544726Y-62372827D01*
X191544723Y-62372831D01*
X191473538Y-62479366D01*
X191473533Y-62479375D01*
X191424499Y-62597755D01*
X191424497Y-62597761D01*
X191399500Y-62723428D01*
X191399500Y-62820244D01*
X191379815Y-62887283D01*
X191363181Y-62907925D01*
X191178522Y-63092584D01*
X191178520Y-63092587D01*
X191125791Y-63183913D01*
X191107842Y-63250907D01*
X191107842Y-63250908D01*
X191098500Y-63285772D01*
X191098500Y-65173860D01*
X191078815Y-65240899D01*
X191026011Y-65286654D01*
X190956853Y-65296598D01*
X190893297Y-65267573D01*
X190864841Y-65228112D01*
X190864085Y-65228549D01*
X190820464Y-65152995D01*
X190820458Y-65152987D01*
X190216819Y-64549348D01*
X190183334Y-64488025D01*
X190180500Y-64461667D01*
X190180500Y-64371610D01*
X190180500Y-64371608D01*
X190146392Y-64244314D01*
X190080500Y-64130186D01*
X189987314Y-64037000D01*
X189930250Y-64004054D01*
X189873187Y-63971108D01*
X189771908Y-63943971D01*
X189745892Y-63937000D01*
X189614108Y-63937000D01*
X189486812Y-63971108D01*
X189372686Y-64037000D01*
X189372683Y-64037002D01*
X189279502Y-64130183D01*
X189279500Y-64130186D01*
X189213608Y-64244312D01*
X189186200Y-64346603D01*
X189179500Y-64371608D01*
X189179500Y-64503392D01*
X189191814Y-64549348D01*
X189213608Y-64630687D01*
X189246554Y-64687750D01*
X189279500Y-64744814D01*
X189372686Y-64838000D01*
X189486814Y-64903892D01*
X189614108Y-64938000D01*
X189614110Y-64938000D01*
X189704167Y-64938000D01*
X189771206Y-64957685D01*
X189791848Y-64974319D01*
X190243181Y-65425652D01*
X190257884Y-65452579D01*
X190274477Y-65478398D01*
X190275368Y-65484598D01*
X190276666Y-65486975D01*
X190279500Y-65513333D01*
X190279500Y-65678823D01*
X190259815Y-65745862D01*
X190243182Y-65766504D01*
X190179500Y-65830186D01*
X190113609Y-65944312D01*
X190093034Y-66021098D01*
X190056668Y-66080758D01*
X189993821Y-66111287D01*
X189924446Y-66102992D01*
X189885578Y-66076685D01*
X188216819Y-64407926D01*
X188183334Y-64346603D01*
X188180500Y-64320245D01*
X188180500Y-64223428D01*
X188155502Y-64097761D01*
X188155501Y-64097760D01*
X188155501Y-64097756D01*
X188106465Y-63979373D01*
X188106464Y-63979372D01*
X188106461Y-63979366D01*
X188035276Y-63872831D01*
X188035273Y-63872827D01*
X187944672Y-63782226D01*
X187944668Y-63782223D01*
X187838133Y-63711038D01*
X187838124Y-63711033D01*
X187719744Y-63661999D01*
X187719738Y-63661997D01*
X187594071Y-63637000D01*
X187594069Y-63637000D01*
X187465931Y-63637000D01*
X187465929Y-63637000D01*
X187340261Y-63661997D01*
X187340255Y-63661999D01*
X187221875Y-63711033D01*
X187221866Y-63711038D01*
X187115331Y-63782223D01*
X187115327Y-63782226D01*
X187024726Y-63872827D01*
X187024723Y-63872831D01*
X186953538Y-63979366D01*
X186953533Y-63979375D01*
X186904499Y-64097755D01*
X186904497Y-64097761D01*
X186879500Y-64223428D01*
X186879500Y-64223431D01*
X186879500Y-64351569D01*
X186879500Y-64351571D01*
X186879499Y-64351571D01*
X186904497Y-64477238D01*
X186904499Y-64477244D01*
X186953533Y-64595624D01*
X186953538Y-64595633D01*
X187024723Y-64702168D01*
X187024726Y-64702172D01*
X187115327Y-64792773D01*
X187115331Y-64792776D01*
X187221866Y-64863961D01*
X187221872Y-64863964D01*
X187221873Y-64863965D01*
X187340256Y-64913001D01*
X187340260Y-64913001D01*
X187340261Y-64913002D01*
X187465928Y-64938000D01*
X187562745Y-64938000D01*
X187629784Y-64957685D01*
X187650426Y-64974319D01*
X190684087Y-68007980D01*
X190775412Y-68060707D01*
X190877273Y-68088000D01*
X190982727Y-68088000D01*
X191069193Y-68088000D01*
X191136232Y-68107685D01*
X191156869Y-68124314D01*
X191191231Y-68158676D01*
X191225332Y-68192777D01*
X191331866Y-68263961D01*
X191331872Y-68263964D01*
X191331873Y-68263965D01*
X191450256Y-68313001D01*
X191450260Y-68313001D01*
X191450261Y-68313002D01*
X191575928Y-68338000D01*
X191575931Y-68338000D01*
X191704071Y-68338000D01*
X191788615Y-68321182D01*
X191829744Y-68313001D01*
X191948127Y-68263965D01*
X191948133Y-68263961D01*
X192007109Y-68224555D01*
X192073787Y-68203677D01*
X192141167Y-68222161D01*
X192187857Y-68274140D01*
X192200000Y-68327657D01*
X192200000Y-70600000D01*
X199375500Y-70600000D01*
X199442539Y-70619685D01*
X199488294Y-70672489D01*
X199499500Y-70724000D01*
X199499500Y-149375500D01*
X199479815Y-149442539D01*
X199427011Y-149488294D01*
X199375500Y-149499500D01*
X187324000Y-149499500D01*
X187256961Y-149479815D01*
X187211206Y-149427011D01*
X187200000Y-149375500D01*
X187200000Y-144302243D01*
X190474500Y-144302243D01*
X190474500Y-144697756D01*
X190513266Y-145091365D01*
X190513269Y-145091382D01*
X190590424Y-145479275D01*
X190590427Y-145479286D01*
X190705243Y-145857787D01*
X190811435Y-146114157D01*
X190849654Y-146206426D01*
X190856603Y-146223201D01*
X190856605Y-146223206D01*
X191043042Y-146572005D01*
X191043053Y-146572023D01*
X191262783Y-146900871D01*
X191262793Y-146900885D01*
X191513708Y-147206626D01*
X191793373Y-147486291D01*
X191793378Y-147486295D01*
X191793379Y-147486296D01*
X192099120Y-147737211D01*
X192427983Y-147956951D01*
X192427992Y-147956956D01*
X192427994Y-147956957D01*
X192776793Y-148143394D01*
X192776795Y-148143394D01*
X192776801Y-148143398D01*
X193142214Y-148294757D01*
X193520704Y-148409570D01*
X193520710Y-148409571D01*
X193520713Y-148409572D01*
X193520724Y-148409575D01*
X193763966Y-148457957D01*
X193908624Y-148486732D01*
X194302240Y-148525500D01*
X194302243Y-148525500D01*
X194697757Y-148525500D01*
X194697760Y-148525500D01*
X195091376Y-148486732D01*
X195283386Y-148448538D01*
X195479275Y-148409575D01*
X195479286Y-148409572D01*
X195479286Y-148409571D01*
X195479296Y-148409570D01*
X195857786Y-148294757D01*
X196223199Y-148143398D01*
X196572017Y-147956951D01*
X196900880Y-147737211D01*
X197206621Y-147486296D01*
X197486296Y-147206621D01*
X197737211Y-146900880D01*
X197956951Y-146572017D01*
X198143398Y-146223199D01*
X198294757Y-145857786D01*
X198409570Y-145479296D01*
X198409572Y-145479286D01*
X198409575Y-145479275D01*
X198465026Y-145200500D01*
X198486732Y-145091376D01*
X198525500Y-144697760D01*
X198525500Y-144302240D01*
X198486732Y-143908624D01*
X198441651Y-143681987D01*
X198409575Y-143520724D01*
X198409572Y-143520713D01*
X198409571Y-143520710D01*
X198409570Y-143520704D01*
X198294757Y-143142214D01*
X198143398Y-142776801D01*
X198128805Y-142749500D01*
X197956957Y-142427994D01*
X197956956Y-142427992D01*
X197956951Y-142427983D01*
X197737211Y-142099120D01*
X197486296Y-141793379D01*
X197486295Y-141793378D01*
X197486291Y-141793373D01*
X197206626Y-141513708D01*
X196900885Y-141262793D01*
X196900884Y-141262792D01*
X196900880Y-141262789D01*
X196572017Y-141043049D01*
X196572012Y-141043046D01*
X196572005Y-141043042D01*
X196223206Y-140856605D01*
X196223201Y-140856603D01*
X195857787Y-140705243D01*
X195479286Y-140590427D01*
X195479275Y-140590424D01*
X195091382Y-140513269D01*
X195091365Y-140513266D01*
X194793710Y-140483950D01*
X194697760Y-140474500D01*
X194302240Y-140474500D01*
X194213500Y-140483240D01*
X193908634Y-140513266D01*
X193908617Y-140513269D01*
X193520724Y-140590424D01*
X193520713Y-140590427D01*
X193142212Y-140705243D01*
X192776798Y-140856603D01*
X192776793Y-140856605D01*
X192427994Y-141043042D01*
X192427976Y-141043053D01*
X192099128Y-141262783D01*
X192099114Y-141262793D01*
X191793373Y-141513708D01*
X191513708Y-141793373D01*
X191262793Y-142099114D01*
X191262783Y-142099128D01*
X191043053Y-142427976D01*
X191043042Y-142427994D01*
X190856605Y-142776793D01*
X190856603Y-142776798D01*
X190705243Y-143142212D01*
X190590427Y-143520713D01*
X190590424Y-143520724D01*
X190513269Y-143908617D01*
X190513266Y-143908634D01*
X190474500Y-144302243D01*
X187200000Y-144302243D01*
X187200000Y-130000000D01*
X185174500Y-130000000D01*
X185107461Y-129980315D01*
X185061706Y-129927511D01*
X185050500Y-129876000D01*
X185050500Y-129574409D01*
X185047730Y-129564071D01*
X185030021Y-129497981D01*
X185025262Y-129489738D01*
X184990464Y-129429465D01*
X184990458Y-129429457D01*
X184979834Y-129418833D01*
X184946349Y-129357510D01*
X184943515Y-129331152D01*
X184943515Y-129241095D01*
X184943515Y-129241093D01*
X184909407Y-129113799D01*
X184907361Y-129110256D01*
X184892523Y-129084555D01*
X184843515Y-128999671D01*
X184750329Y-128906485D01*
X184693265Y-128873539D01*
X184636202Y-128840593D01*
X184572554Y-128823539D01*
X184508907Y-128806485D01*
X184377123Y-128806485D01*
X184249827Y-128840593D01*
X184135701Y-128906485D01*
X184135698Y-128906487D01*
X184042517Y-128999668D01*
X184042515Y-128999671D01*
X183976623Y-129113797D01*
X183947270Y-129223347D01*
X183942515Y-129241093D01*
X183942515Y-129372877D01*
X183954829Y-129418833D01*
X183976623Y-129500172D01*
X184003790Y-129547226D01*
X184042515Y-129614299D01*
X184135701Y-129707485D01*
X184186509Y-129736819D01*
X184241577Y-129768613D01*
X184289793Y-129819180D01*
X184303015Y-129887787D01*
X184277047Y-129952652D01*
X184220133Y-129993180D01*
X184179577Y-130000000D01*
X180544500Y-130000000D01*
X180477461Y-129980315D01*
X180431706Y-129927511D01*
X180420500Y-129876000D01*
X180420500Y-127926176D01*
X180440185Y-127859137D01*
X180456819Y-127838495D01*
X180488000Y-127807314D01*
X180553892Y-127693186D01*
X180588000Y-127565892D01*
X180588000Y-127434108D01*
X180553892Y-127306814D01*
X180488000Y-127192686D01*
X180394814Y-127099500D01*
X180336600Y-127065890D01*
X180280687Y-127033608D01*
X180217039Y-127016554D01*
X180153392Y-126999500D01*
X180021608Y-126999500D01*
X179894312Y-127033608D01*
X179780186Y-127099500D01*
X179780183Y-127099502D01*
X179687002Y-127192683D01*
X179687000Y-127192686D01*
X179621108Y-127306812D01*
X179587000Y-127434108D01*
X179587000Y-127565891D01*
X179621108Y-127693187D01*
X179654054Y-127750250D01*
X179687000Y-127807314D01*
X179687002Y-127807316D01*
X179783181Y-127903495D01*
X179816666Y-127964818D01*
X179819500Y-127991176D01*
X179819500Y-129876000D01*
X179799815Y-129943039D01*
X179747011Y-129988794D01*
X179695500Y-130000000D01*
X175487755Y-130000000D01*
X175420716Y-129980315D01*
X175400074Y-129963681D01*
X174415915Y-128979522D01*
X174415913Y-128979520D01*
X174370250Y-128953156D01*
X174324589Y-128926793D01*
X174248803Y-128906487D01*
X174222727Y-128899500D01*
X174222726Y-128899500D01*
X171770807Y-128899500D01*
X171703768Y-128879815D01*
X171683130Y-128863185D01*
X171614669Y-128794724D01*
X171614668Y-128794723D01*
X171614667Y-128794722D01*
X171508133Y-128723538D01*
X171508124Y-128723533D01*
X171389744Y-128674499D01*
X171389738Y-128674497D01*
X171264071Y-128649500D01*
X171264069Y-128649500D01*
X171135931Y-128649500D01*
X171135929Y-128649500D01*
X171010261Y-128674497D01*
X171010255Y-128674499D01*
X170891875Y-128723533D01*
X170891866Y-128723538D01*
X170785331Y-128794723D01*
X170785327Y-128794726D01*
X170694726Y-128885327D01*
X170694723Y-128885331D01*
X170623538Y-128991866D01*
X170623533Y-128991875D01*
X170574499Y-129110255D01*
X170574497Y-129110261D01*
X170549500Y-129235928D01*
X170549500Y-129235931D01*
X170549500Y-129364069D01*
X170549500Y-129364071D01*
X170549499Y-129364071D01*
X170574497Y-129489738D01*
X170574499Y-129489744D01*
X170623533Y-129608124D01*
X170623538Y-129608133D01*
X170694723Y-129714668D01*
X170694726Y-129714672D01*
X170768373Y-129788319D01*
X170801858Y-129849642D01*
X170796874Y-129919334D01*
X170755002Y-129975267D01*
X170689538Y-129999684D01*
X170680692Y-130000000D01*
X169300000Y-130000000D01*
X169300000Y-149375500D01*
X169280315Y-149442539D01*
X169227511Y-149488294D01*
X169176000Y-149499500D01*
X161123771Y-149499500D01*
X161056732Y-149479815D01*
X161010977Y-149427011D01*
X161001033Y-149357853D01*
X161030058Y-149294297D01*
X161054880Y-149272398D01*
X161105908Y-149238302D01*
X161238299Y-149105911D01*
X161238302Y-149105908D01*
X161342322Y-148950231D01*
X161413973Y-148777251D01*
X161450500Y-148593616D01*
X161450500Y-148406384D01*
X161413973Y-148222749D01*
X161342322Y-148049769D01*
X161342321Y-148049768D01*
X161342318Y-148049762D01*
X161238302Y-147894092D01*
X161238299Y-147894088D01*
X161105911Y-147761700D01*
X161105907Y-147761697D01*
X160950237Y-147657681D01*
X160950228Y-147657676D01*
X160777251Y-147586027D01*
X160777243Y-147586025D01*
X160593620Y-147549500D01*
X160593616Y-147549500D01*
X160406384Y-147549500D01*
X160406379Y-147549500D01*
X160222756Y-147586025D01*
X160222748Y-147586027D01*
X160049771Y-147657676D01*
X160049762Y-147657681D01*
X159894092Y-147761697D01*
X159894088Y-147761700D01*
X159761700Y-147894088D01*
X159761697Y-147894092D01*
X159657681Y-148049762D01*
X159657676Y-148049771D01*
X159586027Y-148222748D01*
X159586025Y-148222756D01*
X159549500Y-148406379D01*
X159549500Y-148593620D01*
X159586025Y-148777243D01*
X159586027Y-148777251D01*
X159657676Y-148950228D01*
X159657681Y-148950237D01*
X159761697Y-149105907D01*
X159761700Y-149105911D01*
X159894091Y-149238302D01*
X159945120Y-149272398D01*
X159989925Y-149326010D01*
X159998632Y-149395335D01*
X159968478Y-149458362D01*
X159909035Y-149495082D01*
X159876229Y-149499500D01*
X100624500Y-149499500D01*
X100557461Y-149479815D01*
X100511706Y-149427011D01*
X100500500Y-149375500D01*
X100500500Y-144302243D01*
X101474500Y-144302243D01*
X101474500Y-144697756D01*
X101513266Y-145091365D01*
X101513269Y-145091382D01*
X101590424Y-145479275D01*
X101590427Y-145479286D01*
X101705243Y-145857787D01*
X101811435Y-146114157D01*
X101849654Y-146206426D01*
X101856603Y-146223201D01*
X101856605Y-146223206D01*
X102043042Y-146572005D01*
X102043053Y-146572023D01*
X102262783Y-146900871D01*
X102262793Y-146900885D01*
X102513708Y-147206626D01*
X102793373Y-147486291D01*
X102793378Y-147486295D01*
X102793379Y-147486296D01*
X103099120Y-147737211D01*
X103427983Y-147956951D01*
X103427992Y-147956956D01*
X103427994Y-147956957D01*
X103776793Y-148143394D01*
X103776795Y-148143394D01*
X103776801Y-148143398D01*
X104142214Y-148294757D01*
X104520704Y-148409570D01*
X104520710Y-148409571D01*
X104520713Y-148409572D01*
X104520724Y-148409575D01*
X104763966Y-148457957D01*
X104908624Y-148486732D01*
X105302240Y-148525500D01*
X105302243Y-148525500D01*
X105697757Y-148525500D01*
X105697760Y-148525500D01*
X106091376Y-148486732D01*
X106283386Y-148448538D01*
X106479275Y-148409575D01*
X106479286Y-148409572D01*
X106479286Y-148409571D01*
X106479296Y-148409570D01*
X106857786Y-148294757D01*
X107223199Y-148143398D01*
X107572017Y-147956951D01*
X107900880Y-147737211D01*
X108206621Y-147486296D01*
X108486296Y-147206621D01*
X108737211Y-146900880D01*
X108956951Y-146572017D01*
X109143398Y-146223199D01*
X109283138Y-145885837D01*
X113549500Y-145885837D01*
X113549500Y-146114162D01*
X113585215Y-146339660D01*
X113655770Y-146556803D01*
X113737860Y-146717913D01*
X113759421Y-146760228D01*
X113893621Y-146944937D01*
X114055063Y-147106379D01*
X114239772Y-147240579D01*
X114254494Y-147248080D01*
X114443196Y-147344229D01*
X114443198Y-147344229D01*
X114443201Y-147344231D01*
X114559592Y-147382049D01*
X114660339Y-147414784D01*
X114885838Y-147450500D01*
X114885843Y-147450500D01*
X115114162Y-147450500D01*
X115339660Y-147414784D01*
X115556799Y-147344231D01*
X115760228Y-147240579D01*
X115944937Y-147106379D01*
X116106379Y-146944937D01*
X116240579Y-146760228D01*
X116344231Y-146556799D01*
X116414784Y-146339660D01*
X116418854Y-146313962D01*
X116450500Y-146114162D01*
X116450500Y-145885837D01*
X128549500Y-145885837D01*
X128549500Y-146114162D01*
X128585215Y-146339660D01*
X128655770Y-146556803D01*
X128737860Y-146717913D01*
X128759421Y-146760228D01*
X128893621Y-146944937D01*
X129055063Y-147106379D01*
X129239772Y-147240579D01*
X129254494Y-147248080D01*
X129443196Y-147344229D01*
X129443198Y-147344229D01*
X129443201Y-147344231D01*
X129559592Y-147382049D01*
X129660339Y-147414784D01*
X129885838Y-147450500D01*
X129885843Y-147450500D01*
X130114162Y-147450500D01*
X130339660Y-147414784D01*
X130556799Y-147344231D01*
X130760228Y-147240579D01*
X130944937Y-147106379D01*
X131106379Y-146944937D01*
X131240579Y-146760228D01*
X131344231Y-146556799D01*
X131414784Y-146339660D01*
X131418854Y-146313962D01*
X131450500Y-146114162D01*
X131450500Y-145885837D01*
X133549500Y-145885837D01*
X133549500Y-146114162D01*
X133585215Y-146339660D01*
X133655770Y-146556803D01*
X133737860Y-146717913D01*
X133759421Y-146760228D01*
X133893621Y-146944937D01*
X134055063Y-147106379D01*
X134239772Y-147240579D01*
X134254494Y-147248080D01*
X134443196Y-147344229D01*
X134443198Y-147344229D01*
X134443201Y-147344231D01*
X134559592Y-147382049D01*
X134660339Y-147414784D01*
X134885838Y-147450500D01*
X134885843Y-147450500D01*
X135114162Y-147450500D01*
X135339660Y-147414784D01*
X135556799Y-147344231D01*
X135760228Y-147240579D01*
X135944937Y-147106379D01*
X136106379Y-146944937D01*
X136240579Y-146760228D01*
X136344231Y-146556799D01*
X136414784Y-146339660D01*
X136418854Y-146313962D01*
X136450500Y-146114162D01*
X136450500Y-145885837D01*
X148549500Y-145885837D01*
X148549500Y-146114162D01*
X148585215Y-146339660D01*
X148655770Y-146556803D01*
X148737860Y-146717913D01*
X148759421Y-146760228D01*
X148893621Y-146944937D01*
X149055063Y-147106379D01*
X149239772Y-147240579D01*
X149254494Y-147248080D01*
X149443196Y-147344229D01*
X149443198Y-147344229D01*
X149443201Y-147344231D01*
X149559592Y-147382049D01*
X149660339Y-147414784D01*
X149885838Y-147450500D01*
X149885843Y-147450500D01*
X150114162Y-147450500D01*
X150339660Y-147414784D01*
X150556799Y-147344231D01*
X150760228Y-147240579D01*
X150944937Y-147106379D01*
X151106379Y-146944937D01*
X151240579Y-146760228D01*
X151344231Y-146556799D01*
X151414784Y-146339660D01*
X151432103Y-146230312D01*
X157549500Y-146230312D01*
X157549500Y-147869688D01*
X157559851Y-147940732D01*
X157613426Y-148050322D01*
X157699677Y-148136573D01*
X157699678Y-148136573D01*
X157699680Y-148136575D01*
X157809268Y-148190149D01*
X157880312Y-148200500D01*
X157880317Y-148200500D01*
X158719683Y-148200500D01*
X158719688Y-148200500D01*
X158790732Y-148190149D01*
X158900320Y-148136575D01*
X158986575Y-148050320D01*
X159040149Y-147940732D01*
X159050500Y-147869688D01*
X159050500Y-146230312D01*
X159040149Y-146159268D01*
X158986575Y-146049680D01*
X158986573Y-146049678D01*
X158986573Y-146049677D01*
X158900322Y-145963426D01*
X158790732Y-145909851D01*
X158719688Y-145899500D01*
X157880312Y-145899500D01*
X157821108Y-145908125D01*
X157809267Y-145909851D01*
X157699677Y-145963426D01*
X157613426Y-146049677D01*
X157563355Y-146152101D01*
X157559851Y-146159268D01*
X157549500Y-146230312D01*
X151432103Y-146230312D01*
X151443355Y-146159268D01*
X151450500Y-146114161D01*
X151450500Y-145885837D01*
X151414784Y-145660339D01*
X151356946Y-145482335D01*
X151344231Y-145443201D01*
X151344229Y-145443198D01*
X151344229Y-145443196D01*
X151240578Y-145239771D01*
X151204525Y-145190149D01*
X151106379Y-145055063D01*
X150944937Y-144893621D01*
X150760228Y-144759421D01*
X150556803Y-144655770D01*
X150339660Y-144585215D01*
X150114162Y-144549500D01*
X150114157Y-144549500D01*
X149885843Y-144549500D01*
X149885838Y-144549500D01*
X149660339Y-144585215D01*
X149443196Y-144655770D01*
X149239771Y-144759421D01*
X149055061Y-144893622D01*
X148893622Y-145055061D01*
X148759421Y-145239771D01*
X148655770Y-145443196D01*
X148585215Y-145660339D01*
X148549500Y-145885837D01*
X136450500Y-145885837D01*
X136414784Y-145660339D01*
X136356946Y-145482335D01*
X136344231Y-145443201D01*
X136344229Y-145443198D01*
X136344229Y-145443196D01*
X136240578Y-145239771D01*
X136204525Y-145190149D01*
X136106379Y-145055063D01*
X135944937Y-144893621D01*
X135814074Y-144798543D01*
X138949499Y-144798543D01*
X138987947Y-144991829D01*
X138987950Y-144991839D01*
X139063364Y-145173907D01*
X139063371Y-145173920D01*
X139172860Y-145337781D01*
X139172863Y-145337785D01*
X139312214Y-145477136D01*
X139312218Y-145477139D01*
X139476079Y-145586628D01*
X139476092Y-145586635D01*
X139600805Y-145638292D01*
X139658165Y-145662051D01*
X139658169Y-145662051D01*
X139658170Y-145662052D01*
X139851456Y-145700500D01*
X139851459Y-145700500D01*
X140048543Y-145700500D01*
X140178582Y-145674632D01*
X140241835Y-145662051D01*
X140423914Y-145586632D01*
X140587782Y-145477139D01*
X140727139Y-145337782D01*
X140836632Y-145173914D01*
X140855439Y-145128507D01*
X140899279Y-145074106D01*
X140965573Y-145052041D01*
X141033272Y-145069320D01*
X141080883Y-145120456D01*
X141084553Y-145128491D01*
X141087902Y-145136575D01*
X141103369Y-145173916D01*
X141103371Y-145173920D01*
X141212860Y-145337781D01*
X141212863Y-145337785D01*
X141352214Y-145477136D01*
X141352218Y-145477139D01*
X141516079Y-145586628D01*
X141516092Y-145586635D01*
X141640805Y-145638292D01*
X141698165Y-145662051D01*
X141698169Y-145662051D01*
X141698170Y-145662052D01*
X141891456Y-145700500D01*
X141891459Y-145700500D01*
X142088543Y-145700500D01*
X142218582Y-145674632D01*
X142281835Y-145662051D01*
X142463914Y-145586632D01*
X142627782Y-145477139D01*
X142767139Y-145337782D01*
X142876632Y-145173914D01*
X142895439Y-145128507D01*
X142939279Y-145074106D01*
X143005573Y-145052041D01*
X143073272Y-145069320D01*
X143120883Y-145120456D01*
X143124553Y-145128491D01*
X143127902Y-145136575D01*
X143143369Y-145173916D01*
X143143371Y-145173920D01*
X143252860Y-145337781D01*
X143252863Y-145337785D01*
X143392214Y-145477136D01*
X143392218Y-145477139D01*
X143556079Y-145586628D01*
X143556092Y-145586635D01*
X143680805Y-145638292D01*
X143738165Y-145662051D01*
X143738169Y-145662051D01*
X143738170Y-145662052D01*
X143931456Y-145700500D01*
X143931459Y-145700500D01*
X144128543Y-145700500D01*
X144258582Y-145674632D01*
X144321835Y-145662051D01*
X144503914Y-145586632D01*
X144667782Y-145477139D01*
X144807139Y-145337782D01*
X144916632Y-145173914D01*
X144935439Y-145128507D01*
X144979279Y-145074106D01*
X145045573Y-145052041D01*
X145113272Y-145069320D01*
X145160883Y-145120456D01*
X145164553Y-145128491D01*
X145167902Y-145136575D01*
X145183369Y-145173916D01*
X145183371Y-145173920D01*
X145292860Y-145337781D01*
X145292863Y-145337785D01*
X145432214Y-145477136D01*
X145432218Y-145477139D01*
X145596079Y-145586628D01*
X145596092Y-145586635D01*
X145720805Y-145638292D01*
X145778165Y-145662051D01*
X145778169Y-145662051D01*
X145778170Y-145662052D01*
X145971456Y-145700500D01*
X145971459Y-145700500D01*
X146168543Y-145700500D01*
X146298582Y-145674632D01*
X146361835Y-145662051D01*
X146543914Y-145586632D01*
X146707782Y-145477139D01*
X146847139Y-145337782D01*
X146956632Y-145173914D01*
X147032051Y-144991835D01*
X147070500Y-144798541D01*
X147070500Y-144601459D01*
X147070500Y-144601456D01*
X147032052Y-144408170D01*
X147032051Y-144408169D01*
X147032051Y-144408165D01*
X147001007Y-144333218D01*
X146956635Y-144226092D01*
X146956628Y-144226079D01*
X146847139Y-144062218D01*
X146847136Y-144062214D01*
X146707785Y-143922863D01*
X146707781Y-143922860D01*
X146543920Y-143813371D01*
X146543907Y-143813364D01*
X146361839Y-143737950D01*
X146361829Y-143737947D01*
X146168543Y-143699500D01*
X146168541Y-143699500D01*
X145971459Y-143699500D01*
X145971457Y-143699500D01*
X145778170Y-143737947D01*
X145778160Y-143737950D01*
X145596092Y-143813364D01*
X145596079Y-143813371D01*
X145432218Y-143922860D01*
X145432214Y-143922863D01*
X145292863Y-144062214D01*
X145292860Y-144062218D01*
X145183371Y-144226079D01*
X145183364Y-144226092D01*
X145164561Y-144271489D01*
X145120720Y-144325893D01*
X145054426Y-144347958D01*
X144986727Y-144330679D01*
X144939116Y-144279542D01*
X144935439Y-144271489D01*
X144916635Y-144226092D01*
X144916628Y-144226079D01*
X144807139Y-144062218D01*
X144807136Y-144062214D01*
X144667785Y-143922863D01*
X144667781Y-143922860D01*
X144503920Y-143813371D01*
X144503907Y-143813364D01*
X144321839Y-143737950D01*
X144321829Y-143737947D01*
X144128543Y-143699500D01*
X144128541Y-143699500D01*
X143931459Y-143699500D01*
X143931457Y-143699500D01*
X143738170Y-143737947D01*
X143738160Y-143737950D01*
X143556092Y-143813364D01*
X143556079Y-143813371D01*
X143392218Y-143922860D01*
X143392214Y-143922863D01*
X143252863Y-144062214D01*
X143252860Y-144062218D01*
X143143371Y-144226079D01*
X143143364Y-144226092D01*
X143124561Y-144271489D01*
X143080720Y-144325893D01*
X143014426Y-144347958D01*
X142946727Y-144330679D01*
X142899116Y-144279542D01*
X142895439Y-144271489D01*
X142876635Y-144226092D01*
X142876628Y-144226079D01*
X142767139Y-144062218D01*
X142767136Y-144062214D01*
X142627785Y-143922863D01*
X142627781Y-143922860D01*
X142463920Y-143813371D01*
X142463907Y-143813364D01*
X142281839Y-143737950D01*
X142281829Y-143737947D01*
X142088543Y-143699500D01*
X142088541Y-143699500D01*
X141891459Y-143699500D01*
X141891457Y-143699500D01*
X141698170Y-143737947D01*
X141698160Y-143737950D01*
X141516092Y-143813364D01*
X141516079Y-143813371D01*
X141352218Y-143922860D01*
X141352214Y-143922863D01*
X141212863Y-144062214D01*
X141212860Y-144062218D01*
X141103371Y-144226079D01*
X141103364Y-144226092D01*
X141084561Y-144271489D01*
X141040720Y-144325893D01*
X140974426Y-144347958D01*
X140906727Y-144330679D01*
X140859116Y-144279542D01*
X140855439Y-144271489D01*
X140836635Y-144226092D01*
X140836628Y-144226079D01*
X140727139Y-144062218D01*
X140727136Y-144062214D01*
X140587785Y-143922863D01*
X140587781Y-143922860D01*
X140423920Y-143813371D01*
X140423907Y-143813364D01*
X140241839Y-143737950D01*
X140241829Y-143737947D01*
X140048543Y-143699500D01*
X140048541Y-143699500D01*
X139851459Y-143699500D01*
X139851457Y-143699500D01*
X139658170Y-143737947D01*
X139658160Y-143737950D01*
X139476092Y-143813364D01*
X139476079Y-143813371D01*
X139312218Y-143922860D01*
X139312214Y-143922863D01*
X139172863Y-144062214D01*
X139172860Y-144062218D01*
X139063371Y-144226079D01*
X139063364Y-144226092D01*
X138987950Y-144408160D01*
X138987947Y-144408170D01*
X138949500Y-144601456D01*
X138949500Y-144601459D01*
X138949500Y-144798541D01*
X138949500Y-144798543D01*
X138949499Y-144798543D01*
X135814074Y-144798543D01*
X135760228Y-144759421D01*
X135655093Y-144705852D01*
X135556803Y-144655770D01*
X135339660Y-144585215D01*
X135114162Y-144549500D01*
X135114157Y-144549500D01*
X134885843Y-144549500D01*
X134885838Y-144549500D01*
X134660339Y-144585215D01*
X134443196Y-144655770D01*
X134239771Y-144759421D01*
X134055061Y-144893622D01*
X133893622Y-145055061D01*
X133759421Y-145239771D01*
X133655770Y-145443196D01*
X133585215Y-145660339D01*
X133549500Y-145885837D01*
X131450500Y-145885837D01*
X131414784Y-145660339D01*
X131356946Y-145482335D01*
X131344231Y-145443201D01*
X131344229Y-145443198D01*
X131344229Y-145443196D01*
X131240578Y-145239771D01*
X131204525Y-145190149D01*
X131106379Y-145055063D01*
X130944937Y-144893621D01*
X130760228Y-144759421D01*
X130556803Y-144655770D01*
X130339660Y-144585215D01*
X130114162Y-144549500D01*
X130114157Y-144549500D01*
X129885843Y-144549500D01*
X129885838Y-144549500D01*
X129660339Y-144585215D01*
X129443196Y-144655770D01*
X129239771Y-144759421D01*
X129055061Y-144893622D01*
X128893622Y-145055061D01*
X128759421Y-145239771D01*
X128655770Y-145443196D01*
X128585215Y-145660339D01*
X128549500Y-145885837D01*
X116450500Y-145885837D01*
X116414784Y-145660339D01*
X116356946Y-145482335D01*
X116344231Y-145443201D01*
X116344229Y-145443198D01*
X116344229Y-145443196D01*
X116240578Y-145239771D01*
X116204525Y-145190149D01*
X116106379Y-145055063D01*
X115944937Y-144893621D01*
X115814074Y-144798543D01*
X118949499Y-144798543D01*
X118987947Y-144991829D01*
X118987950Y-144991839D01*
X119063364Y-145173907D01*
X119063371Y-145173920D01*
X119172860Y-145337781D01*
X119172863Y-145337785D01*
X119312214Y-145477136D01*
X119312218Y-145477139D01*
X119476079Y-145586628D01*
X119476092Y-145586635D01*
X119600805Y-145638292D01*
X119658165Y-145662051D01*
X119658169Y-145662051D01*
X119658170Y-145662052D01*
X119851456Y-145700500D01*
X119851459Y-145700500D01*
X120048543Y-145700500D01*
X120178582Y-145674632D01*
X120241835Y-145662051D01*
X120423914Y-145586632D01*
X120587782Y-145477139D01*
X120727139Y-145337782D01*
X120836632Y-145173914D01*
X120855439Y-145128507D01*
X120899279Y-145074106D01*
X120965573Y-145052041D01*
X121033272Y-145069320D01*
X121080883Y-145120456D01*
X121084553Y-145128491D01*
X121087902Y-145136575D01*
X121103369Y-145173916D01*
X121103371Y-145173920D01*
X121212860Y-145337781D01*
X121212863Y-145337785D01*
X121352214Y-145477136D01*
X121352218Y-145477139D01*
X121516079Y-145586628D01*
X121516092Y-145586635D01*
X121640805Y-145638292D01*
X121698165Y-145662051D01*
X121698169Y-145662051D01*
X121698170Y-145662052D01*
X121891456Y-145700500D01*
X121891459Y-145700500D01*
X122088543Y-145700500D01*
X122218582Y-145674632D01*
X122281835Y-145662051D01*
X122463914Y-145586632D01*
X122627782Y-145477139D01*
X122767139Y-145337782D01*
X122876632Y-145173914D01*
X122895439Y-145128507D01*
X122939279Y-145074106D01*
X123005573Y-145052041D01*
X123073272Y-145069320D01*
X123120883Y-145120456D01*
X123124553Y-145128491D01*
X123127902Y-145136575D01*
X123143369Y-145173916D01*
X123143371Y-145173920D01*
X123252860Y-145337781D01*
X123252863Y-145337785D01*
X123392214Y-145477136D01*
X123392218Y-145477139D01*
X123556079Y-145586628D01*
X123556092Y-145586635D01*
X123680805Y-145638292D01*
X123738165Y-145662051D01*
X123738169Y-145662051D01*
X123738170Y-145662052D01*
X123931456Y-145700500D01*
X123931459Y-145700500D01*
X124128543Y-145700500D01*
X124258582Y-145674632D01*
X124321835Y-145662051D01*
X124503914Y-145586632D01*
X124667782Y-145477139D01*
X124807139Y-145337782D01*
X124916632Y-145173914D01*
X124935439Y-145128507D01*
X124979279Y-145074106D01*
X125045573Y-145052041D01*
X125113272Y-145069320D01*
X125160883Y-145120456D01*
X125164553Y-145128491D01*
X125167902Y-145136575D01*
X125183369Y-145173916D01*
X125183371Y-145173920D01*
X125292860Y-145337781D01*
X125292863Y-145337785D01*
X125432214Y-145477136D01*
X125432218Y-145477139D01*
X125596079Y-145586628D01*
X125596092Y-145586635D01*
X125720805Y-145638292D01*
X125778165Y-145662051D01*
X125778169Y-145662051D01*
X125778170Y-145662052D01*
X125971456Y-145700500D01*
X125971459Y-145700500D01*
X126168543Y-145700500D01*
X126298582Y-145674632D01*
X126361835Y-145662051D01*
X126543914Y-145586632D01*
X126707782Y-145477139D01*
X126847139Y-145337782D01*
X126956632Y-145173914D01*
X127032051Y-144991835D01*
X127070500Y-144798541D01*
X127070500Y-144601459D01*
X127070500Y-144601456D01*
X127032052Y-144408170D01*
X127032051Y-144408169D01*
X127032051Y-144408165D01*
X127001007Y-144333218D01*
X126956635Y-144226092D01*
X126956628Y-144226079D01*
X126847139Y-144062218D01*
X126847136Y-144062214D01*
X126707785Y-143922863D01*
X126707781Y-143922860D01*
X126543920Y-143813371D01*
X126543907Y-143813364D01*
X126361839Y-143737950D01*
X126361829Y-143737947D01*
X126168543Y-143699500D01*
X126168541Y-143699500D01*
X125971459Y-143699500D01*
X125971457Y-143699500D01*
X125778170Y-143737947D01*
X125778160Y-143737950D01*
X125596092Y-143813364D01*
X125596079Y-143813371D01*
X125432218Y-143922860D01*
X125432214Y-143922863D01*
X125292863Y-144062214D01*
X125292860Y-144062218D01*
X125183371Y-144226079D01*
X125183364Y-144226092D01*
X125164561Y-144271489D01*
X125120720Y-144325893D01*
X125054426Y-144347958D01*
X124986727Y-144330679D01*
X124939116Y-144279542D01*
X124935439Y-144271489D01*
X124916635Y-144226092D01*
X124916628Y-144226079D01*
X124807139Y-144062218D01*
X124807136Y-144062214D01*
X124667785Y-143922863D01*
X124667781Y-143922860D01*
X124503920Y-143813371D01*
X124503907Y-143813364D01*
X124321839Y-143737950D01*
X124321829Y-143737947D01*
X124128543Y-143699500D01*
X124128541Y-143699500D01*
X123931459Y-143699500D01*
X123931457Y-143699500D01*
X123738170Y-143737947D01*
X123738160Y-143737950D01*
X123556092Y-143813364D01*
X123556079Y-143813371D01*
X123392218Y-143922860D01*
X123392214Y-143922863D01*
X123252863Y-144062214D01*
X123252860Y-144062218D01*
X123143371Y-144226079D01*
X123143364Y-144226092D01*
X123124561Y-144271489D01*
X123080720Y-144325893D01*
X123014426Y-144347958D01*
X122946727Y-144330679D01*
X122899116Y-144279542D01*
X122895439Y-144271489D01*
X122876635Y-144226092D01*
X122876628Y-144226079D01*
X122767139Y-144062218D01*
X122767136Y-144062214D01*
X122627785Y-143922863D01*
X122627781Y-143922860D01*
X122463920Y-143813371D01*
X122463907Y-143813364D01*
X122281839Y-143737950D01*
X122281829Y-143737947D01*
X122088543Y-143699500D01*
X122088541Y-143699500D01*
X121891459Y-143699500D01*
X121891457Y-143699500D01*
X121698170Y-143737947D01*
X121698160Y-143737950D01*
X121516092Y-143813364D01*
X121516079Y-143813371D01*
X121352218Y-143922860D01*
X121352214Y-143922863D01*
X121212863Y-144062214D01*
X121212860Y-144062218D01*
X121103371Y-144226079D01*
X121103364Y-144226092D01*
X121084561Y-144271489D01*
X121040720Y-144325893D01*
X120974426Y-144347958D01*
X120906727Y-144330679D01*
X120859116Y-144279542D01*
X120855439Y-144271489D01*
X120836635Y-144226092D01*
X120836628Y-144226079D01*
X120727139Y-144062218D01*
X120727136Y-144062214D01*
X120587785Y-143922863D01*
X120587781Y-143922860D01*
X120423920Y-143813371D01*
X120423907Y-143813364D01*
X120241839Y-143737950D01*
X120241829Y-143737947D01*
X120048543Y-143699500D01*
X120048541Y-143699500D01*
X119851459Y-143699500D01*
X119851457Y-143699500D01*
X119658170Y-143737947D01*
X119658160Y-143737950D01*
X119476092Y-143813364D01*
X119476079Y-143813371D01*
X119312218Y-143922860D01*
X119312214Y-143922863D01*
X119172863Y-144062214D01*
X119172860Y-144062218D01*
X119063371Y-144226079D01*
X119063364Y-144226092D01*
X118987950Y-144408160D01*
X118987947Y-144408170D01*
X118949500Y-144601456D01*
X118949500Y-144601459D01*
X118949500Y-144798541D01*
X118949500Y-144798543D01*
X118949499Y-144798543D01*
X115814074Y-144798543D01*
X115760228Y-144759421D01*
X115655093Y-144705852D01*
X115556803Y-144655770D01*
X115339660Y-144585215D01*
X115114162Y-144549500D01*
X115114157Y-144549500D01*
X114885843Y-144549500D01*
X114885838Y-144549500D01*
X114660339Y-144585215D01*
X114443196Y-144655770D01*
X114239771Y-144759421D01*
X114055061Y-144893622D01*
X113893622Y-145055061D01*
X113759421Y-145239771D01*
X113655770Y-145443196D01*
X113585215Y-145660339D01*
X113549500Y-145885837D01*
X109283138Y-145885837D01*
X109294757Y-145857786D01*
X109409570Y-145479296D01*
X109409572Y-145479286D01*
X109409575Y-145479275D01*
X109465026Y-145200500D01*
X109486732Y-145091376D01*
X109525500Y-144697760D01*
X109525500Y-144302240D01*
X109486732Y-143908624D01*
X109441651Y-143681987D01*
X109409575Y-143520724D01*
X109409572Y-143520713D01*
X109409571Y-143520710D01*
X109409570Y-143520704D01*
X109321481Y-143230312D01*
X157549500Y-143230312D01*
X157549500Y-144869688D01*
X157559851Y-144940732D01*
X157613426Y-145050322D01*
X157699677Y-145136573D01*
X157699678Y-145136573D01*
X157699680Y-145136575D01*
X157809268Y-145190149D01*
X157880312Y-145200500D01*
X157880317Y-145200500D01*
X158719683Y-145200500D01*
X158719688Y-145200500D01*
X158790732Y-145190149D01*
X158900320Y-145136575D01*
X158986575Y-145050320D01*
X159040149Y-144940732D01*
X159050500Y-144869688D01*
X159050500Y-143230312D01*
X159040149Y-143159268D01*
X158986575Y-143049680D01*
X158986573Y-143049678D01*
X158986573Y-143049677D01*
X158900322Y-142963426D01*
X158889249Y-142958013D01*
X158790732Y-142909851D01*
X158719688Y-142899500D01*
X157880312Y-142899500D01*
X157821108Y-142908125D01*
X157809267Y-142909851D01*
X157699677Y-142963426D01*
X157613426Y-143049677D01*
X157584195Y-143109472D01*
X157559851Y-143159268D01*
X157549500Y-143230312D01*
X109321481Y-143230312D01*
X109294757Y-143142214D01*
X109143398Y-142776801D01*
X109128805Y-142749500D01*
X108956957Y-142427994D01*
X108956956Y-142427992D01*
X108956951Y-142427983D01*
X108737211Y-142099120D01*
X108714383Y-142071304D01*
X118029500Y-142071304D01*
X118029500Y-142248695D01*
X118064103Y-142422658D01*
X118064106Y-142422667D01*
X118131983Y-142586540D01*
X118131990Y-142586553D01*
X118230535Y-142734034D01*
X118230538Y-142734038D01*
X118355961Y-142859461D01*
X118355965Y-142859464D01*
X118503446Y-142958009D01*
X118503459Y-142958016D01*
X118626363Y-143008923D01*
X118667334Y-143025894D01*
X118667336Y-143025894D01*
X118667341Y-143025896D01*
X118841304Y-143060499D01*
X118841307Y-143060500D01*
X118841309Y-143060500D01*
X119018693Y-143060500D01*
X119018694Y-143060499D01*
X119076682Y-143048964D01*
X119192658Y-143025896D01*
X119192661Y-143025894D01*
X119192666Y-143025894D01*
X119356547Y-142958013D01*
X119504035Y-142859464D01*
X119629464Y-142734035D01*
X119728013Y-142586547D01*
X119795894Y-142422666D01*
X119797623Y-142413974D01*
X119826000Y-142271317D01*
X119826000Y-142271313D01*
X119830500Y-142248691D01*
X119830500Y-142071309D01*
X120069500Y-142071309D01*
X120069500Y-142248691D01*
X120074000Y-142271313D01*
X120074000Y-142271317D01*
X120104103Y-142422658D01*
X120104106Y-142422667D01*
X120171983Y-142586540D01*
X120171990Y-142586553D01*
X120270535Y-142734034D01*
X120270538Y-142734038D01*
X120395961Y-142859461D01*
X120395965Y-142859464D01*
X120543446Y-142958009D01*
X120543459Y-142958016D01*
X120666363Y-143008923D01*
X120707334Y-143025894D01*
X120707336Y-143025894D01*
X120707341Y-143025896D01*
X120881304Y-143060499D01*
X120881307Y-143060500D01*
X120881309Y-143060500D01*
X121058693Y-143060500D01*
X121058694Y-143060499D01*
X121116682Y-143048964D01*
X121232658Y-143025896D01*
X121232661Y-143025894D01*
X121232666Y-143025894D01*
X121396547Y-142958013D01*
X121544035Y-142859464D01*
X121669464Y-142734035D01*
X121768013Y-142586547D01*
X121835894Y-142422666D01*
X121837623Y-142413974D01*
X121866000Y-142271317D01*
X121866000Y-142271313D01*
X121870500Y-142248691D01*
X121870500Y-142071309D01*
X122109500Y-142071309D01*
X122109500Y-142248691D01*
X122114000Y-142271313D01*
X122114000Y-142271317D01*
X122144103Y-142422658D01*
X122144106Y-142422667D01*
X122211983Y-142586540D01*
X122211990Y-142586553D01*
X122310535Y-142734034D01*
X122310538Y-142734038D01*
X122435961Y-142859461D01*
X122435965Y-142859464D01*
X122583446Y-142958009D01*
X122583459Y-142958016D01*
X122706363Y-143008923D01*
X122747334Y-143025894D01*
X122747336Y-143025894D01*
X122747341Y-143025896D01*
X122921304Y-143060499D01*
X122921307Y-143060500D01*
X122921309Y-143060500D01*
X123098693Y-143060500D01*
X123098694Y-143060499D01*
X123156682Y-143048964D01*
X123272658Y-143025896D01*
X123272661Y-143025894D01*
X123272666Y-143025894D01*
X123436547Y-142958013D01*
X123584035Y-142859464D01*
X123709464Y-142734035D01*
X123808013Y-142586547D01*
X123875894Y-142422666D01*
X123877623Y-142413974D01*
X123906000Y-142271317D01*
X123906000Y-142271313D01*
X123910500Y-142248691D01*
X123910500Y-142071309D01*
X124149500Y-142071309D01*
X124149500Y-142248691D01*
X124154000Y-142271313D01*
X124154000Y-142271317D01*
X124184103Y-142422658D01*
X124184106Y-142422667D01*
X124251983Y-142586540D01*
X124251990Y-142586553D01*
X124350535Y-142734034D01*
X124350538Y-142734038D01*
X124475961Y-142859461D01*
X124475965Y-142859464D01*
X124623446Y-142958009D01*
X124623459Y-142958016D01*
X124746363Y-143008923D01*
X124787334Y-143025894D01*
X124787336Y-143025894D01*
X124787341Y-143025896D01*
X124961304Y-143060499D01*
X124961307Y-143060500D01*
X124961309Y-143060500D01*
X125138693Y-143060500D01*
X125138694Y-143060499D01*
X125196682Y-143048964D01*
X125312658Y-143025896D01*
X125312661Y-143025894D01*
X125312666Y-143025894D01*
X125476547Y-142958013D01*
X125624035Y-142859464D01*
X125749464Y-142734035D01*
X125848013Y-142586547D01*
X125915894Y-142422666D01*
X125917624Y-142413973D01*
X125950499Y-142248695D01*
X125950500Y-142248693D01*
X125950500Y-142071306D01*
X125950499Y-142071304D01*
X138029500Y-142071304D01*
X138029500Y-142248695D01*
X138064103Y-142422658D01*
X138064106Y-142422667D01*
X138131983Y-142586540D01*
X138131990Y-142586553D01*
X138230535Y-142734034D01*
X138230538Y-142734038D01*
X138355961Y-142859461D01*
X138355965Y-142859464D01*
X138503446Y-142958009D01*
X138503459Y-142958016D01*
X138626363Y-143008923D01*
X138667334Y-143025894D01*
X138667336Y-143025894D01*
X138667341Y-143025896D01*
X138841304Y-143060499D01*
X138841307Y-143060500D01*
X138841309Y-143060500D01*
X139018693Y-143060500D01*
X139018694Y-143060499D01*
X139076682Y-143048964D01*
X139192658Y-143025896D01*
X139192661Y-143025894D01*
X139192666Y-143025894D01*
X139356547Y-142958013D01*
X139504035Y-142859464D01*
X139629464Y-142734035D01*
X139728013Y-142586547D01*
X139795894Y-142422666D01*
X139797623Y-142413974D01*
X139826000Y-142271317D01*
X139826000Y-142271313D01*
X139830500Y-142248691D01*
X139830500Y-142071309D01*
X140069500Y-142071309D01*
X140069500Y-142248691D01*
X140074000Y-142271313D01*
X140074000Y-142271317D01*
X140104103Y-142422658D01*
X140104106Y-142422667D01*
X140171983Y-142586540D01*
X140171990Y-142586553D01*
X140270535Y-142734034D01*
X140270538Y-142734038D01*
X140395961Y-142859461D01*
X140395965Y-142859464D01*
X140543446Y-142958009D01*
X140543459Y-142958016D01*
X140666363Y-143008923D01*
X140707334Y-143025894D01*
X140707336Y-143025894D01*
X140707341Y-143025896D01*
X140881304Y-143060499D01*
X140881307Y-143060500D01*
X140881309Y-143060500D01*
X141058693Y-143060500D01*
X141058694Y-143060499D01*
X141116682Y-143048964D01*
X141232658Y-143025896D01*
X141232661Y-143025894D01*
X141232666Y-143025894D01*
X141396547Y-142958013D01*
X141544035Y-142859464D01*
X141669464Y-142734035D01*
X141768013Y-142586547D01*
X141835894Y-142422666D01*
X141837623Y-142413974D01*
X141866000Y-142271317D01*
X141866000Y-142271313D01*
X141870500Y-142248691D01*
X141870500Y-142071309D01*
X142109500Y-142071309D01*
X142109500Y-142248691D01*
X142114000Y-142271313D01*
X142114000Y-142271317D01*
X142144103Y-142422658D01*
X142144106Y-142422667D01*
X142211983Y-142586540D01*
X142211990Y-142586553D01*
X142310535Y-142734034D01*
X142310538Y-142734038D01*
X142435961Y-142859461D01*
X142435965Y-142859464D01*
X142583446Y-142958009D01*
X142583459Y-142958016D01*
X142706363Y-143008923D01*
X142747334Y-143025894D01*
X142747336Y-143025894D01*
X142747341Y-143025896D01*
X142921304Y-143060499D01*
X142921307Y-143060500D01*
X142921309Y-143060500D01*
X143098693Y-143060500D01*
X143098694Y-143060499D01*
X143156682Y-143048964D01*
X143272658Y-143025896D01*
X143272661Y-143025894D01*
X143272666Y-143025894D01*
X143436547Y-142958013D01*
X143584035Y-142859464D01*
X143709464Y-142734035D01*
X143808013Y-142586547D01*
X143875894Y-142422666D01*
X143877623Y-142413974D01*
X143906000Y-142271317D01*
X143906000Y-142271313D01*
X143910500Y-142248691D01*
X143910500Y-142071309D01*
X144149500Y-142071309D01*
X144149500Y-142248691D01*
X144154000Y-142271313D01*
X144154000Y-142271317D01*
X144184103Y-142422658D01*
X144184106Y-142422667D01*
X144251983Y-142586540D01*
X144251990Y-142586553D01*
X144350535Y-142734034D01*
X144350538Y-142734038D01*
X144475961Y-142859461D01*
X144475965Y-142859464D01*
X144623446Y-142958009D01*
X144623459Y-142958016D01*
X144746363Y-143008923D01*
X144787334Y-143025894D01*
X144787336Y-143025894D01*
X144787341Y-143025896D01*
X144961304Y-143060499D01*
X144961307Y-143060500D01*
X144961309Y-143060500D01*
X145138693Y-143060500D01*
X145138694Y-143060499D01*
X145196682Y-143048964D01*
X145312658Y-143025896D01*
X145312661Y-143025894D01*
X145312666Y-143025894D01*
X145476547Y-142958013D01*
X145624035Y-142859464D01*
X145749464Y-142734035D01*
X145848013Y-142586547D01*
X145915894Y-142422666D01*
X145917624Y-142413973D01*
X145950499Y-142248695D01*
X145950500Y-142248693D01*
X145950500Y-142071306D01*
X145950499Y-142071304D01*
X145915896Y-141897341D01*
X145915893Y-141897332D01*
X145848016Y-141733459D01*
X145848009Y-141733446D01*
X145749464Y-141585965D01*
X145749461Y-141585961D01*
X145624038Y-141460538D01*
X145624034Y-141460535D01*
X145542985Y-141406379D01*
X159549500Y-141406379D01*
X159549500Y-141593620D01*
X159586025Y-141777243D01*
X159586027Y-141777251D01*
X159657676Y-141950228D01*
X159657681Y-141950237D01*
X159761697Y-142105907D01*
X159761700Y-142105911D01*
X159894088Y-142238299D01*
X159894092Y-142238302D01*
X160049762Y-142342318D01*
X160049768Y-142342321D01*
X160049769Y-142342322D01*
X160222749Y-142413973D01*
X160406379Y-142450499D01*
X160406383Y-142450500D01*
X160406384Y-142450500D01*
X160593617Y-142450500D01*
X160593618Y-142450499D01*
X160777251Y-142413973D01*
X160950231Y-142342322D01*
X161105908Y-142238302D01*
X161238302Y-142105908D01*
X161342322Y-141950231D01*
X161413973Y-141777251D01*
X161450500Y-141593616D01*
X161450500Y-141406384D01*
X161413973Y-141222749D01*
X161342322Y-141049769D01*
X161342321Y-141049768D01*
X161342318Y-141049762D01*
X161238302Y-140894092D01*
X161238299Y-140894088D01*
X161105911Y-140761700D01*
X161105907Y-140761697D01*
X160950237Y-140657681D01*
X160950228Y-140657676D01*
X160777251Y-140586027D01*
X160777243Y-140586025D01*
X160593620Y-140549500D01*
X160593616Y-140549500D01*
X160406384Y-140549500D01*
X160406379Y-140549500D01*
X160222756Y-140586025D01*
X160222748Y-140586027D01*
X160049771Y-140657676D01*
X160049762Y-140657681D01*
X159894092Y-140761697D01*
X159894088Y-140761700D01*
X159761700Y-140894088D01*
X159761697Y-140894092D01*
X159657681Y-141049762D01*
X159657676Y-141049771D01*
X159586027Y-141222748D01*
X159586025Y-141222756D01*
X159549500Y-141406379D01*
X145542985Y-141406379D01*
X145476553Y-141361990D01*
X145476540Y-141361983D01*
X145312667Y-141294106D01*
X145312658Y-141294103D01*
X145138694Y-141259500D01*
X145138691Y-141259500D01*
X144961309Y-141259500D01*
X144961306Y-141259500D01*
X144787341Y-141294103D01*
X144787332Y-141294106D01*
X144623459Y-141361983D01*
X144623446Y-141361990D01*
X144475965Y-141460535D01*
X144475961Y-141460538D01*
X144350538Y-141585961D01*
X144350535Y-141585965D01*
X144251990Y-141733446D01*
X144251983Y-141733459D01*
X144184106Y-141897332D01*
X144184104Y-141897340D01*
X144154000Y-142048683D01*
X144154000Y-142048686D01*
X144149500Y-142071309D01*
X143910500Y-142071309D01*
X143906000Y-142048686D01*
X143906000Y-142048683D01*
X143875895Y-141897340D01*
X143875894Y-141897334D01*
X143832835Y-141793379D01*
X143808016Y-141733459D01*
X143808009Y-141733446D01*
X143709464Y-141585965D01*
X143709461Y-141585961D01*
X143584038Y-141460538D01*
X143584034Y-141460535D01*
X143436553Y-141361990D01*
X143436540Y-141361983D01*
X143272667Y-141294106D01*
X143272658Y-141294103D01*
X143098694Y-141259500D01*
X143098691Y-141259500D01*
X142921309Y-141259500D01*
X142921306Y-141259500D01*
X142747341Y-141294103D01*
X142747332Y-141294106D01*
X142583459Y-141361983D01*
X142583446Y-141361990D01*
X142435965Y-141460535D01*
X142435961Y-141460538D01*
X142310538Y-141585961D01*
X142310535Y-141585965D01*
X142211990Y-141733446D01*
X142211983Y-141733459D01*
X142144106Y-141897332D01*
X142144104Y-141897340D01*
X142114000Y-142048683D01*
X142114000Y-142048686D01*
X142109500Y-142071309D01*
X141870500Y-142071309D01*
X141866000Y-142048686D01*
X141866000Y-142048683D01*
X141835895Y-141897340D01*
X141835894Y-141897334D01*
X141792835Y-141793379D01*
X141768016Y-141733459D01*
X141768009Y-141733446D01*
X141669464Y-141585965D01*
X141669461Y-141585961D01*
X141544038Y-141460538D01*
X141544034Y-141460535D01*
X141396553Y-141361990D01*
X141396540Y-141361983D01*
X141232667Y-141294106D01*
X141232658Y-141294103D01*
X141058694Y-141259500D01*
X141058691Y-141259500D01*
X140881309Y-141259500D01*
X140881306Y-141259500D01*
X140707341Y-141294103D01*
X140707332Y-141294106D01*
X140543459Y-141361983D01*
X140543446Y-141361990D01*
X140395965Y-141460535D01*
X140395961Y-141460538D01*
X140270538Y-141585961D01*
X140270535Y-141585965D01*
X140171990Y-141733446D01*
X140171983Y-141733459D01*
X140104106Y-141897332D01*
X140104104Y-141897340D01*
X140074000Y-142048683D01*
X140074000Y-142048686D01*
X140069500Y-142071309D01*
X139830500Y-142071309D01*
X139826000Y-142048686D01*
X139826000Y-142048683D01*
X139795895Y-141897340D01*
X139795894Y-141897334D01*
X139752835Y-141793379D01*
X139728016Y-141733459D01*
X139728009Y-141733446D01*
X139629464Y-141585965D01*
X139629461Y-141585961D01*
X139504038Y-141460538D01*
X139504034Y-141460535D01*
X139356553Y-141361990D01*
X139356540Y-141361983D01*
X139192667Y-141294106D01*
X139192658Y-141294103D01*
X139018694Y-141259500D01*
X139018691Y-141259500D01*
X138841309Y-141259500D01*
X138841306Y-141259500D01*
X138667341Y-141294103D01*
X138667332Y-141294106D01*
X138503459Y-141361983D01*
X138503446Y-141361990D01*
X138355965Y-141460535D01*
X138355961Y-141460538D01*
X138230538Y-141585961D01*
X138230535Y-141585965D01*
X138131990Y-141733446D01*
X138131983Y-141733459D01*
X138064106Y-141897332D01*
X138064103Y-141897341D01*
X138029500Y-142071304D01*
X125950499Y-142071304D01*
X125915896Y-141897341D01*
X125915893Y-141897332D01*
X125848016Y-141733459D01*
X125848009Y-141733446D01*
X125749464Y-141585965D01*
X125749461Y-141585961D01*
X125624038Y-141460538D01*
X125624034Y-141460535D01*
X125476553Y-141361990D01*
X125476540Y-141361983D01*
X125312667Y-141294106D01*
X125312658Y-141294103D01*
X125138694Y-141259500D01*
X125138691Y-141259500D01*
X124961309Y-141259500D01*
X124961306Y-141259500D01*
X124787341Y-141294103D01*
X124787332Y-141294106D01*
X124623459Y-141361983D01*
X124623446Y-141361990D01*
X124475965Y-141460535D01*
X124475961Y-141460538D01*
X124350538Y-141585961D01*
X124350535Y-141585965D01*
X124251990Y-141733446D01*
X124251983Y-141733459D01*
X124184106Y-141897332D01*
X124184104Y-141897340D01*
X124154000Y-142048683D01*
X124154000Y-142048686D01*
X124149500Y-142071309D01*
X123910500Y-142071309D01*
X123906000Y-142048686D01*
X123906000Y-142048683D01*
X123875895Y-141897340D01*
X123875894Y-141897334D01*
X123832835Y-141793379D01*
X123808016Y-141733459D01*
X123808009Y-141733446D01*
X123709464Y-141585965D01*
X123709461Y-141585961D01*
X123584038Y-141460538D01*
X123584034Y-141460535D01*
X123436553Y-141361990D01*
X123436540Y-141361983D01*
X123272667Y-141294106D01*
X123272658Y-141294103D01*
X123098694Y-141259500D01*
X123098691Y-141259500D01*
X122921309Y-141259500D01*
X122921306Y-141259500D01*
X122747341Y-141294103D01*
X122747332Y-141294106D01*
X122583459Y-141361983D01*
X122583446Y-141361990D01*
X122435965Y-141460535D01*
X122435961Y-141460538D01*
X122310538Y-141585961D01*
X122310535Y-141585965D01*
X122211990Y-141733446D01*
X122211983Y-141733459D01*
X122144106Y-141897332D01*
X122144104Y-141897340D01*
X122114000Y-142048683D01*
X122114000Y-142048686D01*
X122109500Y-142071309D01*
X121870500Y-142071309D01*
X121866000Y-142048686D01*
X121866000Y-142048683D01*
X121835895Y-141897340D01*
X121835894Y-141897334D01*
X121792835Y-141793379D01*
X121768016Y-141733459D01*
X121768009Y-141733446D01*
X121669464Y-141585965D01*
X121669461Y-141585961D01*
X121544038Y-141460538D01*
X121544034Y-141460535D01*
X121396553Y-141361990D01*
X121396540Y-141361983D01*
X121232667Y-141294106D01*
X121232658Y-141294103D01*
X121058694Y-141259500D01*
X121058691Y-141259500D01*
X120881309Y-141259500D01*
X120881306Y-141259500D01*
X120707341Y-141294103D01*
X120707332Y-141294106D01*
X120543459Y-141361983D01*
X120543446Y-141361990D01*
X120395965Y-141460535D01*
X120395961Y-141460538D01*
X120270538Y-141585961D01*
X120270535Y-141585965D01*
X120171990Y-141733446D01*
X120171983Y-141733459D01*
X120104106Y-141897332D01*
X120104104Y-141897340D01*
X120074000Y-142048683D01*
X120074000Y-142048686D01*
X120069500Y-142071309D01*
X119830500Y-142071309D01*
X119826000Y-142048686D01*
X119826000Y-142048683D01*
X119795895Y-141897340D01*
X119795894Y-141897334D01*
X119752835Y-141793379D01*
X119728016Y-141733459D01*
X119728009Y-141733446D01*
X119629464Y-141585965D01*
X119629461Y-141585961D01*
X119504038Y-141460538D01*
X119504034Y-141460535D01*
X119356553Y-141361990D01*
X119356540Y-141361983D01*
X119192667Y-141294106D01*
X119192658Y-141294103D01*
X119018694Y-141259500D01*
X119018691Y-141259500D01*
X118841309Y-141259500D01*
X118841306Y-141259500D01*
X118667341Y-141294103D01*
X118667332Y-141294106D01*
X118503459Y-141361983D01*
X118503446Y-141361990D01*
X118355965Y-141460535D01*
X118355961Y-141460538D01*
X118230538Y-141585961D01*
X118230535Y-141585965D01*
X118131990Y-141733446D01*
X118131983Y-141733459D01*
X118064106Y-141897332D01*
X118064103Y-141897341D01*
X118029500Y-142071304D01*
X108714383Y-142071304D01*
X108486296Y-141793379D01*
X108486295Y-141793378D01*
X108486291Y-141793373D01*
X108206626Y-141513708D01*
X107900885Y-141262793D01*
X107900884Y-141262792D01*
X107900880Y-141262789D01*
X107572017Y-141043049D01*
X107572012Y-141043046D01*
X107572005Y-141043042D01*
X107223206Y-140856605D01*
X107223201Y-140856603D01*
X106857787Y-140705243D01*
X106479286Y-140590427D01*
X106479275Y-140590424D01*
X106091382Y-140513269D01*
X106091365Y-140513266D01*
X105793710Y-140483950D01*
X105697760Y-140474500D01*
X105302240Y-140474500D01*
X105213500Y-140483240D01*
X104908634Y-140513266D01*
X104908617Y-140513269D01*
X104520724Y-140590424D01*
X104520713Y-140590427D01*
X104142212Y-140705243D01*
X103776798Y-140856603D01*
X103776793Y-140856605D01*
X103427994Y-141043042D01*
X103427976Y-141043053D01*
X103099128Y-141262783D01*
X103099114Y-141262793D01*
X102793373Y-141513708D01*
X102513708Y-141793373D01*
X102262793Y-142099114D01*
X102262783Y-142099128D01*
X102043053Y-142427976D01*
X102043042Y-142427994D01*
X101856605Y-142776793D01*
X101856603Y-142776798D01*
X101705243Y-143142212D01*
X101590427Y-143520713D01*
X101590424Y-143520724D01*
X101513269Y-143908617D01*
X101513266Y-143908634D01*
X101474500Y-144302243D01*
X100500500Y-144302243D01*
X100500500Y-139230312D01*
X157549500Y-139230312D01*
X157549500Y-140869688D01*
X157553056Y-140894092D01*
X157559851Y-140940732D01*
X157613426Y-141050322D01*
X157699677Y-141136573D01*
X157699678Y-141136573D01*
X157699680Y-141136575D01*
X157809268Y-141190149D01*
X157880312Y-141200500D01*
X157880317Y-141200500D01*
X158719683Y-141200500D01*
X158719688Y-141200500D01*
X158790732Y-141190149D01*
X158900320Y-141136575D01*
X158986575Y-141050320D01*
X159040149Y-140940732D01*
X159050500Y-140869688D01*
X159050500Y-139230312D01*
X159040149Y-139159268D01*
X158986575Y-139049680D01*
X158986573Y-139049678D01*
X158986573Y-139049677D01*
X158900322Y-138963426D01*
X158790732Y-138909851D01*
X158719688Y-138899500D01*
X157880312Y-138899500D01*
X157821108Y-138908125D01*
X157809267Y-138909851D01*
X157699677Y-138963426D01*
X157613426Y-139049677D01*
X157613425Y-139049680D01*
X157559851Y-139159268D01*
X157549500Y-139230312D01*
X100500500Y-139230312D01*
X100500500Y-137880312D01*
X161949500Y-137880312D01*
X161949500Y-139519688D01*
X161958876Y-139584038D01*
X161959851Y-139590732D01*
X162013426Y-139700322D01*
X162099677Y-139786573D01*
X162099678Y-139786573D01*
X162099680Y-139786575D01*
X162209268Y-139840149D01*
X162280312Y-139850500D01*
X162280317Y-139850500D01*
X163119683Y-139850500D01*
X163119688Y-139850500D01*
X163190732Y-139840149D01*
X163300320Y-139786575D01*
X163386575Y-139700320D01*
X163440149Y-139590732D01*
X163450500Y-139519688D01*
X163450500Y-137880312D01*
X163440149Y-137809268D01*
X163386575Y-137699680D01*
X163386573Y-137699678D01*
X163386573Y-137699677D01*
X163300322Y-137613426D01*
X163190732Y-137559851D01*
X163119688Y-137549500D01*
X162280312Y-137549500D01*
X162221108Y-137558125D01*
X162209267Y-137559851D01*
X162099677Y-137613426D01*
X162013426Y-137699677D01*
X162013425Y-137699680D01*
X161959851Y-137809268D01*
X161949500Y-137880312D01*
X100500500Y-137880312D01*
X100500500Y-129675366D01*
X157040043Y-129675366D01*
X157065041Y-129801033D01*
X157065043Y-129801039D01*
X157114077Y-129919419D01*
X157114082Y-129919428D01*
X157185267Y-130025963D01*
X157185270Y-130025967D01*
X157275871Y-130116568D01*
X157275875Y-130116571D01*
X157382410Y-130187756D01*
X157382416Y-130187759D01*
X157382417Y-130187760D01*
X157500800Y-130236796D01*
X157500804Y-130236796D01*
X157500805Y-130236797D01*
X157626472Y-130261795D01*
X157626475Y-130261795D01*
X157754615Y-130261795D01*
X157839159Y-130244977D01*
X157880288Y-130236796D01*
X157998671Y-130187760D01*
X158105213Y-130116571D01*
X158195820Y-130025964D01*
X158267009Y-129919422D01*
X158316045Y-129801039D01*
X158333226Y-129714668D01*
X158341044Y-129675366D01*
X158341044Y-129577984D01*
X158360729Y-129510945D01*
X158377363Y-129490303D01*
X158903642Y-128964025D01*
X159430848Y-128436819D01*
X159492171Y-128403334D01*
X159518529Y-128400500D01*
X159792321Y-128400500D01*
X159859360Y-128420185D01*
X159905115Y-128472989D01*
X159915059Y-128542147D01*
X159886034Y-128605703D01*
X159880002Y-128612181D01*
X159799499Y-128692683D01*
X159799497Y-128692686D01*
X159733605Y-128806812D01*
X159708770Y-128899500D01*
X159699497Y-128934108D01*
X159699497Y-129065892D01*
X159716551Y-129129539D01*
X159733605Y-129193187D01*
X159758282Y-129235928D01*
X159799497Y-129307314D01*
X159799499Y-129307316D01*
X159863178Y-129370995D01*
X159896663Y-129432318D01*
X159899497Y-129458676D01*
X159899497Y-132124169D01*
X159879812Y-132191208D01*
X159863178Y-132211850D01*
X159111847Y-132963181D01*
X159050524Y-132996666D01*
X159024166Y-132999500D01*
X158934108Y-132999500D01*
X158806812Y-133033608D01*
X158692686Y-133099500D01*
X158692683Y-133099502D01*
X158599502Y-133192683D01*
X158599500Y-133192686D01*
X158533608Y-133306812D01*
X158499500Y-133434108D01*
X158499500Y-133565891D01*
X158533608Y-133693187D01*
X158543604Y-133710500D01*
X158599500Y-133807314D01*
X158692686Y-133900500D01*
X158806814Y-133966392D01*
X158934108Y-134000500D01*
X158934110Y-134000500D01*
X159065890Y-134000500D01*
X159065892Y-134000500D01*
X159193186Y-133966392D01*
X159307314Y-133900500D01*
X159400500Y-133807314D01*
X159466392Y-133693186D01*
X159500500Y-133565892D01*
X159500500Y-133475832D01*
X159520185Y-133408793D01*
X159536819Y-133388151D01*
X159964532Y-132960438D01*
X160440457Y-132484514D01*
X160460095Y-132450500D01*
X160468113Y-132436611D01*
X160518678Y-132388397D01*
X160587285Y-132375173D01*
X160652150Y-132401140D01*
X160692680Y-132458054D01*
X160699500Y-132498612D01*
X160699500Y-132824165D01*
X160690855Y-132853605D01*
X160684332Y-132883592D01*
X160680577Y-132888607D01*
X160679815Y-132891204D01*
X160663181Y-132911846D01*
X160611846Y-132963181D01*
X160550523Y-132996666D01*
X160524165Y-132999500D01*
X160434108Y-132999500D01*
X160306812Y-133033608D01*
X160192686Y-133099500D01*
X160192683Y-133099502D01*
X160099502Y-133192683D01*
X160099500Y-133192686D01*
X160033608Y-133306812D01*
X159999500Y-133434108D01*
X159999500Y-133565891D01*
X160033608Y-133693187D01*
X160043604Y-133710500D01*
X160099500Y-133807314D01*
X160192686Y-133900500D01*
X160306814Y-133966392D01*
X160434108Y-134000500D01*
X160434110Y-134000500D01*
X160565890Y-134000500D01*
X160565892Y-134000500D01*
X160693186Y-133966392D01*
X160807314Y-133900500D01*
X160900500Y-133807314D01*
X160966392Y-133693186D01*
X161000500Y-133565892D01*
X161000500Y-133475832D01*
X161020185Y-133408793D01*
X161036814Y-133388155D01*
X161240460Y-133184511D01*
X161280022Y-133115988D01*
X161300500Y-133039562D01*
X161300500Y-132960438D01*
X161300500Y-130019808D01*
X161320185Y-129952769D01*
X161372989Y-129907014D01*
X161442147Y-129897070D01*
X161505703Y-129926095D01*
X161512181Y-129932127D01*
X161585327Y-130005273D01*
X161585331Y-130005276D01*
X161691866Y-130076461D01*
X161691872Y-130076464D01*
X161691873Y-130076465D01*
X161810256Y-130125501D01*
X161810260Y-130125501D01*
X161810261Y-130125502D01*
X161935928Y-130150500D01*
X161935931Y-130150500D01*
X162064071Y-130150500D01*
X162148615Y-130133682D01*
X162189744Y-130125501D01*
X162308127Y-130076465D01*
X162414669Y-130005276D01*
X162505276Y-129914669D01*
X162576465Y-129808127D01*
X162625501Y-129689744D01*
X162640508Y-129614301D01*
X162650500Y-129564071D01*
X162650500Y-129448650D01*
X162653281Y-129436605D01*
X162652253Y-129427874D01*
X162660727Y-129404363D01*
X162663058Y-129394274D01*
X162664950Y-129390396D01*
X162702587Y-129325207D01*
X162706593Y-129310256D01*
X162729881Y-129223347D01*
X162729881Y-129117893D01*
X162729881Y-129110298D01*
X162729880Y-129110280D01*
X162729880Y-128776655D01*
X162729880Y-128776653D01*
X162702587Y-128674793D01*
X162649860Y-128583467D01*
X162575293Y-128508900D01*
X161745913Y-127679520D01*
X161700250Y-127653156D01*
X161654589Y-127626793D01*
X161603657Y-127613146D01*
X161552727Y-127599500D01*
X159354001Y-127599500D01*
X159248547Y-127599500D01*
X159146684Y-127626793D01*
X159055361Y-127679520D01*
X159055358Y-127679522D01*
X157810404Y-128924476D01*
X157749081Y-128957961D01*
X157722723Y-128960795D01*
X157626473Y-128960795D01*
X157500805Y-128985792D01*
X157500799Y-128985794D01*
X157382419Y-129034828D01*
X157382410Y-129034833D01*
X157275875Y-129106018D01*
X157275871Y-129106021D01*
X157185270Y-129196622D01*
X157185267Y-129196626D01*
X157114082Y-129303161D01*
X157114077Y-129303170D01*
X157065043Y-129421550D01*
X157065041Y-129421556D01*
X157040044Y-129547223D01*
X157040044Y-129547226D01*
X157040044Y-129675364D01*
X157040044Y-129675366D01*
X157040043Y-129675366D01*
X100500500Y-129675366D01*
X100500500Y-123230585D01*
X162173196Y-123230585D01*
X162173196Y-123362369D01*
X162185510Y-123408325D01*
X162207304Y-123489664D01*
X162217194Y-123506793D01*
X162273196Y-123603791D01*
X162366382Y-123696977D01*
X162480510Y-123762869D01*
X162607594Y-123796920D01*
X162667254Y-123833285D01*
X162697783Y-123896132D01*
X162699500Y-123916695D01*
X162699500Y-126541323D01*
X162679815Y-126608362D01*
X162663182Y-126629004D01*
X162599500Y-126692686D01*
X162533608Y-126806812D01*
X162499500Y-126934108D01*
X162499500Y-127065891D01*
X162533608Y-127193187D01*
X162566554Y-127250250D01*
X162599500Y-127307314D01*
X162692686Y-127400500D01*
X162806814Y-127466392D01*
X162934108Y-127500500D01*
X162934110Y-127500500D01*
X163065890Y-127500500D01*
X163065892Y-127500500D01*
X163193186Y-127466392D01*
X163307314Y-127400500D01*
X163400500Y-127307314D01*
X163466392Y-127193186D01*
X163500500Y-127065892D01*
X163500500Y-126934108D01*
X163466392Y-126806814D01*
X163400500Y-126692686D01*
X163336818Y-126629004D01*
X163303334Y-126567680D01*
X163300500Y-126541323D01*
X163300500Y-123583221D01*
X163300499Y-123583217D01*
X163289560Y-123542390D01*
X163280022Y-123506793D01*
X163240460Y-123438270D01*
X163210515Y-123408325D01*
X163177030Y-123347002D01*
X163174196Y-123320644D01*
X163174196Y-123230587D01*
X163174196Y-123230585D01*
X163140088Y-123103291D01*
X163074196Y-122989163D01*
X162981010Y-122895977D01*
X162923946Y-122863031D01*
X162866883Y-122830085D01*
X162803235Y-122813031D01*
X162739588Y-122795977D01*
X162607804Y-122795977D01*
X162480508Y-122830085D01*
X162366382Y-122895977D01*
X162366379Y-122895979D01*
X162273198Y-122989160D01*
X162273196Y-122989163D01*
X162207304Y-123103289D01*
X162173196Y-123230585D01*
X100500500Y-123230585D01*
X100500500Y-112792118D01*
X179510001Y-112792118D01*
X179510001Y-112923902D01*
X179513119Y-112935538D01*
X179544109Y-113051197D01*
X179577055Y-113108260D01*
X179610001Y-113165324D01*
X179703187Y-113258510D01*
X179817315Y-113324402D01*
X179944609Y-113358510D01*
X179944611Y-113358510D01*
X179988000Y-113358510D01*
X180055039Y-113378195D01*
X180100794Y-113430999D01*
X180112000Y-113482510D01*
X180112000Y-125002062D01*
X180125652Y-125053013D01*
X180132479Y-125078490D01*
X180132480Y-125078491D01*
X180141664Y-125094399D01*
X180141677Y-125094421D01*
X180142250Y-125095413D01*
X180172040Y-125147011D01*
X180175332Y-125150303D01*
X180181724Y-125160916D01*
X180188886Y-125188231D01*
X180199069Y-125214564D01*
X180199500Y-125224889D01*
X180199500Y-125315891D01*
X180233608Y-125443187D01*
X180266554Y-125500250D01*
X180299500Y-125557314D01*
X180392686Y-125650500D01*
X180506814Y-125716392D01*
X180634108Y-125750500D01*
X180634110Y-125750500D01*
X180765890Y-125750500D01*
X180765892Y-125750500D01*
X180893186Y-125716392D01*
X181007314Y-125650500D01*
X181100500Y-125557314D01*
X181166392Y-125443186D01*
X181200500Y-125315892D01*
X181200500Y-125184108D01*
X181166392Y-125056814D01*
X181100500Y-124942686D01*
X181007314Y-124849500D01*
X180893186Y-124783608D01*
X180804905Y-124759953D01*
X180745246Y-124723589D01*
X180714717Y-124660742D01*
X180713000Y-124640179D01*
X180713000Y-122099504D01*
X180732685Y-122032465D01*
X180785489Y-121986710D01*
X180854647Y-121976766D01*
X180869071Y-121979724D01*
X180946608Y-122000500D01*
X180946611Y-122000500D01*
X181078390Y-122000500D01*
X181078392Y-122000500D01*
X181205686Y-121966392D01*
X181319814Y-121900500D01*
X181413000Y-121807314D01*
X181478892Y-121693186D01*
X181513000Y-121565892D01*
X181513000Y-121434108D01*
X181478892Y-121306814D01*
X181413000Y-121192686D01*
X181319814Y-121099500D01*
X181253921Y-121061456D01*
X181205685Y-121033607D01*
X181198182Y-121030500D01*
X181198690Y-121029271D01*
X181146240Y-120997296D01*
X181115715Y-120934447D01*
X181114000Y-120913892D01*
X181114000Y-117376571D01*
X182661999Y-117376571D01*
X182686997Y-117502238D01*
X182686999Y-117502244D01*
X182736033Y-117620624D01*
X182736038Y-117620633D01*
X182807222Y-117727167D01*
X182807223Y-117727168D01*
X182807224Y-117727169D01*
X182875682Y-117795627D01*
X182909166Y-117856948D01*
X182912000Y-117883307D01*
X182912000Y-118391692D01*
X182892315Y-118458731D01*
X182875681Y-118479373D01*
X182807226Y-118547827D01*
X182807223Y-118547831D01*
X182736038Y-118654366D01*
X182736033Y-118654375D01*
X182686999Y-118772755D01*
X182686997Y-118772761D01*
X182662000Y-118898428D01*
X182662000Y-118898431D01*
X182662000Y-119026569D01*
X182662000Y-119026571D01*
X182661999Y-119026571D01*
X182686997Y-119152238D01*
X182686999Y-119152244D01*
X182736033Y-119270624D01*
X182736038Y-119270633D01*
X182807223Y-119377168D01*
X182807226Y-119377172D01*
X182897827Y-119467773D01*
X182897831Y-119467776D01*
X183004366Y-119538961D01*
X183004372Y-119538964D01*
X183004373Y-119538965D01*
X183122756Y-119588001D01*
X183122760Y-119588001D01*
X183122761Y-119588002D01*
X183248428Y-119613000D01*
X183248431Y-119613000D01*
X183376571Y-119613000D01*
X183461115Y-119596182D01*
X183502244Y-119588001D01*
X183620627Y-119538965D01*
X183727169Y-119467776D01*
X183817776Y-119377169D01*
X183888965Y-119270627D01*
X183938001Y-119152244D01*
X183963000Y-119026569D01*
X183963000Y-118898431D01*
X183963000Y-118898428D01*
X183938002Y-118772761D01*
X183938001Y-118772760D01*
X183938001Y-118772756D01*
X183888965Y-118654373D01*
X183888964Y-118654372D01*
X183888961Y-118654366D01*
X183817776Y-118547831D01*
X183817773Y-118547827D01*
X183749319Y-118479373D01*
X183715834Y-118418050D01*
X183713000Y-118391692D01*
X183713000Y-117883307D01*
X183732685Y-117816268D01*
X183749314Y-117795630D01*
X183817776Y-117727169D01*
X183888965Y-117620627D01*
X183938001Y-117502244D01*
X183963000Y-117376569D01*
X183963000Y-117248431D01*
X183963000Y-117248428D01*
X183938002Y-117122761D01*
X183938001Y-117122760D01*
X183938001Y-117122756D01*
X183888965Y-117004373D01*
X183888964Y-117004372D01*
X183888961Y-117004366D01*
X183817776Y-116897831D01*
X183817773Y-116897827D01*
X183727172Y-116807226D01*
X183727168Y-116807223D01*
X183620633Y-116736038D01*
X183620624Y-116736033D01*
X183502244Y-116686999D01*
X183502238Y-116686997D01*
X183376571Y-116662000D01*
X183376569Y-116662000D01*
X183248431Y-116662000D01*
X183248429Y-116662000D01*
X183122761Y-116686997D01*
X183122755Y-116686999D01*
X183004375Y-116736033D01*
X183004366Y-116736038D01*
X182897831Y-116807223D01*
X182897827Y-116807226D01*
X182807226Y-116897827D01*
X182807223Y-116897831D01*
X182736038Y-117004366D01*
X182736033Y-117004375D01*
X182686999Y-117122755D01*
X182686997Y-117122761D01*
X182662000Y-117248428D01*
X182662000Y-117248431D01*
X182662000Y-117376569D01*
X182662000Y-117376571D01*
X182661999Y-117376571D01*
X181114000Y-117376571D01*
X181114000Y-112492571D01*
X181109298Y-112475024D01*
X181109298Y-112410836D01*
X181113000Y-112397024D01*
X181113000Y-112265240D01*
X181078892Y-112137946D01*
X181013000Y-112023818D01*
X180919814Y-111930632D01*
X180862750Y-111897686D01*
X180805687Y-111864740D01*
X180742039Y-111847686D01*
X180678392Y-111830632D01*
X180546608Y-111830632D01*
X180419312Y-111864740D01*
X180305186Y-111930632D01*
X180305183Y-111930634D01*
X180212002Y-112023815D01*
X180212000Y-112023818D01*
X180146108Y-112137944D01*
X180111903Y-112265603D01*
X180075538Y-112325264D01*
X180012691Y-112355793D01*
X179992128Y-112357510D01*
X179944609Y-112357510D01*
X179817313Y-112391618D01*
X179703187Y-112457510D01*
X179703184Y-112457512D01*
X179610003Y-112550693D01*
X179610001Y-112550696D01*
X179544109Y-112664822D01*
X179510001Y-112792118D01*
X100500500Y-112792118D01*
X100500500Y-111664071D01*
X158349499Y-111664071D01*
X158374497Y-111789738D01*
X158374499Y-111789744D01*
X158423533Y-111908124D01*
X158423538Y-111908133D01*
X158494723Y-112014668D01*
X158494726Y-112014672D01*
X158585327Y-112105273D01*
X158585331Y-112105276D01*
X158691866Y-112176461D01*
X158691872Y-112176464D01*
X158691873Y-112176465D01*
X158810256Y-112225501D01*
X158810260Y-112225501D01*
X158810261Y-112225502D01*
X158935928Y-112250500D01*
X158935931Y-112250500D01*
X159064071Y-112250500D01*
X159148615Y-112233682D01*
X159189744Y-112225501D01*
X159308127Y-112176465D01*
X159414669Y-112105276D01*
X159483127Y-112036817D01*
X159544448Y-112003334D01*
X159570807Y-112000500D01*
X162629193Y-112000500D01*
X162696232Y-112020185D01*
X162716869Y-112036814D01*
X162785328Y-112105273D01*
X162785332Y-112105277D01*
X162891866Y-112176461D01*
X162891872Y-112176464D01*
X162891873Y-112176465D01*
X163010256Y-112225501D01*
X163010260Y-112225501D01*
X163010261Y-112225502D01*
X163135928Y-112250500D01*
X163135931Y-112250500D01*
X163264071Y-112250500D01*
X163348615Y-112233682D01*
X163389744Y-112225501D01*
X163508127Y-112176465D01*
X163614669Y-112105276D01*
X163705276Y-112014669D01*
X163776465Y-111908127D01*
X163825501Y-111789744D01*
X163833682Y-111748615D01*
X163850500Y-111664071D01*
X163850500Y-111535928D01*
X163825502Y-111410261D01*
X163825501Y-111410260D01*
X163825501Y-111410256D01*
X163787574Y-111318692D01*
X163776466Y-111291875D01*
X163776461Y-111291866D01*
X163705276Y-111185331D01*
X163705273Y-111185327D01*
X163614672Y-111094726D01*
X163614668Y-111094723D01*
X163508133Y-111023538D01*
X163508124Y-111023533D01*
X163389744Y-110974499D01*
X163389738Y-110974497D01*
X163264071Y-110949500D01*
X163264069Y-110949500D01*
X163135931Y-110949500D01*
X163135929Y-110949500D01*
X163010261Y-110974497D01*
X163010255Y-110974499D01*
X162891875Y-111023533D01*
X162891866Y-111023538D01*
X162785332Y-111094722D01*
X162751103Y-111128951D01*
X162716872Y-111163182D01*
X162655552Y-111196666D01*
X162629193Y-111199500D01*
X159570807Y-111199500D01*
X159503768Y-111179815D01*
X159483130Y-111163185D01*
X159414669Y-111094724D01*
X159414668Y-111094723D01*
X159414667Y-111094722D01*
X159308133Y-111023538D01*
X159308124Y-111023533D01*
X159189744Y-110974499D01*
X159189738Y-110974497D01*
X159064071Y-110949500D01*
X159064069Y-110949500D01*
X158935931Y-110949500D01*
X158935929Y-110949500D01*
X158810261Y-110974497D01*
X158810255Y-110974499D01*
X158691875Y-111023533D01*
X158691866Y-111023538D01*
X158585331Y-111094723D01*
X158585327Y-111094726D01*
X158494726Y-111185327D01*
X158494723Y-111185331D01*
X158423538Y-111291866D01*
X158423533Y-111291875D01*
X158374499Y-111410255D01*
X158374497Y-111410261D01*
X158349500Y-111535928D01*
X158349500Y-111535931D01*
X158349500Y-111664069D01*
X158349500Y-111664071D01*
X158349499Y-111664071D01*
X100500500Y-111664071D01*
X100500500Y-107726571D01*
X184661999Y-107726571D01*
X184686997Y-107852238D01*
X184686999Y-107852244D01*
X184736033Y-107970624D01*
X184736038Y-107970633D01*
X184807222Y-108077167D01*
X184807223Y-108077168D01*
X184807224Y-108077169D01*
X184875682Y-108145627D01*
X184909166Y-108206948D01*
X184912000Y-108233307D01*
X184912000Y-110841692D01*
X184892315Y-110908731D01*
X184875681Y-110929373D01*
X184857226Y-110947827D01*
X184857223Y-110947831D01*
X184786038Y-111054366D01*
X184786033Y-111054375D01*
X184736999Y-111172755D01*
X184736997Y-111172761D01*
X184712000Y-111298428D01*
X184712000Y-111298431D01*
X184712000Y-111426569D01*
X184712000Y-111426571D01*
X184711999Y-111426571D01*
X184736997Y-111552238D01*
X184736999Y-111552244D01*
X184786033Y-111670624D01*
X184786038Y-111670633D01*
X184857223Y-111777168D01*
X184857226Y-111777172D01*
X184947827Y-111867773D01*
X184947831Y-111867776D01*
X185054366Y-111938961D01*
X185054372Y-111938964D01*
X185054373Y-111938965D01*
X185172756Y-111988001D01*
X185172760Y-111988001D01*
X185172761Y-111988002D01*
X185298428Y-112013000D01*
X185298431Y-112013000D01*
X185426571Y-112013000D01*
X185511115Y-111996182D01*
X185552244Y-111988001D01*
X185670627Y-111938965D01*
X185777169Y-111867776D01*
X185867776Y-111777169D01*
X185938965Y-111670627D01*
X185988001Y-111552244D01*
X186013000Y-111426569D01*
X186013000Y-111298431D01*
X186013000Y-111298428D01*
X185988002Y-111172761D01*
X185988001Y-111172760D01*
X185988001Y-111172756D01*
X185938965Y-111054373D01*
X185938964Y-111054372D01*
X185938961Y-111054366D01*
X185867776Y-110947831D01*
X185867773Y-110947827D01*
X185777176Y-110857230D01*
X185777171Y-110857226D01*
X185777169Y-110857224D01*
X185768103Y-110851166D01*
X185723302Y-110797553D01*
X185713000Y-110748068D01*
X185713000Y-108233307D01*
X185732685Y-108166268D01*
X185749314Y-108145630D01*
X185817776Y-108077169D01*
X185888965Y-107970627D01*
X185938001Y-107852244D01*
X185963000Y-107726569D01*
X185963000Y-107598431D01*
X185963000Y-107598428D01*
X185938002Y-107472761D01*
X185938001Y-107472760D01*
X185938001Y-107472756D01*
X185888965Y-107354373D01*
X185888964Y-107354372D01*
X185888961Y-107354366D01*
X185817776Y-107247831D01*
X185817773Y-107247827D01*
X185727172Y-107157226D01*
X185727168Y-107157223D01*
X185620633Y-107086038D01*
X185620624Y-107086033D01*
X185502244Y-107036999D01*
X185502238Y-107036997D01*
X185376571Y-107012000D01*
X185376569Y-107012000D01*
X185248431Y-107012000D01*
X185248429Y-107012000D01*
X185122761Y-107036997D01*
X185122755Y-107036999D01*
X185004375Y-107086033D01*
X185004366Y-107086038D01*
X184897831Y-107157223D01*
X184897827Y-107157226D01*
X184807226Y-107247827D01*
X184807223Y-107247831D01*
X184736038Y-107354366D01*
X184736033Y-107354375D01*
X184686999Y-107472755D01*
X184686997Y-107472761D01*
X184662000Y-107598428D01*
X184662000Y-107598431D01*
X184662000Y-107726569D01*
X184662000Y-107726571D01*
X184661999Y-107726571D01*
X100500500Y-107726571D01*
X100500500Y-103945837D01*
X104069500Y-103945837D01*
X104069500Y-104174162D01*
X104105215Y-104399660D01*
X104175770Y-104616803D01*
X104279421Y-104820228D01*
X104413621Y-105004937D01*
X104575063Y-105166379D01*
X104759772Y-105300579D01*
X104855884Y-105349550D01*
X104963196Y-105404229D01*
X104963198Y-105404229D01*
X104963201Y-105404231D01*
X105079592Y-105442049D01*
X105180339Y-105474784D01*
X105405838Y-105510500D01*
X105405843Y-105510500D01*
X105634162Y-105510500D01*
X105859660Y-105474784D01*
X106076799Y-105404231D01*
X106280228Y-105300579D01*
X106464937Y-105166379D01*
X106626379Y-105004937D01*
X106760579Y-104820228D01*
X106864231Y-104616799D01*
X106934784Y-104399660D01*
X106970500Y-104174162D01*
X106970500Y-103945837D01*
X106934784Y-103720339D01*
X106864229Y-103503196D01*
X106760578Y-103299771D01*
X106626379Y-103115063D01*
X106464937Y-102953621D01*
X106280228Y-102819421D01*
X106076803Y-102715770D01*
X105859660Y-102645215D01*
X105634162Y-102609500D01*
X105634157Y-102609500D01*
X105405843Y-102609500D01*
X105405838Y-102609500D01*
X105180339Y-102645215D01*
X104963196Y-102715770D01*
X104759771Y-102819421D01*
X104575061Y-102953622D01*
X104413622Y-103115061D01*
X104279421Y-103299771D01*
X104175770Y-103503196D01*
X104105215Y-103720339D01*
X104069500Y-103945837D01*
X100500500Y-103945837D01*
X100500500Y-101164071D01*
X168149499Y-101164071D01*
X168174497Y-101289738D01*
X168174499Y-101289744D01*
X168223533Y-101408124D01*
X168223538Y-101408133D01*
X168294723Y-101514668D01*
X168294726Y-101514672D01*
X168385327Y-101605273D01*
X168385331Y-101605276D01*
X168491866Y-101676461D01*
X168491872Y-101676464D01*
X168491873Y-101676465D01*
X168610256Y-101725501D01*
X168610260Y-101725501D01*
X168610261Y-101725502D01*
X168735928Y-101750500D01*
X168735931Y-101750500D01*
X168864071Y-101750500D01*
X168948615Y-101733682D01*
X168989744Y-101725501D01*
X169108127Y-101676465D01*
X169214669Y-101605276D01*
X169305276Y-101514669D01*
X169376465Y-101408127D01*
X169425501Y-101289744D01*
X169450500Y-101164069D01*
X169450500Y-101067254D01*
X169470185Y-101000215D01*
X169486819Y-100979573D01*
X172279573Y-98186819D01*
X172340896Y-98153334D01*
X172367254Y-98150500D01*
X172464071Y-98150500D01*
X172548615Y-98133682D01*
X172589744Y-98125501D01*
X172708127Y-98076465D01*
X172814669Y-98005276D01*
X172905276Y-97914669D01*
X172976465Y-97808127D01*
X173025501Y-97689744D01*
X173043396Y-97599783D01*
X173050500Y-97564071D01*
X173050500Y-97435928D01*
X173025502Y-97310261D01*
X173025501Y-97310260D01*
X173025501Y-97310256D01*
X172976465Y-97191873D01*
X172976464Y-97191872D01*
X172976461Y-97191866D01*
X172905276Y-97085331D01*
X172905273Y-97085327D01*
X172814672Y-96994726D01*
X172814668Y-96994723D01*
X172708133Y-96923538D01*
X172708124Y-96923533D01*
X172589744Y-96874499D01*
X172589738Y-96874497D01*
X172464071Y-96849500D01*
X172464069Y-96849500D01*
X172335931Y-96849500D01*
X172335929Y-96849500D01*
X172210261Y-96874497D01*
X172210255Y-96874499D01*
X172091875Y-96923533D01*
X172091866Y-96923538D01*
X171985331Y-96994723D01*
X171985327Y-96994726D01*
X171894726Y-97085327D01*
X171894723Y-97085331D01*
X171823538Y-97191866D01*
X171823533Y-97191875D01*
X171774499Y-97310255D01*
X171774497Y-97310261D01*
X171749500Y-97435928D01*
X171749500Y-97532744D01*
X171729815Y-97599783D01*
X171713181Y-97620425D01*
X168920425Y-100413181D01*
X168859102Y-100446666D01*
X168832744Y-100449500D01*
X168735929Y-100449500D01*
X168610261Y-100474497D01*
X168610255Y-100474499D01*
X168491875Y-100523533D01*
X168491866Y-100523538D01*
X168385331Y-100594723D01*
X168385327Y-100594726D01*
X168294726Y-100685327D01*
X168294723Y-100685331D01*
X168223538Y-100791866D01*
X168223533Y-100791875D01*
X168174499Y-100910255D01*
X168174497Y-100910261D01*
X168149500Y-101035928D01*
X168149500Y-101035931D01*
X168149500Y-101164069D01*
X168149500Y-101164071D01*
X168149499Y-101164071D01*
X100500500Y-101164071D01*
X100500500Y-94108543D01*
X105819499Y-94108543D01*
X105857947Y-94301829D01*
X105857950Y-94301839D01*
X105933364Y-94483907D01*
X105933371Y-94483920D01*
X106042860Y-94647781D01*
X106042863Y-94647785D01*
X106182214Y-94787136D01*
X106182218Y-94787139D01*
X106346079Y-94896628D01*
X106346092Y-94896635D01*
X106391489Y-94915439D01*
X106445893Y-94959280D01*
X106467958Y-95025574D01*
X106450679Y-95093273D01*
X106399542Y-95140884D01*
X106391489Y-95144561D01*
X106346092Y-95163364D01*
X106346079Y-95163371D01*
X106182218Y-95272860D01*
X106182214Y-95272863D01*
X106042863Y-95412214D01*
X106042860Y-95412218D01*
X105933371Y-95576079D01*
X105933364Y-95576092D01*
X105857950Y-95758160D01*
X105857947Y-95758170D01*
X105819500Y-95951456D01*
X105819500Y-95951459D01*
X105819500Y-96148541D01*
X105819500Y-96148543D01*
X105819499Y-96148543D01*
X105857947Y-96341829D01*
X105857950Y-96341839D01*
X105933364Y-96523907D01*
X105933371Y-96523920D01*
X106042860Y-96687781D01*
X106042863Y-96687785D01*
X106182214Y-96827136D01*
X106182218Y-96827139D01*
X106346079Y-96936628D01*
X106346092Y-96936635D01*
X106391489Y-96955439D01*
X106445893Y-96999280D01*
X106467958Y-97065574D01*
X106450679Y-97133273D01*
X106399542Y-97180884D01*
X106391489Y-97184561D01*
X106346092Y-97203364D01*
X106346079Y-97203371D01*
X106182218Y-97312860D01*
X106182214Y-97312863D01*
X106042863Y-97452214D01*
X106042860Y-97452218D01*
X105933371Y-97616079D01*
X105933364Y-97616092D01*
X105857950Y-97798160D01*
X105857947Y-97798170D01*
X105819500Y-97991456D01*
X105819500Y-97991459D01*
X105819500Y-98188541D01*
X105819500Y-98188543D01*
X105819499Y-98188543D01*
X105857947Y-98381829D01*
X105857950Y-98381839D01*
X105933364Y-98563907D01*
X105933371Y-98563920D01*
X106042860Y-98727781D01*
X106042863Y-98727785D01*
X106182214Y-98867136D01*
X106182218Y-98867139D01*
X106346079Y-98976628D01*
X106346092Y-98976635D01*
X106391489Y-98995439D01*
X106445893Y-99039280D01*
X106467958Y-99105574D01*
X106450679Y-99173273D01*
X106399542Y-99220884D01*
X106391489Y-99224561D01*
X106346092Y-99243364D01*
X106346079Y-99243371D01*
X106182218Y-99352860D01*
X106182214Y-99352863D01*
X106042863Y-99492214D01*
X106042860Y-99492218D01*
X105933371Y-99656079D01*
X105933364Y-99656092D01*
X105857950Y-99838160D01*
X105857947Y-99838170D01*
X105819500Y-100031456D01*
X105819500Y-100031459D01*
X105819500Y-100228541D01*
X105819500Y-100228543D01*
X105819499Y-100228543D01*
X105857947Y-100421829D01*
X105857950Y-100421839D01*
X105933364Y-100603907D01*
X105933371Y-100603920D01*
X106042860Y-100767781D01*
X106042863Y-100767785D01*
X106182214Y-100907136D01*
X106182218Y-100907139D01*
X106346079Y-101016628D01*
X106346092Y-101016635D01*
X106468299Y-101067254D01*
X106528165Y-101092051D01*
X106528169Y-101092051D01*
X106528170Y-101092052D01*
X106721456Y-101130500D01*
X106721459Y-101130500D01*
X106918543Y-101130500D01*
X107048582Y-101104632D01*
X107111835Y-101092051D01*
X107293914Y-101016632D01*
X107349377Y-100979573D01*
X107428452Y-100926737D01*
X107438302Y-100920154D01*
X107457782Y-100907139D01*
X107597139Y-100767782D01*
X107706632Y-100603914D01*
X107782051Y-100421835D01*
X107820500Y-100228541D01*
X107820500Y-100031459D01*
X107820500Y-100031456D01*
X107782052Y-99838170D01*
X107782051Y-99838169D01*
X107782051Y-99838165D01*
X107737385Y-99730331D01*
X107706635Y-99656092D01*
X107706628Y-99656079D01*
X107597139Y-99492218D01*
X107597136Y-99492214D01*
X107457785Y-99352863D01*
X107457781Y-99352860D01*
X107293920Y-99243371D01*
X107293916Y-99243369D01*
X107293904Y-99243364D01*
X107248507Y-99224560D01*
X107194106Y-99180721D01*
X107172041Y-99114427D01*
X107189320Y-99046728D01*
X107216626Y-99021304D01*
X108459500Y-99021304D01*
X108459500Y-99198695D01*
X108494103Y-99372658D01*
X108494106Y-99372667D01*
X108561983Y-99536540D01*
X108561990Y-99536553D01*
X108660535Y-99684034D01*
X108660538Y-99684038D01*
X108785961Y-99809461D01*
X108785965Y-99809464D01*
X108933446Y-99908009D01*
X108933459Y-99908016D01*
X109047509Y-99955256D01*
X109097334Y-99975894D01*
X109097336Y-99975894D01*
X109097341Y-99975896D01*
X109271304Y-100010499D01*
X109271307Y-100010500D01*
X109271309Y-100010500D01*
X109448693Y-100010500D01*
X109448694Y-100010499D01*
X109506682Y-99998964D01*
X109622658Y-99975896D01*
X109622661Y-99975894D01*
X109622666Y-99975894D01*
X109786547Y-99908013D01*
X109934035Y-99809464D01*
X110059464Y-99684035D01*
X110158013Y-99536547D01*
X110225894Y-99372666D01*
X110229834Y-99352861D01*
X110248964Y-99256682D01*
X110260500Y-99198691D01*
X110260500Y-99021309D01*
X110260500Y-99021306D01*
X110260499Y-99021304D01*
X110225896Y-98847341D01*
X110225893Y-98847332D01*
X110158016Y-98683459D01*
X110158009Y-98683446D01*
X110059464Y-98535965D01*
X110059461Y-98535961D01*
X109934038Y-98410538D01*
X109934034Y-98410535D01*
X109786553Y-98311990D01*
X109786540Y-98311983D01*
X109622667Y-98244106D01*
X109622658Y-98244103D01*
X109471317Y-98214000D01*
X109471314Y-98214000D01*
X109448691Y-98209500D01*
X109271309Y-98209500D01*
X109248686Y-98214000D01*
X109248683Y-98214000D01*
X109097340Y-98244104D01*
X109097332Y-98244106D01*
X108933459Y-98311983D01*
X108933446Y-98311990D01*
X108785965Y-98410535D01*
X108785961Y-98410538D01*
X108660538Y-98535961D01*
X108660535Y-98535965D01*
X108561990Y-98683446D01*
X108561983Y-98683459D01*
X108494106Y-98847332D01*
X108494103Y-98847341D01*
X108459500Y-99021304D01*
X107216626Y-99021304D01*
X107240456Y-98999117D01*
X107248491Y-98995446D01*
X107293914Y-98976632D01*
X107457782Y-98867139D01*
X107597139Y-98727782D01*
X107706632Y-98563914D01*
X107782051Y-98381835D01*
X107795946Y-98311983D01*
X107820500Y-98188543D01*
X107820500Y-97991456D01*
X107782052Y-97798170D01*
X107782051Y-97798169D01*
X107782051Y-97798165D01*
X107737142Y-97689744D01*
X107706635Y-97616092D01*
X107706628Y-97616079D01*
X107597139Y-97452218D01*
X107597136Y-97452214D01*
X107457785Y-97312863D01*
X107457781Y-97312860D01*
X107293920Y-97203371D01*
X107293916Y-97203369D01*
X107293904Y-97203364D01*
X107248507Y-97184560D01*
X107194106Y-97140721D01*
X107172041Y-97074427D01*
X107189320Y-97006728D01*
X107216626Y-96981304D01*
X108459500Y-96981304D01*
X108459500Y-97158695D01*
X108494103Y-97332658D01*
X108494106Y-97332667D01*
X108561983Y-97496540D01*
X108561990Y-97496553D01*
X108660535Y-97644034D01*
X108660538Y-97644038D01*
X108785961Y-97769461D01*
X108785965Y-97769464D01*
X108933446Y-97868009D01*
X108933459Y-97868016D01*
X109046089Y-97914668D01*
X109097334Y-97935894D01*
X109133338Y-97943055D01*
X109248683Y-97966000D01*
X109248686Y-97966000D01*
X109271309Y-97970500D01*
X109448691Y-97970500D01*
X109471314Y-97966000D01*
X109471317Y-97966000D01*
X109622658Y-97935896D01*
X109622661Y-97935894D01*
X109622666Y-97935894D01*
X109786547Y-97868013D01*
X109934035Y-97769464D01*
X110059464Y-97644035D01*
X110158013Y-97496547D01*
X110225894Y-97332666D01*
X110229834Y-97312861D01*
X110248964Y-97216682D01*
X110260500Y-97158691D01*
X110260500Y-96981309D01*
X110260500Y-96981306D01*
X110260499Y-96981304D01*
X110225896Y-96807341D01*
X110225893Y-96807332D01*
X110158016Y-96643459D01*
X110158009Y-96643446D01*
X110059464Y-96495965D01*
X110059461Y-96495961D01*
X109934038Y-96370538D01*
X109934034Y-96370535D01*
X109786553Y-96271990D01*
X109786540Y-96271983D01*
X109622667Y-96204106D01*
X109622658Y-96204103D01*
X109471317Y-96174000D01*
X109471314Y-96174000D01*
X109448691Y-96169500D01*
X109271309Y-96169500D01*
X109248686Y-96174000D01*
X109248683Y-96174000D01*
X109097340Y-96204104D01*
X109097332Y-96204106D01*
X108933459Y-96271983D01*
X108933446Y-96271990D01*
X108785965Y-96370535D01*
X108785961Y-96370538D01*
X108660538Y-96495961D01*
X108660535Y-96495965D01*
X108561990Y-96643446D01*
X108561983Y-96643459D01*
X108494106Y-96807332D01*
X108494103Y-96807341D01*
X108459500Y-96981304D01*
X107216626Y-96981304D01*
X107240456Y-96959117D01*
X107248491Y-96955446D01*
X107293914Y-96936632D01*
X107457782Y-96827139D01*
X107597139Y-96687782D01*
X107706632Y-96523914D01*
X107782051Y-96341835D01*
X107795946Y-96271983D01*
X107820500Y-96148543D01*
X107820500Y-95951456D01*
X107782052Y-95758170D01*
X107782051Y-95758169D01*
X107782051Y-95758165D01*
X107718209Y-95604035D01*
X107706635Y-95576092D01*
X107706628Y-95576079D01*
X107597139Y-95412218D01*
X107597136Y-95412214D01*
X107457785Y-95272863D01*
X107457781Y-95272860D01*
X107293920Y-95163371D01*
X107293916Y-95163369D01*
X107293904Y-95163364D01*
X107248507Y-95144560D01*
X107194106Y-95100721D01*
X107172041Y-95034427D01*
X107189320Y-94966728D01*
X107216626Y-94941304D01*
X108459500Y-94941304D01*
X108459500Y-95118695D01*
X108494103Y-95292658D01*
X108494106Y-95292667D01*
X108561983Y-95456540D01*
X108561990Y-95456553D01*
X108660535Y-95604034D01*
X108660538Y-95604038D01*
X108785961Y-95729461D01*
X108785965Y-95729464D01*
X108933446Y-95828009D01*
X108933459Y-95828016D01*
X109056363Y-95878923D01*
X109097334Y-95895894D01*
X109133338Y-95903055D01*
X109248683Y-95926000D01*
X109248686Y-95926000D01*
X109271309Y-95930500D01*
X109448691Y-95930500D01*
X109471314Y-95926000D01*
X109471317Y-95926000D01*
X109622658Y-95895896D01*
X109622661Y-95895894D01*
X109622666Y-95895894D01*
X109786547Y-95828013D01*
X109934035Y-95729464D01*
X110059464Y-95604035D01*
X110158013Y-95456547D01*
X110225894Y-95292666D01*
X110229834Y-95272861D01*
X110248964Y-95176682D01*
X110260500Y-95118691D01*
X110260500Y-94941309D01*
X110260500Y-94941306D01*
X110260499Y-94941304D01*
X110225896Y-94767341D01*
X110225893Y-94767332D01*
X110158016Y-94603459D01*
X110158009Y-94603446D01*
X110059464Y-94455965D01*
X110059461Y-94455961D01*
X109934038Y-94330538D01*
X109934034Y-94330535D01*
X109786553Y-94231990D01*
X109786540Y-94231983D01*
X109622667Y-94164106D01*
X109622658Y-94164103D01*
X109471317Y-94134000D01*
X109471314Y-94134000D01*
X109448691Y-94129500D01*
X109271309Y-94129500D01*
X109248686Y-94134000D01*
X109248683Y-94134000D01*
X109097340Y-94164104D01*
X109097332Y-94164106D01*
X108933459Y-94231983D01*
X108933446Y-94231990D01*
X108785965Y-94330535D01*
X108785961Y-94330538D01*
X108660538Y-94455961D01*
X108660535Y-94455965D01*
X108561990Y-94603446D01*
X108561983Y-94603459D01*
X108494106Y-94767332D01*
X108494103Y-94767341D01*
X108459500Y-94941304D01*
X107216626Y-94941304D01*
X107240456Y-94919117D01*
X107248491Y-94915446D01*
X107293914Y-94896632D01*
X107457782Y-94787139D01*
X107597139Y-94647782D01*
X107706632Y-94483914D01*
X107782051Y-94301835D01*
X107798292Y-94220185D01*
X107820500Y-94108543D01*
X107820500Y-93911456D01*
X107782052Y-93718170D01*
X107782051Y-93718169D01*
X107782051Y-93718165D01*
X107777349Y-93706814D01*
X107706635Y-93536092D01*
X107706628Y-93536079D01*
X107597139Y-93372218D01*
X107597136Y-93372214D01*
X107457785Y-93232863D01*
X107457781Y-93232860D01*
X107293920Y-93123371D01*
X107293907Y-93123364D01*
X107111839Y-93047950D01*
X107111829Y-93047947D01*
X106955413Y-93016834D01*
X106918543Y-93009500D01*
X106918541Y-93009500D01*
X106721459Y-93009500D01*
X106721457Y-93009500D01*
X106528170Y-93047947D01*
X106528160Y-93047950D01*
X106346092Y-93123364D01*
X106346079Y-93123371D01*
X106182218Y-93232860D01*
X106182214Y-93232863D01*
X106042863Y-93372214D01*
X106042860Y-93372218D01*
X105933371Y-93536079D01*
X105933364Y-93536092D01*
X105857950Y-93718160D01*
X105857947Y-93718170D01*
X105819500Y-93911456D01*
X105819500Y-93911459D01*
X105819500Y-94108541D01*
X105819500Y-94108543D01*
X105819499Y-94108543D01*
X100500500Y-94108543D01*
X100500500Y-92901304D01*
X108459500Y-92901304D01*
X108459500Y-93078695D01*
X108494103Y-93252658D01*
X108494106Y-93252667D01*
X108561983Y-93416540D01*
X108561990Y-93416553D01*
X108660535Y-93564034D01*
X108660538Y-93564038D01*
X108785961Y-93689461D01*
X108785965Y-93689464D01*
X108933446Y-93788009D01*
X108933459Y-93788016D01*
X109044737Y-93834108D01*
X109097334Y-93855894D01*
X109133338Y-93863055D01*
X109248683Y-93886000D01*
X109248686Y-93886000D01*
X109271309Y-93890500D01*
X109448691Y-93890500D01*
X109471314Y-93886000D01*
X109471317Y-93886000D01*
X109622658Y-93855896D01*
X109622661Y-93855894D01*
X109622666Y-93855894D01*
X109786547Y-93788013D01*
X109934035Y-93689464D01*
X110059464Y-93564035D01*
X110158013Y-93416547D01*
X110225894Y-93252666D01*
X110229834Y-93232861D01*
X110249477Y-93134108D01*
X110260500Y-93078691D01*
X110260500Y-92901309D01*
X110260500Y-92901306D01*
X110260499Y-92901304D01*
X110225896Y-92727341D01*
X110225893Y-92727332D01*
X110158016Y-92563459D01*
X110158009Y-92563446D01*
X110059464Y-92415965D01*
X110059461Y-92415961D01*
X109934038Y-92290538D01*
X109934034Y-92290535D01*
X109786553Y-92191990D01*
X109786540Y-92191983D01*
X109622667Y-92124106D01*
X109622658Y-92124103D01*
X109448694Y-92089500D01*
X109448691Y-92089500D01*
X109271309Y-92089500D01*
X109271306Y-92089500D01*
X109097341Y-92124103D01*
X109097332Y-92124106D01*
X108933459Y-92191983D01*
X108933446Y-92191990D01*
X108785965Y-92290535D01*
X108785961Y-92290538D01*
X108660538Y-92415961D01*
X108660535Y-92415965D01*
X108561990Y-92563446D01*
X108561983Y-92563459D01*
X108494106Y-92727332D01*
X108494103Y-92727341D01*
X108459500Y-92901304D01*
X100500500Y-92901304D01*
X100500500Y-88945837D01*
X104069500Y-88945837D01*
X104069500Y-89174162D01*
X104105215Y-89399660D01*
X104175770Y-89616803D01*
X104279421Y-89820228D01*
X104413621Y-90004937D01*
X104575063Y-90166379D01*
X104759772Y-90300579D01*
X104855884Y-90349550D01*
X104963196Y-90404229D01*
X104963198Y-90404229D01*
X104963201Y-90404231D01*
X105079592Y-90442049D01*
X105180339Y-90474784D01*
X105405838Y-90510500D01*
X105405843Y-90510500D01*
X105634162Y-90510500D01*
X105859660Y-90474784D01*
X106076799Y-90404231D01*
X106280228Y-90300579D01*
X106464937Y-90166379D01*
X106626379Y-90004937D01*
X106760579Y-89820228D01*
X106864231Y-89616799D01*
X106934784Y-89399660D01*
X106970500Y-89174162D01*
X106970500Y-88945837D01*
X106934784Y-88720339D01*
X106874273Y-88534107D01*
X106864231Y-88503201D01*
X106864229Y-88503198D01*
X106864229Y-88503196D01*
X106760578Y-88299771D01*
X106626379Y-88115063D01*
X106464937Y-87953621D01*
X106280228Y-87819421D01*
X106076803Y-87715770D01*
X105859660Y-87645215D01*
X105634162Y-87609500D01*
X105634157Y-87609500D01*
X105405843Y-87609500D01*
X105405838Y-87609500D01*
X105180339Y-87645215D01*
X104963196Y-87715770D01*
X104759771Y-87819421D01*
X104575061Y-87953622D01*
X104413622Y-88115061D01*
X104279421Y-88299771D01*
X104175770Y-88503196D01*
X104105215Y-88720339D01*
X104069500Y-88945837D01*
X100500500Y-88945837D01*
X100500500Y-85164071D01*
X131249499Y-85164071D01*
X131274497Y-85289738D01*
X131274499Y-85289744D01*
X131323533Y-85408124D01*
X131323538Y-85408133D01*
X131394722Y-85514667D01*
X131394723Y-85514668D01*
X131394724Y-85514669D01*
X131463182Y-85583127D01*
X131496666Y-85644448D01*
X131499500Y-85670807D01*
X131499500Y-88752726D01*
X131526793Y-88854589D01*
X131553156Y-88900250D01*
X131579520Y-88945913D01*
X131579522Y-88945915D01*
X133220516Y-90586909D01*
X133254001Y-90648232D01*
X133249017Y-90717924D01*
X133235937Y-90743481D01*
X133173538Y-90836866D01*
X133173533Y-90836875D01*
X133124499Y-90955255D01*
X133124497Y-90955261D01*
X133099500Y-91080928D01*
X133099500Y-91080931D01*
X133099500Y-91209069D01*
X133099500Y-91209071D01*
X133099499Y-91209071D01*
X133124497Y-91334738D01*
X133124499Y-91334744D01*
X133173533Y-91453124D01*
X133173538Y-91453133D01*
X133244722Y-91559667D01*
X133244723Y-91559668D01*
X133244724Y-91559669D01*
X133313182Y-91628127D01*
X133346666Y-91689448D01*
X133349500Y-91715807D01*
X133349500Y-99574192D01*
X133329815Y-99641231D01*
X133313181Y-99661873D01*
X133244726Y-99730327D01*
X133244723Y-99730331D01*
X133173538Y-99836866D01*
X133173533Y-99836875D01*
X133124499Y-99955255D01*
X133124497Y-99955261D01*
X133099500Y-100080928D01*
X133099500Y-100080931D01*
X133099500Y-100209069D01*
X133099500Y-100209071D01*
X133099499Y-100209071D01*
X133124497Y-100334738D01*
X133124499Y-100334744D01*
X133173533Y-100453124D01*
X133173538Y-100453133D01*
X133244723Y-100559668D01*
X133244726Y-100559672D01*
X133335327Y-100650273D01*
X133335331Y-100650276D01*
X133441866Y-100721461D01*
X133441872Y-100721464D01*
X133441873Y-100721465D01*
X133560256Y-100770501D01*
X133560260Y-100770501D01*
X133560261Y-100770502D01*
X133685928Y-100795500D01*
X133685931Y-100795500D01*
X133814071Y-100795500D01*
X133898615Y-100778682D01*
X133939744Y-100770501D01*
X134058127Y-100721465D01*
X134164669Y-100650276D01*
X134233127Y-100581817D01*
X134294448Y-100548334D01*
X134320807Y-100545500D01*
X143082227Y-100545500D01*
X143149266Y-100565185D01*
X143185329Y-100600609D01*
X143194723Y-100614668D01*
X143194726Y-100614672D01*
X143285327Y-100705273D01*
X143285331Y-100705276D01*
X143391866Y-100776461D01*
X143391872Y-100776464D01*
X143391873Y-100776465D01*
X143510256Y-100825501D01*
X143510260Y-100825501D01*
X143510261Y-100825502D01*
X143635928Y-100850500D01*
X143635931Y-100850500D01*
X143764071Y-100850500D01*
X143848615Y-100833682D01*
X143889744Y-100825501D01*
X144008127Y-100776465D01*
X144114669Y-100705276D01*
X144205276Y-100614669D01*
X144276465Y-100508127D01*
X144325501Y-100389744D01*
X144333682Y-100348615D01*
X144350500Y-100264071D01*
X144350500Y-100135928D01*
X144325502Y-100010261D01*
X144325501Y-100010260D01*
X144325501Y-100010256D01*
X144276465Y-99891873D01*
X144276464Y-99891872D01*
X144276461Y-99891866D01*
X144205276Y-99785331D01*
X144205273Y-99785327D01*
X144114672Y-99694726D01*
X144114668Y-99694723D01*
X144008133Y-99623538D01*
X144008124Y-99623533D01*
X143889744Y-99574499D01*
X143889738Y-99574497D01*
X143764071Y-99549500D01*
X143764069Y-99549500D01*
X143635931Y-99549500D01*
X143635929Y-99549500D01*
X143510261Y-99574497D01*
X143510255Y-99574499D01*
X143391875Y-99623533D01*
X143391866Y-99623538D01*
X143285331Y-99694723D01*
X143285327Y-99694726D01*
X143271873Y-99708181D01*
X143210550Y-99741666D01*
X143184192Y-99744500D01*
X134320807Y-99744500D01*
X134291366Y-99735855D01*
X134261380Y-99729332D01*
X134256364Y-99725577D01*
X134253768Y-99724815D01*
X134233126Y-99708181D01*
X134186819Y-99661874D01*
X134153334Y-99600551D01*
X134150500Y-99574193D01*
X134150500Y-91715807D01*
X134170185Y-91648768D01*
X134186814Y-91628130D01*
X134255276Y-91559669D01*
X134326465Y-91453127D01*
X134375501Y-91334744D01*
X134400500Y-91209069D01*
X134400500Y-91080931D01*
X134400500Y-91080928D01*
X134375502Y-90955261D01*
X134375501Y-90955260D01*
X134375501Y-90955256D01*
X134326465Y-90836873D01*
X134326464Y-90836872D01*
X134326461Y-90836866D01*
X134255276Y-90730331D01*
X134255273Y-90730327D01*
X134186819Y-90661873D01*
X134153334Y-90600550D01*
X134150500Y-90574192D01*
X134150500Y-90497275D01*
X134150500Y-90497273D01*
X134123207Y-90395413D01*
X134123207Y-90395412D01*
X134070480Y-90304087D01*
X132336819Y-88570426D01*
X132303334Y-88509103D01*
X132300500Y-88482745D01*
X132300500Y-85670807D01*
X132320185Y-85603768D01*
X132336814Y-85583130D01*
X132405276Y-85514669D01*
X132476465Y-85408127D01*
X132525501Y-85289744D01*
X132550500Y-85164069D01*
X132550500Y-85035931D01*
X132550500Y-85035928D01*
X132525502Y-84910261D01*
X132525501Y-84910260D01*
X132525501Y-84910256D01*
X132476465Y-84791873D01*
X132476464Y-84791872D01*
X132476461Y-84791866D01*
X132405276Y-84685331D01*
X132405273Y-84685327D01*
X132314672Y-84594726D01*
X132314668Y-84594723D01*
X132208133Y-84523538D01*
X132208124Y-84523533D01*
X132089744Y-84474499D01*
X132089738Y-84474497D01*
X131964071Y-84449500D01*
X131964069Y-84449500D01*
X131835931Y-84449500D01*
X131835929Y-84449500D01*
X131710261Y-84474497D01*
X131710255Y-84474499D01*
X131591875Y-84523533D01*
X131591866Y-84523538D01*
X131485331Y-84594723D01*
X131485327Y-84594726D01*
X131394726Y-84685327D01*
X131394723Y-84685331D01*
X131323538Y-84791866D01*
X131323533Y-84791875D01*
X131274499Y-84910255D01*
X131274497Y-84910261D01*
X131249500Y-85035928D01*
X131249500Y-85035931D01*
X131249500Y-85164069D01*
X131249500Y-85164071D01*
X131249499Y-85164071D01*
X100500500Y-85164071D01*
X100500500Y-75439108D01*
X106544500Y-75439108D01*
X106544500Y-75570892D01*
X106555049Y-75610261D01*
X106578608Y-75698187D01*
X106600398Y-75735928D01*
X106644500Y-75812314D01*
X106737686Y-75905500D01*
X106851814Y-75971392D01*
X106979108Y-76005500D01*
X106979110Y-76005500D01*
X107069167Y-76005500D01*
X107136206Y-76025185D01*
X107156848Y-76041819D01*
X108508181Y-77393152D01*
X108541666Y-77454475D01*
X108544500Y-77480833D01*
X108544500Y-77520891D01*
X108578608Y-77648187D01*
X108611554Y-77705250D01*
X108644500Y-77762314D01*
X108737686Y-77855500D01*
X108851814Y-77921392D01*
X108979108Y-77955500D01*
X108979110Y-77955500D01*
X109110890Y-77955500D01*
X109110892Y-77955500D01*
X109238186Y-77921392D01*
X109352314Y-77855500D01*
X109445500Y-77762314D01*
X109511392Y-77648186D01*
X109545500Y-77520892D01*
X109545500Y-77389108D01*
X109511392Y-77261814D01*
X109445500Y-77147686D01*
X109352314Y-77054500D01*
X109295250Y-77021554D01*
X109238187Y-76988608D01*
X109174539Y-76971554D01*
X109110892Y-76954500D01*
X108979108Y-76954500D01*
X108970981Y-76954500D01*
X108970981Y-76950987D01*
X108917793Y-76942592D01*
X108883169Y-76918198D01*
X107581819Y-75616848D01*
X107548334Y-75555525D01*
X107545500Y-75529167D01*
X107545500Y-75439110D01*
X107545500Y-75439108D01*
X107511392Y-75311814D01*
X107445500Y-75197686D01*
X107352314Y-75104500D01*
X107295250Y-75071554D01*
X107238187Y-75038608D01*
X107174539Y-75021554D01*
X107110892Y-75004500D01*
X106979108Y-75004500D01*
X106851812Y-75038608D01*
X106737686Y-75104500D01*
X106737683Y-75104502D01*
X106644502Y-75197683D01*
X106644500Y-75197686D01*
X106578608Y-75311812D01*
X106564844Y-75363181D01*
X106544500Y-75439108D01*
X100500500Y-75439108D01*
X100500500Y-73339108D01*
X108044500Y-73339108D01*
X108044500Y-73470892D01*
X108055536Y-73512079D01*
X108078608Y-73598187D01*
X108097245Y-73630467D01*
X108144500Y-73712314D01*
X108237686Y-73805500D01*
X108351814Y-73871392D01*
X108479108Y-73905500D01*
X108479110Y-73905500D01*
X108610890Y-73905500D01*
X108610892Y-73905500D01*
X108738186Y-73871392D01*
X108852314Y-73805500D01*
X108945500Y-73712314D01*
X109011392Y-73598186D01*
X109045500Y-73470892D01*
X109045500Y-73339108D01*
X109011392Y-73211814D01*
X108945500Y-73097686D01*
X108852314Y-73004500D01*
X108795250Y-72971554D01*
X108738187Y-72938608D01*
X108669430Y-72920185D01*
X108610892Y-72904500D01*
X108479108Y-72904500D01*
X108351812Y-72938608D01*
X108237686Y-73004500D01*
X108237683Y-73004502D01*
X108144502Y-73097683D01*
X108144500Y-73097686D01*
X108078608Y-73211812D01*
X108068350Y-73250097D01*
X108044500Y-73339108D01*
X100500500Y-73339108D01*
X100500500Y-71564071D01*
X114549499Y-71564071D01*
X114574497Y-71689738D01*
X114574499Y-71689744D01*
X114623533Y-71808124D01*
X114623538Y-71808133D01*
X114694722Y-71914667D01*
X114694723Y-71914668D01*
X114694724Y-71914669D01*
X114763182Y-71983127D01*
X114796666Y-72044448D01*
X114799500Y-72070807D01*
X114799500Y-73874090D01*
X114826793Y-73975953D01*
X114841731Y-74001825D01*
X114879520Y-74067277D01*
X116932723Y-76120480D01*
X117024048Y-76173207D01*
X117125909Y-76200500D01*
X117231363Y-76200500D01*
X118229193Y-76200500D01*
X118296232Y-76220185D01*
X118316869Y-76236814D01*
X118385328Y-76305273D01*
X118385332Y-76305277D01*
X118491866Y-76376461D01*
X118491872Y-76376464D01*
X118491873Y-76376465D01*
X118610256Y-76425501D01*
X118610260Y-76425501D01*
X118610261Y-76425502D01*
X118735928Y-76450500D01*
X118735931Y-76450500D01*
X118864071Y-76450500D01*
X118948615Y-76433682D01*
X118989744Y-76425501D01*
X119108127Y-76376465D01*
X119214669Y-76305276D01*
X119305276Y-76214669D01*
X119376465Y-76108127D01*
X119425501Y-75989744D01*
X119450500Y-75864069D01*
X119450500Y-75735931D01*
X119450500Y-75735928D01*
X119425502Y-75610261D01*
X119425501Y-75610260D01*
X119425501Y-75610256D01*
X119376465Y-75491873D01*
X119376464Y-75491872D01*
X119376461Y-75491866D01*
X119305276Y-75385331D01*
X119305273Y-75385327D01*
X119214672Y-75294726D01*
X119214668Y-75294723D01*
X119108133Y-75223538D01*
X119108124Y-75223533D01*
X118989744Y-75174499D01*
X118989738Y-75174497D01*
X118864071Y-75149500D01*
X118864069Y-75149500D01*
X118735931Y-75149500D01*
X118735929Y-75149500D01*
X118610261Y-75174497D01*
X118610255Y-75174499D01*
X118491875Y-75223533D01*
X118491866Y-75223538D01*
X118385332Y-75294722D01*
X118351103Y-75328951D01*
X118316872Y-75363182D01*
X118255552Y-75396666D01*
X118229193Y-75399500D01*
X117395891Y-75399500D01*
X117328852Y-75379815D01*
X117308210Y-75363181D01*
X117111239Y-75166210D01*
X117077754Y-75104887D01*
X117082738Y-75035195D01*
X117124610Y-74979262D01*
X117136920Y-74971142D01*
X117207314Y-74930500D01*
X117300500Y-74837314D01*
X117366392Y-74723186D01*
X117400500Y-74595892D01*
X117400500Y-74464108D01*
X117389520Y-74423130D01*
X117391182Y-74353282D01*
X117421611Y-74303358D01*
X118238573Y-73486396D01*
X118299894Y-73452913D01*
X118369586Y-73457897D01*
X118425519Y-73499769D01*
X118433639Y-73512079D01*
X118473765Y-73581579D01*
X118566951Y-73674765D01*
X118681079Y-73740657D01*
X118808373Y-73774765D01*
X118808375Y-73774765D01*
X118940155Y-73774765D01*
X118940157Y-73774765D01*
X119067451Y-73740657D01*
X119181579Y-73674765D01*
X119274765Y-73581579D01*
X119340657Y-73467451D01*
X119374765Y-73340157D01*
X119374765Y-73250097D01*
X119394450Y-73183058D01*
X119411084Y-73162416D01*
X124939393Y-67634108D01*
X131999500Y-67634108D01*
X131999500Y-67765891D01*
X132033608Y-67893187D01*
X132066554Y-67950250D01*
X132099500Y-68007314D01*
X132099502Y-68007316D01*
X132163181Y-68070995D01*
X132196666Y-68132318D01*
X132199500Y-68158676D01*
X132199500Y-73739562D01*
X132219979Y-73815989D01*
X132251966Y-73871392D01*
X132259540Y-73884511D01*
X151759540Y-93384511D01*
X151815489Y-93440460D01*
X151815491Y-93440461D01*
X151815495Y-93440464D01*
X151884004Y-93480017D01*
X151884011Y-93480021D01*
X151960438Y-93500500D01*
X152039562Y-93500500D01*
X160500495Y-93500500D01*
X160567534Y-93520185D01*
X160613289Y-93572989D01*
X160623233Y-93642147D01*
X160620270Y-93656593D01*
X160599500Y-93734108D01*
X160599500Y-93865891D01*
X160633608Y-93993187D01*
X160666554Y-94050250D01*
X160699500Y-94107314D01*
X160792686Y-94200500D01*
X160891521Y-94257563D01*
X160906810Y-94266390D01*
X160906814Y-94266392D01*
X161034108Y-94300500D01*
X161034110Y-94300500D01*
X161165890Y-94300500D01*
X161165892Y-94300500D01*
X161293186Y-94266392D01*
X161378540Y-94217113D01*
X161440540Y-94200500D01*
X170241324Y-94200500D01*
X170308363Y-94220185D01*
X170329005Y-94236819D01*
X170392686Y-94300500D01*
X170506814Y-94366392D01*
X170634108Y-94400500D01*
X170634110Y-94400500D01*
X170765890Y-94400500D01*
X170765892Y-94400500D01*
X170893186Y-94366392D01*
X171007314Y-94300500D01*
X171070995Y-94236819D01*
X171132318Y-94203334D01*
X171158676Y-94200500D01*
X188941324Y-94200500D01*
X189008363Y-94220185D01*
X189029005Y-94236819D01*
X189092686Y-94300500D01*
X189206814Y-94366392D01*
X189334108Y-94400500D01*
X189334110Y-94400500D01*
X189465890Y-94400500D01*
X189465892Y-94400500D01*
X189593186Y-94366392D01*
X189707314Y-94300500D01*
X189800500Y-94207314D01*
X189866392Y-94093186D01*
X189900500Y-93965892D01*
X189900500Y-93834108D01*
X189866392Y-93706814D01*
X189800500Y-93592686D01*
X189707314Y-93499500D01*
X189650250Y-93466554D01*
X189593187Y-93433608D01*
X189527181Y-93415922D01*
X189490776Y-93406167D01*
X189431116Y-93369803D01*
X189400587Y-93306956D01*
X189399932Y-93270199D01*
X189400498Y-93265896D01*
X189400500Y-93265892D01*
X189400500Y-93134108D01*
X189366392Y-93006814D01*
X189300500Y-92892686D01*
X189207314Y-92799500D01*
X189150250Y-92766554D01*
X189093187Y-92733608D01*
X189029539Y-92716554D01*
X188965892Y-92699500D01*
X188834108Y-92699500D01*
X188706812Y-92733608D01*
X188592686Y-92799500D01*
X188592683Y-92799502D01*
X188529005Y-92863181D01*
X188467682Y-92896666D01*
X188441324Y-92899500D01*
X152175833Y-92899500D01*
X152108794Y-92879815D01*
X152088152Y-92863181D01*
X132836819Y-73611848D01*
X132803334Y-73550525D01*
X132800500Y-73524167D01*
X132800500Y-68158676D01*
X132820185Y-68091637D01*
X132836819Y-68070995D01*
X132847108Y-68060706D01*
X132900500Y-68007314D01*
X132966392Y-67893186D01*
X133000500Y-67765892D01*
X133000500Y-67634108D01*
X132966392Y-67506814D01*
X132900500Y-67392686D01*
X132807314Y-67299500D01*
X132750250Y-67266554D01*
X132693187Y-67233608D01*
X132629539Y-67216554D01*
X132565892Y-67199500D01*
X132434108Y-67199500D01*
X132306812Y-67233608D01*
X132192686Y-67299500D01*
X132192683Y-67299502D01*
X132099502Y-67392683D01*
X132099500Y-67392686D01*
X132033608Y-67506812D01*
X131999500Y-67634108D01*
X124939393Y-67634108D01*
X125035201Y-67538300D01*
X126734682Y-65838819D01*
X126796005Y-65805334D01*
X126822363Y-65802500D01*
X139337560Y-65802500D01*
X139337562Y-65802500D01*
X139413989Y-65782021D01*
X139482511Y-65742460D01*
X139538460Y-65686511D01*
X142888151Y-62336818D01*
X142949474Y-62303334D01*
X142975832Y-62300500D01*
X143065890Y-62300500D01*
X143065892Y-62300500D01*
X143193186Y-62266392D01*
X143307314Y-62200500D01*
X143400500Y-62107314D01*
X143466392Y-61993186D01*
X143500500Y-61865892D01*
X143500500Y-61734108D01*
X143466392Y-61606814D01*
X143400500Y-61492686D01*
X143307314Y-61399500D01*
X143250250Y-61366554D01*
X143193187Y-61333608D01*
X143181204Y-61330397D01*
X143162598Y-61325412D01*
X143102939Y-61289048D01*
X143072410Y-61226201D01*
X143080705Y-61156826D01*
X143107009Y-61117960D01*
X144388151Y-59836819D01*
X144449474Y-59803334D01*
X144475832Y-59800500D01*
X144565890Y-59800500D01*
X144565892Y-59800500D01*
X144693186Y-59766392D01*
X144807314Y-59700500D01*
X144900500Y-59607314D01*
X144966392Y-59493186D01*
X145000500Y-59365892D01*
X145000500Y-59234108D01*
X144966392Y-59106814D01*
X144900500Y-58992686D01*
X144807314Y-58899500D01*
X144750250Y-58866554D01*
X144693187Y-58833608D01*
X144629539Y-58816554D01*
X144565892Y-58799500D01*
X144434108Y-58799500D01*
X144306812Y-58833608D01*
X144192686Y-58899500D01*
X144192683Y-58899502D01*
X144099502Y-58992683D01*
X144099500Y-58992686D01*
X144033608Y-59106812D01*
X143999500Y-59234108D01*
X143999500Y-59324166D01*
X143979815Y-59391205D01*
X143963181Y-59411847D01*
X142954532Y-60420496D01*
X142893209Y-60453981D01*
X142823517Y-60448997D01*
X142767584Y-60407125D01*
X142759464Y-60394815D01*
X142700500Y-60292686D01*
X142607314Y-60199500D01*
X142529644Y-60154657D01*
X142493187Y-60133608D01*
X142405116Y-60110010D01*
X142365892Y-60099500D01*
X142234108Y-60099500D01*
X142106812Y-60133608D01*
X141992686Y-60199500D01*
X141992683Y-60199502D01*
X141899502Y-60292683D01*
X141899500Y-60292686D01*
X141833608Y-60406812D01*
X141799500Y-60534108D01*
X141799500Y-60624166D01*
X141779815Y-60691205D01*
X141763181Y-60711847D01*
X138111848Y-64363181D01*
X138050525Y-64396666D01*
X138024167Y-64399500D01*
X137939562Y-64399500D01*
X125993338Y-64399500D01*
X125946563Y-64412033D01*
X125916906Y-64419980D01*
X125916905Y-64419981D01*
X125885806Y-64437937D01*
X125885805Y-64437938D01*
X125874688Y-64444356D01*
X125848389Y-64459539D01*
X125848387Y-64459541D01*
X118044748Y-72263181D01*
X117983425Y-72296666D01*
X117957067Y-72299500D01*
X117258676Y-72299500D01*
X117191637Y-72279815D01*
X117170995Y-72263181D01*
X117107316Y-72199502D01*
X117107314Y-72199500D01*
X117050250Y-72166554D01*
X116993187Y-72133608D01*
X116929539Y-72116554D01*
X116865892Y-72099500D01*
X116734108Y-72099500D01*
X116606812Y-72133608D01*
X116492686Y-72199500D01*
X116492683Y-72199502D01*
X116399502Y-72292683D01*
X116399500Y-72292686D01*
X116333608Y-72406812D01*
X116299500Y-72534108D01*
X116299500Y-72665891D01*
X116333608Y-72793187D01*
X116366554Y-72850250D01*
X116399500Y-72907314D01*
X116492686Y-73000500D01*
X116606814Y-73066392D01*
X116734108Y-73100500D01*
X116734110Y-73100500D01*
X116865890Y-73100500D01*
X116865892Y-73100500D01*
X116993186Y-73066392D01*
X117107314Y-73000500D01*
X117170995Y-72936819D01*
X117232318Y-72903334D01*
X117258676Y-72900500D01*
X117675167Y-72900500D01*
X117742206Y-72920185D01*
X117787961Y-72972989D01*
X117797905Y-73042147D01*
X117768880Y-73105703D01*
X117762848Y-73112181D01*
X116873203Y-74001825D01*
X116817616Y-74033918D01*
X116706814Y-74063608D01*
X116706812Y-74063608D01*
X116706812Y-74063609D01*
X116592686Y-74129500D01*
X116592683Y-74129502D01*
X116499502Y-74222683D01*
X116499498Y-74222689D01*
X116458856Y-74293081D01*
X116408288Y-74341295D01*
X116339681Y-74354517D01*
X116274817Y-74328548D01*
X116263789Y-74318760D01*
X115636819Y-73691790D01*
X115603334Y-73630467D01*
X115600500Y-73604109D01*
X115600500Y-72070807D01*
X115620185Y-72003768D01*
X115636814Y-71983130D01*
X115705276Y-71914669D01*
X115776465Y-71808127D01*
X115825501Y-71689744D01*
X115850500Y-71564069D01*
X115850500Y-71467253D01*
X115870185Y-71400214D01*
X115886815Y-71379576D01*
X116597994Y-70668396D01*
X116597999Y-70668393D01*
X116608202Y-70658189D01*
X116608204Y-70658189D01*
X116682771Y-70583622D01*
X116735498Y-70492296D01*
X116741007Y-70471733D01*
X116751289Y-70433368D01*
X116757489Y-70410225D01*
X116762792Y-70390436D01*
X116762792Y-70284982D01*
X116762792Y-70277387D01*
X116762791Y-70277369D01*
X116762791Y-53934108D01*
X131499500Y-53934108D01*
X131499500Y-54065891D01*
X131533608Y-54193187D01*
X131543463Y-54210256D01*
X131599500Y-54307314D01*
X131692686Y-54400500D01*
X131806814Y-54466392D01*
X131934108Y-54500500D01*
X131934110Y-54500500D01*
X132065890Y-54500500D01*
X132065892Y-54500500D01*
X132193186Y-54466392D01*
X132307314Y-54400500D01*
X132370995Y-54336819D01*
X132432318Y-54303334D01*
X132458676Y-54300500D01*
X152024167Y-54300500D01*
X152091206Y-54320185D01*
X152111848Y-54336819D01*
X153163181Y-55388152D01*
X153196666Y-55449475D01*
X153199500Y-55475833D01*
X153199500Y-57760438D01*
X153199500Y-61939562D01*
X153210474Y-61980518D01*
X153219978Y-62015987D01*
X153237257Y-62045915D01*
X153259539Y-62084509D01*
X153259541Y-62084512D01*
X170363181Y-79188152D01*
X170396666Y-79249475D01*
X170399500Y-79275833D01*
X170399500Y-79365891D01*
X170433608Y-79493187D01*
X170466554Y-79550250D01*
X170499500Y-79607314D01*
X170592686Y-79700500D01*
X170706814Y-79766392D01*
X170834108Y-79800500D01*
X170834110Y-79800500D01*
X170965890Y-79800500D01*
X170965892Y-79800500D01*
X171093186Y-79766392D01*
X171207314Y-79700500D01*
X171300500Y-79607314D01*
X171366392Y-79493186D01*
X171400500Y-79365892D01*
X171400500Y-79234108D01*
X171366392Y-79106814D01*
X171300500Y-78992686D01*
X171207314Y-78899500D01*
X171150250Y-78866554D01*
X171093187Y-78833608D01*
X171029539Y-78816554D01*
X170965892Y-78799500D01*
X170875833Y-78799500D01*
X170808794Y-78779815D01*
X170788152Y-78763181D01*
X153836819Y-61811848D01*
X153803334Y-61750525D01*
X153800500Y-61724167D01*
X153800500Y-57747273D01*
X157299500Y-57747273D01*
X157299500Y-61452726D01*
X157326793Y-61554589D01*
X157344137Y-61584628D01*
X157379520Y-61645913D01*
X157379521Y-61645914D01*
X157379522Y-61645915D01*
X178988181Y-83254573D01*
X179021666Y-83315896D01*
X179024500Y-83342254D01*
X179024500Y-84004192D01*
X179004815Y-84071231D01*
X178988181Y-84091873D01*
X178919726Y-84160327D01*
X178919723Y-84160331D01*
X178848538Y-84266866D01*
X178848533Y-84266875D01*
X178799499Y-84385255D01*
X178799497Y-84385261D01*
X178774500Y-84510928D01*
X178774500Y-84510931D01*
X178774500Y-84639069D01*
X178774500Y-84639071D01*
X178774499Y-84639071D01*
X178799497Y-84764738D01*
X178799499Y-84764744D01*
X178848533Y-84883124D01*
X178848538Y-84883133D01*
X178919723Y-84989668D01*
X178919726Y-84989672D01*
X179010327Y-85080273D01*
X179010331Y-85080276D01*
X179116866Y-85151461D01*
X179116872Y-85151464D01*
X179116873Y-85151465D01*
X179235256Y-85200501D01*
X179235260Y-85200501D01*
X179235261Y-85200502D01*
X179360928Y-85225500D01*
X179360931Y-85225500D01*
X179489071Y-85225500D01*
X179573615Y-85208682D01*
X179614744Y-85200501D01*
X179733127Y-85151465D01*
X179839669Y-85080276D01*
X179930276Y-84989669D01*
X180001465Y-84883127D01*
X180050501Y-84764744D01*
X180066298Y-84685331D01*
X180075500Y-84639071D01*
X180075500Y-84510928D01*
X180050502Y-84385261D01*
X180050501Y-84385260D01*
X180050501Y-84385256D01*
X180001465Y-84266873D01*
X180001464Y-84266872D01*
X180001461Y-84266866D01*
X179930276Y-84160331D01*
X179930273Y-84160327D01*
X179861819Y-84091873D01*
X179828334Y-84030550D01*
X179825500Y-84004192D01*
X179825500Y-83187729D01*
X179825501Y-83187716D01*
X179825501Y-83072274D01*
X179825501Y-83072273D01*
X179798207Y-82970413D01*
X179745480Y-82879087D01*
X179670913Y-82804520D01*
X179670912Y-82804519D01*
X179666582Y-82800189D01*
X179666571Y-82800179D01*
X158136819Y-61270426D01*
X158103334Y-61209103D01*
X158100500Y-61182745D01*
X158100500Y-59469108D01*
X167187000Y-59469108D01*
X167187000Y-59600892D01*
X167204054Y-59664539D01*
X167221108Y-59728187D01*
X167243166Y-59766391D01*
X167287000Y-59842314D01*
X167380186Y-59935500D01*
X167494314Y-60001392D01*
X167621608Y-60035500D01*
X167621610Y-60035500D01*
X167753391Y-60035500D01*
X167753392Y-60035500D01*
X167754929Y-60035088D01*
X167756276Y-60035120D01*
X167761449Y-60034439D01*
X167761555Y-60035245D01*
X167824779Y-60036747D01*
X167874709Y-60067180D01*
X168147040Y-60339511D01*
X168202989Y-60395460D01*
X168202991Y-60395461D01*
X168202995Y-60395464D01*
X168248805Y-60421912D01*
X168271511Y-60435021D01*
X168347938Y-60455500D01*
X168427062Y-60455500D01*
X171453742Y-60455500D01*
X171520781Y-60475185D01*
X171541423Y-60491819D01*
X171744181Y-60694577D01*
X171777666Y-60755900D01*
X171780500Y-60782258D01*
X171780500Y-63804294D01*
X171760815Y-63871333D01*
X171718501Y-63911681D01*
X171622686Y-63967000D01*
X171622683Y-63967002D01*
X171529502Y-64060183D01*
X171529500Y-64060186D01*
X171463608Y-64174312D01*
X171429500Y-64301608D01*
X171429500Y-64433392D01*
X171436506Y-64459539D01*
X171463608Y-64560687D01*
X171496554Y-64617750D01*
X171529500Y-64674814D01*
X171622686Y-64768000D01*
X171736814Y-64833892D01*
X171864108Y-64868000D01*
X171864110Y-64868000D01*
X171995890Y-64868000D01*
X171995892Y-64868000D01*
X172123186Y-64833892D01*
X172237314Y-64768000D01*
X172330500Y-64674814D01*
X172396392Y-64560686D01*
X172430500Y-64433392D01*
X172430500Y-64301608D01*
X172396392Y-64174314D01*
X172396388Y-64174307D01*
X172393281Y-64166804D01*
X172395098Y-64166051D01*
X172381500Y-64115294D01*
X172381500Y-60566864D01*
X172372723Y-60534108D01*
X172361021Y-60490436D01*
X172339974Y-60453981D01*
X172321464Y-60421920D01*
X172321458Y-60421912D01*
X171814088Y-59914542D01*
X171814086Y-59914540D01*
X171803117Y-59908207D01*
X171745566Y-59874980D01*
X171745565Y-59874979D01*
X171720088Y-59868152D01*
X171669137Y-59854500D01*
X171669135Y-59854500D01*
X168563333Y-59854500D01*
X168496294Y-59834815D01*
X168475652Y-59818181D01*
X168224319Y-59566848D01*
X168190834Y-59505525D01*
X168188000Y-59479167D01*
X168188000Y-59469110D01*
X168188000Y-59469108D01*
X168153892Y-59341814D01*
X168088000Y-59227686D01*
X167994814Y-59134500D01*
X167937750Y-59101554D01*
X167880687Y-59068608D01*
X167817039Y-59051554D01*
X167753392Y-59034500D01*
X167621608Y-59034500D01*
X167494312Y-59068608D01*
X167380186Y-59134500D01*
X167380183Y-59134502D01*
X167287002Y-59227683D01*
X167287000Y-59227686D01*
X167221108Y-59341812D01*
X167202343Y-59411847D01*
X167187000Y-59469108D01*
X158100500Y-59469108D01*
X158100500Y-58017254D01*
X158120185Y-57950215D01*
X158136814Y-57929578D01*
X160764148Y-55302243D01*
X190474500Y-55302243D01*
X190474500Y-55697756D01*
X190513266Y-56091365D01*
X190513269Y-56091382D01*
X190590424Y-56479275D01*
X190590427Y-56479286D01*
X190705243Y-56857787D01*
X190856603Y-57223201D01*
X190856605Y-57223206D01*
X191043042Y-57572005D01*
X191043053Y-57572023D01*
X191262783Y-57900871D01*
X191262793Y-57900885D01*
X191513708Y-58206626D01*
X191793373Y-58486291D01*
X191793378Y-58486295D01*
X191793379Y-58486296D01*
X192099120Y-58737211D01*
X192427983Y-58956951D01*
X192427992Y-58956956D01*
X192427994Y-58956957D01*
X192776793Y-59143394D01*
X192776795Y-59143394D01*
X192776801Y-59143398D01*
X193142214Y-59294757D01*
X193520704Y-59409570D01*
X193520710Y-59409571D01*
X193520713Y-59409572D01*
X193520724Y-59409575D01*
X193763966Y-59457957D01*
X193908624Y-59486732D01*
X194302240Y-59525500D01*
X194302243Y-59525500D01*
X194697757Y-59525500D01*
X194697760Y-59525500D01*
X195091376Y-59486732D01*
X195283386Y-59448538D01*
X195479275Y-59409575D01*
X195479286Y-59409572D01*
X195479286Y-59409571D01*
X195479296Y-59409570D01*
X195857786Y-59294757D01*
X196223199Y-59143398D01*
X196572017Y-58956951D01*
X196900880Y-58737211D01*
X197206621Y-58486296D01*
X197486296Y-58206621D01*
X197737211Y-57900880D01*
X197956951Y-57572017D01*
X198143398Y-57223199D01*
X198294757Y-56857786D01*
X198409570Y-56479296D01*
X198409572Y-56479286D01*
X198409575Y-56479275D01*
X198448538Y-56283386D01*
X198486732Y-56091376D01*
X198525500Y-55697760D01*
X198525500Y-55302240D01*
X198486732Y-54908624D01*
X198441207Y-54679752D01*
X198409575Y-54520724D01*
X198409572Y-54520713D01*
X198409571Y-54520710D01*
X198409570Y-54520704D01*
X198294757Y-54142214D01*
X198143398Y-53776801D01*
X198142166Y-53774497D01*
X197956957Y-53427994D01*
X197956956Y-53427992D01*
X197956951Y-53427983D01*
X197737211Y-53099120D01*
X197486296Y-52793379D01*
X197486295Y-52793378D01*
X197486291Y-52793373D01*
X197206626Y-52513708D01*
X196900885Y-52262793D01*
X196900884Y-52262792D01*
X196900880Y-52262789D01*
X196572017Y-52043049D01*
X196572012Y-52043046D01*
X196572005Y-52043042D01*
X196223206Y-51856605D01*
X196223201Y-51856603D01*
X195857787Y-51705243D01*
X195479286Y-51590427D01*
X195479275Y-51590424D01*
X195091382Y-51513269D01*
X195091365Y-51513266D01*
X194793710Y-51483950D01*
X194697760Y-51474500D01*
X194302240Y-51474500D01*
X194213500Y-51483240D01*
X193908634Y-51513266D01*
X193908617Y-51513269D01*
X193520724Y-51590424D01*
X193520713Y-51590427D01*
X193142212Y-51705243D01*
X192776798Y-51856603D01*
X192776793Y-51856605D01*
X192427994Y-52043042D01*
X192427976Y-52043053D01*
X192099128Y-52262783D01*
X192099114Y-52262793D01*
X191793373Y-52513708D01*
X191513708Y-52793373D01*
X191262793Y-53099114D01*
X191262783Y-53099128D01*
X191043053Y-53427976D01*
X191043042Y-53427994D01*
X190856605Y-53776793D01*
X190856603Y-53776798D01*
X190705243Y-54142212D01*
X190590427Y-54520713D01*
X190590424Y-54520724D01*
X190513269Y-54908617D01*
X190513266Y-54908634D01*
X190474500Y-55302243D01*
X160764148Y-55302243D01*
X160979573Y-55086818D01*
X161040896Y-55053334D01*
X161067254Y-55050500D01*
X161164071Y-55050500D01*
X161248615Y-55033682D01*
X161289744Y-55025501D01*
X161408127Y-54976465D01*
X161514669Y-54905276D01*
X161605276Y-54814669D01*
X161676465Y-54708127D01*
X161725501Y-54589744D01*
X161739230Y-54520724D01*
X161750500Y-54464071D01*
X161750500Y-54335928D01*
X161725502Y-54210261D01*
X161725501Y-54210260D01*
X161725501Y-54210256D01*
X161676465Y-54091873D01*
X161676464Y-54091872D01*
X161676461Y-54091866D01*
X161605276Y-53985331D01*
X161605273Y-53985327D01*
X161514672Y-53894726D01*
X161514668Y-53894723D01*
X161408133Y-53823538D01*
X161408124Y-53823533D01*
X161289744Y-53774499D01*
X161289738Y-53774497D01*
X161164071Y-53749500D01*
X161164069Y-53749500D01*
X161035931Y-53749500D01*
X161035929Y-53749500D01*
X160910261Y-53774497D01*
X160910255Y-53774499D01*
X160791875Y-53823533D01*
X160791866Y-53823538D01*
X160685331Y-53894723D01*
X160685327Y-53894726D01*
X160594726Y-53985327D01*
X160594723Y-53985331D01*
X160523538Y-54091866D01*
X160523533Y-54091875D01*
X160474499Y-54210255D01*
X160474497Y-54210261D01*
X160449500Y-54335928D01*
X160449500Y-54432744D01*
X160429815Y-54499783D01*
X160413181Y-54520425D01*
X157379522Y-57554084D01*
X157379518Y-57554090D01*
X157326792Y-57645412D01*
X157326793Y-57645413D01*
X157299500Y-57747273D01*
X153800500Y-57747273D01*
X153800500Y-55260440D01*
X153800500Y-55260438D01*
X153780022Y-55184012D01*
X153740460Y-55115489D01*
X152384511Y-53759540D01*
X152384510Y-53759539D01*
X152384507Y-53759537D01*
X152343879Y-53736081D01*
X152343879Y-53736080D01*
X152343877Y-53736080D01*
X152334145Y-53730461D01*
X152315990Y-53719979D01*
X152315991Y-53719979D01*
X152265816Y-53706535D01*
X152239562Y-53699500D01*
X152239560Y-53699500D01*
X132458676Y-53699500D01*
X132391637Y-53679815D01*
X132370995Y-53663181D01*
X132307316Y-53599502D01*
X132307314Y-53599500D01*
X132250250Y-53566554D01*
X132193187Y-53533608D01*
X132129539Y-53516554D01*
X132065892Y-53499500D01*
X131934108Y-53499500D01*
X131806812Y-53533608D01*
X131692686Y-53599500D01*
X131692683Y-53599502D01*
X131599502Y-53692683D01*
X131599500Y-53692686D01*
X131533608Y-53806812D01*
X131499500Y-53934108D01*
X116762791Y-53934108D01*
X116762791Y-53250598D01*
X116782476Y-53183559D01*
X116799105Y-53162921D01*
X116867567Y-53094460D01*
X116938756Y-52987918D01*
X116958502Y-52940247D01*
X166259500Y-52940247D01*
X166259500Y-54679752D01*
X166271131Y-54738229D01*
X166271132Y-54738230D01*
X166315447Y-54804552D01*
X166381769Y-54848867D01*
X166381770Y-54848868D01*
X166440247Y-54860499D01*
X166440250Y-54860500D01*
X166440252Y-54860500D01*
X168179750Y-54860500D01*
X168179751Y-54860499D01*
X168194568Y-54857552D01*
X168238229Y-54848868D01*
X168238229Y-54848867D01*
X168238231Y-54848867D01*
X168304552Y-54804552D01*
X168348867Y-54738231D01*
X168348867Y-54738229D01*
X168348868Y-54738229D01*
X168357552Y-54694568D01*
X168360500Y-54679748D01*
X168360500Y-53706530D01*
X168799500Y-53706530D01*
X168799500Y-53913469D01*
X168838488Y-54109472D01*
X168839870Y-54116420D01*
X168919059Y-54307598D01*
X168938584Y-54336819D01*
X169034024Y-54479657D01*
X169180342Y-54625975D01*
X169180345Y-54625977D01*
X169352402Y-54740941D01*
X169543580Y-54820130D01*
X169688052Y-54848867D01*
X169746530Y-54860499D01*
X169746534Y-54860500D01*
X169746535Y-54860500D01*
X169953466Y-54860500D01*
X169953467Y-54860499D01*
X170156420Y-54820130D01*
X170347598Y-54740941D01*
X170519655Y-54625977D01*
X170665977Y-54479655D01*
X170780941Y-54307598D01*
X170860130Y-54116420D01*
X170900500Y-53913465D01*
X170900500Y-53706535D01*
X170900499Y-53706530D01*
X171339500Y-53706530D01*
X171339500Y-53913469D01*
X171378488Y-54109472D01*
X171379870Y-54116420D01*
X171459059Y-54307598D01*
X171478584Y-54336819D01*
X171574024Y-54479657D01*
X171720342Y-54625975D01*
X171720345Y-54625977D01*
X171892402Y-54740941D01*
X172083580Y-54820130D01*
X172228052Y-54848867D01*
X172286530Y-54860499D01*
X172286534Y-54860500D01*
X172286535Y-54860500D01*
X172493466Y-54860500D01*
X172493467Y-54860499D01*
X172696420Y-54820130D01*
X172887598Y-54740941D01*
X173059655Y-54625977D01*
X173205977Y-54479655D01*
X173320941Y-54307598D01*
X173400130Y-54116420D01*
X173440500Y-53913465D01*
X173440500Y-53706535D01*
X173400130Y-53503580D01*
X173320941Y-53312402D01*
X173205977Y-53140345D01*
X173205975Y-53140342D01*
X173059657Y-52994024D01*
X172891655Y-52881770D01*
X172887598Y-52879059D01*
X172864605Y-52869535D01*
X172696420Y-52799870D01*
X172696412Y-52799868D01*
X172493469Y-52759500D01*
X172493465Y-52759500D01*
X172286535Y-52759500D01*
X172286530Y-52759500D01*
X172083587Y-52799868D01*
X172083579Y-52799870D01*
X171892403Y-52879058D01*
X171720342Y-52994024D01*
X171574024Y-53140342D01*
X171459058Y-53312403D01*
X171379870Y-53503579D01*
X171379868Y-53503587D01*
X171339500Y-53706530D01*
X170900499Y-53706530D01*
X170860130Y-53503580D01*
X170780941Y-53312402D01*
X170665977Y-53140345D01*
X170665975Y-53140342D01*
X170519657Y-52994024D01*
X170351655Y-52881770D01*
X170347598Y-52879059D01*
X170324605Y-52869535D01*
X170156420Y-52799870D01*
X170156412Y-52799868D01*
X169953469Y-52759500D01*
X169953465Y-52759500D01*
X169746535Y-52759500D01*
X169746530Y-52759500D01*
X169543587Y-52799868D01*
X169543579Y-52799870D01*
X169352403Y-52879058D01*
X169180342Y-52994024D01*
X169034024Y-53140342D01*
X168919058Y-53312403D01*
X168839870Y-53503579D01*
X168839868Y-53503587D01*
X168799500Y-53706530D01*
X168360500Y-53706530D01*
X168360500Y-52940252D01*
X168360500Y-52940249D01*
X168360499Y-52940247D01*
X168348868Y-52881770D01*
X168348867Y-52881769D01*
X168304552Y-52815447D01*
X168238230Y-52771132D01*
X168238229Y-52771131D01*
X168179752Y-52759500D01*
X168179748Y-52759500D01*
X166440252Y-52759500D01*
X166440247Y-52759500D01*
X166381770Y-52771131D01*
X166381769Y-52771132D01*
X166315447Y-52815447D01*
X166271132Y-52881769D01*
X166271131Y-52881770D01*
X166259500Y-52940247D01*
X116958502Y-52940247D01*
X116987792Y-52869535D01*
X117007366Y-52771132D01*
X117012791Y-52743862D01*
X117012791Y-52615719D01*
X116987793Y-52490052D01*
X116987792Y-52490051D01*
X116987792Y-52490047D01*
X116938756Y-52371664D01*
X116938755Y-52371663D01*
X116938752Y-52371657D01*
X116867567Y-52265122D01*
X116867564Y-52265118D01*
X116776963Y-52174517D01*
X116776959Y-52174514D01*
X116670424Y-52103329D01*
X116670415Y-52103324D01*
X116552035Y-52054290D01*
X116552029Y-52054288D01*
X116426362Y-52029291D01*
X116426360Y-52029291D01*
X116298222Y-52029291D01*
X116298220Y-52029291D01*
X116172552Y-52054288D01*
X116172546Y-52054290D01*
X116054166Y-52103324D01*
X116054157Y-52103329D01*
X115947622Y-52174514D01*
X115947618Y-52174517D01*
X115857017Y-52265118D01*
X115857014Y-52265122D01*
X115785829Y-52371657D01*
X115785824Y-52371666D01*
X115736790Y-52490046D01*
X115736788Y-52490052D01*
X115711791Y-52615719D01*
X115711791Y-52615722D01*
X115711791Y-52743860D01*
X115711791Y-52743862D01*
X115711790Y-52743862D01*
X115736788Y-52869529D01*
X115736790Y-52869535D01*
X115785824Y-52987915D01*
X115785829Y-52987924D01*
X115857013Y-53094458D01*
X115857014Y-53094459D01*
X115857015Y-53094460D01*
X115925473Y-53162918D01*
X115958957Y-53224239D01*
X115961791Y-53250598D01*
X115961791Y-70120453D01*
X115942106Y-70187492D01*
X115925472Y-70208134D01*
X115320425Y-70813181D01*
X115259102Y-70846666D01*
X115232744Y-70849500D01*
X115135929Y-70849500D01*
X115010261Y-70874497D01*
X115010255Y-70874499D01*
X114891875Y-70923533D01*
X114891866Y-70923538D01*
X114785331Y-70994723D01*
X114785327Y-70994726D01*
X114694726Y-71085327D01*
X114694723Y-71085331D01*
X114623538Y-71191866D01*
X114623533Y-71191875D01*
X114574499Y-71310255D01*
X114574497Y-71310261D01*
X114549500Y-71435928D01*
X114549500Y-71435931D01*
X114549500Y-71564069D01*
X114549500Y-71564071D01*
X114549499Y-71564071D01*
X100500500Y-71564071D01*
X100500500Y-55302243D01*
X101474500Y-55302243D01*
X101474500Y-55697756D01*
X101513266Y-56091365D01*
X101513269Y-56091382D01*
X101590424Y-56479275D01*
X101590427Y-56479286D01*
X101705243Y-56857787D01*
X101856603Y-57223201D01*
X101856605Y-57223206D01*
X102043042Y-57572005D01*
X102043053Y-57572023D01*
X102262783Y-57900871D01*
X102262793Y-57900885D01*
X102513708Y-58206626D01*
X102793373Y-58486291D01*
X102793378Y-58486295D01*
X102793379Y-58486296D01*
X103099120Y-58737211D01*
X103427983Y-58956951D01*
X103427992Y-58956956D01*
X103427994Y-58956957D01*
X103776793Y-59143394D01*
X103776795Y-59143394D01*
X103776801Y-59143398D01*
X104142214Y-59294757D01*
X104520704Y-59409570D01*
X104520710Y-59409571D01*
X104520713Y-59409572D01*
X104520724Y-59409575D01*
X104763966Y-59457957D01*
X104908624Y-59486732D01*
X105302240Y-59525500D01*
X105302243Y-59525500D01*
X105697757Y-59525500D01*
X105697760Y-59525500D01*
X106091376Y-59486732D01*
X106283386Y-59448538D01*
X106479275Y-59409575D01*
X106479286Y-59409572D01*
X106479286Y-59409571D01*
X106479296Y-59409570D01*
X106857786Y-59294757D01*
X107223199Y-59143398D01*
X107572017Y-58956951D01*
X107900880Y-58737211D01*
X108206621Y-58486296D01*
X108486296Y-58206621D01*
X108737211Y-57900880D01*
X108956951Y-57572017D01*
X109143398Y-57223199D01*
X109294757Y-56857786D01*
X109409570Y-56479296D01*
X109409572Y-56479286D01*
X109409575Y-56479275D01*
X109448538Y-56283386D01*
X109486732Y-56091376D01*
X109525500Y-55697760D01*
X109525500Y-55302240D01*
X109486732Y-54908624D01*
X109441207Y-54679752D01*
X109409575Y-54520724D01*
X109409572Y-54520713D01*
X109409571Y-54520710D01*
X109409570Y-54520704D01*
X109294757Y-54142214D01*
X109143398Y-53776801D01*
X109142166Y-53774497D01*
X108956957Y-53427994D01*
X108956956Y-53427992D01*
X108956951Y-53427983D01*
X108737211Y-53099120D01*
X108486296Y-52793379D01*
X108486295Y-52793378D01*
X108486291Y-52793373D01*
X108206626Y-52513708D01*
X107900885Y-52262793D01*
X107900884Y-52262792D01*
X107900880Y-52262789D01*
X107572017Y-52043049D01*
X107572012Y-52043046D01*
X107572005Y-52043042D01*
X107223206Y-51856605D01*
X107223201Y-51856603D01*
X106857787Y-51705243D01*
X106479286Y-51590427D01*
X106479275Y-51590424D01*
X106091382Y-51513269D01*
X106091365Y-51513266D01*
X105793710Y-51483950D01*
X105697760Y-51474500D01*
X105302240Y-51474500D01*
X105213500Y-51483240D01*
X104908634Y-51513266D01*
X104908617Y-51513269D01*
X104520724Y-51590424D01*
X104520713Y-51590427D01*
X104142212Y-51705243D01*
X103776798Y-51856603D01*
X103776793Y-51856605D01*
X103427994Y-52043042D01*
X103427976Y-52043053D01*
X103099128Y-52262783D01*
X103099114Y-52262793D01*
X102793373Y-52513708D01*
X102513708Y-52793373D01*
X102262793Y-53099114D01*
X102262783Y-53099128D01*
X102043053Y-53427976D01*
X102043042Y-53427994D01*
X101856605Y-53776793D01*
X101856603Y-53776798D01*
X101705243Y-54142212D01*
X101590427Y-54520713D01*
X101590424Y-54520724D01*
X101513269Y-54908617D01*
X101513266Y-54908634D01*
X101474500Y-55302243D01*
X100500500Y-55302243D01*
X100500500Y-50624500D01*
X100520185Y-50557461D01*
X100572989Y-50511706D01*
X100624500Y-50500500D01*
X199375500Y-50500500D01*
X199442539Y-50520185D01*
G37*
G04 #@! TD.AperFunction*
M02*
