G04 #@! TF.GenerationSoftware,KiCad,Pcbnew,9.0.6*
G04 #@! TF.CreationDate,2026-01-05T08:43:28+01:00*
G04 #@! TF.ProjectId,revolvenow_hardware,7265766f-6c76-4656-9e6f-775f68617264,rev?*
G04 #@! TF.SameCoordinates,Original*
G04 #@! TF.FileFunction,Legend,Bot*
G04 #@! TF.FilePolarity,Positive*
%FSLAX46Y46*%
G04 Gerber Fmt 4.6, Leading zero omitted, Abs format (unit mm)*
G04 Created by KiCad (PCBNEW 9.0.6) date 2026-01-05 08:43:28*
%MOMM*%
%LPD*%
G01*
G04 APERTURE LIST*
G04 Aperture macros list*
%AMRoundRect*
0 Rectangle with rounded corners*
0 $1 Rounding radius*
0 $2 $3 $4 $5 $6 $7 $8 $9 X,Y pos of 4 corners*
0 Add a 4 corners polygon primitive as box body*
4,1,4,$2,$3,$4,$5,$6,$7,$8,$9,$2,$3,0*
0 Add four circle primitives for the rounded corners*
1,1,$1+$1,$2,$3*
1,1,$1+$1,$4,$5*
1,1,$1+$1,$6,$7*
1,1,$1+$1,$8,$9*
0 Add four rect primitives between the rounded corners*
20,1,$1+$1,$2,$3,$4,$5,0*
20,1,$1+$1,$4,$5,$6,$7,0*
20,1,$1+$1,$6,$7,$8,$9,0*
20,1,$1+$1,$8,$9,$2,$3,0*%
G04 Aperture macros list end*
%ADD10R,1.700000X1.700000*%
%ADD11C,1.700000*%
%ADD12C,0.700000*%
%ADD13O,2.000000X1.000000*%
%ADD14O,1.600000X1.000000*%
%ADD15C,2.400000*%
%ADD16C,1.600000*%
%ADD17C,1.400000*%
%ADD18RoundRect,0.165000X-0.385000X0.785000X-0.385000X-0.785000X0.385000X-0.785000X0.385000X0.785000X0*%
%ADD19C,3.250000*%
%ADD20C,1.720000*%
%ADD21RoundRect,0.174419X-0.425581X0.925581X-0.425581X-0.925581X0.425581X-0.925581X0.425581X0.925581X0*%
G04 APERTURE END LIST*
%LPC*%
D10*
X167310000Y-53810000D03*
D11*
X169850000Y-53810000D03*
X172390000Y-53810000D03*
D12*
X194542500Y-68177500D03*
X194542500Y-62397500D03*
D13*
X194042500Y-69607500D03*
D14*
X198192500Y-69607500D03*
D13*
X194042500Y-60967500D03*
D14*
X198192500Y-60967500D03*
D15*
X150000000Y-146000000D03*
X135000000Y-146000000D03*
D16*
X146070000Y-144700000D03*
X145050000Y-142160000D03*
X144030000Y-144700000D03*
X143010000Y-142160000D03*
X141990000Y-144700000D03*
X140970000Y-142160000D03*
X139950000Y-144700000D03*
X138930000Y-142160000D03*
D17*
X160500000Y-148500000D03*
X160500000Y-141500000D03*
D18*
X158300000Y-144050000D03*
X158300000Y-147050000D03*
X162700000Y-138700000D03*
X158300000Y-140050000D03*
D19*
X183930000Y-141600000D03*
X172500000Y-141600000D03*
D16*
X173770000Y-135250000D03*
X175040000Y-132710000D03*
X176310000Y-135250000D03*
X177580000Y-132710000D03*
X178850000Y-135250000D03*
X180120000Y-132710000D03*
X181390000Y-135250000D03*
X182660000Y-132710000D03*
D20*
X171890000Y-146500000D03*
X174430000Y-144980000D03*
X182000000Y-146500000D03*
X184540000Y-144980000D03*
D21*
X186090000Y-138550000D03*
X170340000Y-138550000D03*
D15*
X105520000Y-104060000D03*
X105520000Y-89060000D03*
D16*
X106820000Y-100130000D03*
X109360000Y-99110000D03*
X106820000Y-98090000D03*
X109360000Y-97070000D03*
X106820000Y-96050000D03*
X109360000Y-95030000D03*
X106820000Y-94010000D03*
X109360000Y-92990000D03*
D15*
X130000000Y-146000000D03*
X115000000Y-146000000D03*
D16*
X126070000Y-144700000D03*
X125050000Y-142160000D03*
X124030000Y-144700000D03*
X123010000Y-142160000D03*
X121990000Y-144700000D03*
X120970000Y-142160000D03*
X119950000Y-144700000D03*
X118930000Y-142160000D03*
%LPD*%
M02*
